<svg width="531" height="146" viewBox="0 0 531 146" fill="none" xmlns="http://www.w3.org/2000/svg">
<path d="M65.1931 91.4863C75.7361 91.4863 84.283 82.9395 84.283 72.3965C84.283 61.8535 75.7361 53.3066 65.1931 53.3066C54.6501 53.3066 46.1035 61.8535 46.1035 72.3965C46.1035 82.9395 54.6501 91.4863 65.1931 91.4863Z" fill="white"/>
<path fill-rule="evenodd" clip-rule="evenodd" d="M121.934 30.7969L72.1716 2.00586C69.8997 0.691406 67.3225 0 64.699 0C62.0754 0 59.4983 0.691406 57.2263 2.00586L7.46338 30.7969C2.84937 33.4668 5.82943e-07 38.4023 5.82943e-07 43.7441V101.324C-0.000731839 103.951 0.688721 106.533 1.99878 108.809C3.30859 111.086 5.19336 112.977 7.46338 114.291L57.2263 143.08C59.4983 144.395 62.0754 145.088 64.699 145.088C67.3225 145.088 69.8997 144.395 72.1716 143.08L121.934 114.291C126.567 111.621 129.398 106.666 129.398 101.324V43.7441C129.395 41.1211 128.704 38.543 127.395 36.2695C126.085 33.998 124.202 32.1094 121.934 30.7969ZM71.0872 31.3672L95.426 45.4219C100.04 48.0742 102.908 53.0469 102.908 58.3887V86.4414C102.907 89.0703 102.215 91.6523 100.901 93.9297C99.5881 96.2051 97.7002 98.0957 95.426 99.4082L71.0872 113.463C68.8193 114.77 66.249 115.457 63.6328 115.457C61.0166 115.457 58.446 114.77 56.1785 113.463L31.8394 99.4082C27.2068 96.7559 24.3574 91.7832 24.3574 86.4414V58.3887C24.3586 55.7598 25.0508 53.1758 26.364 50.9004C26.8613 50.0391 27.4414 49.2324 28.0935 48.4902C28.4976 48.0312 28.9294 47.5977 29.3865 47.1914C30.1392 46.5234 30.9604 45.9297 31.8394 45.4219L56.1785 31.3672C58.446 30.0586 61.0166 29.3711 63.6328 29.3711C66.249 29.3711 68.8193 30.0586 71.0872 31.3672Z" fill="white"/>
<path d="M173.154 43.3574H160.507V31.6035H173.154V43.3574Z" fill="white"/>
<path d="M173.154 96.1035C173.154 106.389 165.878 113.697 155.577 113.697H149.51V102.018H153.597C158.088 102.018 160.507 99.666 160.507 95.1484V49.6387H173.154V96.1035Z" fill="white"/>
<path fill-rule="evenodd" clip-rule="evenodd" d="M223.321 49.6387L222.02 54.082C217.767 50.3359 212.286 48.2891 206.623 48.334C192.601 48.334 182.135 58.9688 182.135 73.1836C182.135 87.3789 192.583 98.1055 206.623 98.1055C212.58 98.1055 217.767 96.0117 221.763 92.4297L222.881 96.709H232.742V49.6387H223.321ZM207.65 86.0762C205.957 86.1113 204.275 85.8008 202.705 85.1641C201.136 84.5273 199.713 83.5762 198.523 82.3691C197.332 81.1641 196.4 79.7266 195.782 78.1465C195.164 76.5684 194.874 74.8789 194.929 73.1836C194.914 72.7676 194.919 72.3516 194.945 71.9355C194.978 71.4121 195.044 70.8906 195.143 70.377C195.284 69.6387 195.492 68.9121 195.766 68.207C196.38 66.623 197.312 65.1816 198.504 63.9727C198.837 63.6348 199.188 63.3164 199.556 63.0195C200.027 62.6406 200.524 62.2969 201.045 61.9902C201.573 61.6777 202.124 61.4043 202.695 61.1738C203.405 60.8867 204.137 60.666 204.883 60.5137C205.791 60.3301 206.719 60.248 207.65 60.2715C208.397 60.2539 209.143 60.3027 209.879 60.418C210.811 60.5645 211.725 60.8184 212.604 61.1738C214.177 61.8105 215.604 62.7637 216.795 63.9727C217.402 64.5879 217.941 65.2637 218.405 65.9863C218.854 66.6855 219.232 67.4297 219.534 68.207C220.148 69.791 220.433 71.4844 220.37 73.1836C220.382 73.5137 220.38 73.8438 220.366 74.1738C220.339 74.7852 220.268 75.3906 220.153 75.9883C220.011 76.7246 219.802 77.4492 219.528 78.1523C218.912 79.7344 217.98 81.1738 216.788 82.3809C215.597 83.5898 214.172 84.5391 212.6 85.1758C211.028 85.8105 209.344 86.1172 207.65 86.0762Z" fill="white"/>
<path d="M264.36 81.1895L275.596 49.6387H288.664L270.152 96.709H258.476L239.432 49.6387H252.941L264.36 81.1895Z" fill="white"/>
<path fill-rule="evenodd" clip-rule="evenodd" d="M331.884 49.6387L330.583 54.082C326.33 50.3359 320.849 48.2891 315.187 48.334C301.165 48.334 290.699 58.9688 290.699 73.1836C290.699 87.3789 301.165 98.1055 315.187 98.1055C321.144 98.1055 326.349 96.0117 330.326 92.4297L331.445 96.709H341.306V49.6387H331.884ZM316.213 86.0762C314.52 86.1113 312.838 85.8008 311.269 85.1641C309.7 84.5273 308.277 83.5762 307.086 82.3691C306.48 81.7559 305.941 81.082 305.476 80.3613C305.028 79.6641 304.648 78.9219 304.345 78.1465C303.728 76.5684 303.437 74.8789 303.493 73.1836C303.43 71.4844 303.714 69.791 304.329 68.207C304.413 67.9922 304.503 67.7773 304.598 67.5664C304.727 67.2832 304.865 67.0059 305.014 66.7344C305.324 66.168 305.678 65.627 306.072 65.1152C306.379 64.7148 306.711 64.334 307.067 63.9727C307.193 63.8438 307.322 63.7188 307.453 63.5977C307.613 63.4492 307.775 63.3047 307.942 63.166C308.264 62.8965 308.6 62.6426 308.947 62.4082C309.337 62.1426 309.742 61.9004 310.161 61.6816C310.357 61.5801 310.556 61.4824 310.758 61.3906C310.923 61.3145 311.09 61.2422 311.258 61.1738C312.831 60.5371 314.517 60.2305 316.213 60.2715C317.909 60.2305 319.595 60.5371 321.168 61.1738C321.457 61.291 321.74 61.418 322.018 61.5566L322.174 61.6367L322.485 61.8008C323.541 62.3789 324.51 63.1113 325.359 63.9727C326.55 65.1816 327.482 66.623 328.097 68.207C328.173 68.4023 328.243 68.5977 328.309 68.7969L328.414 69.127C328.506 69.4336 328.586 69.7422 328.654 70.0547L328.732 70.4414L328.778 70.7051C328.841 71.0859 328.885 71.4707 328.912 71.8574C328.927 72.082 328.937 72.3066 328.94 72.5332C328.944 72.75 328.941 72.9668 328.933 73.1836C328.994 74.8809 328.707 76.5723 328.091 78.1523C327.475 79.7344 326.543 81.1738 325.352 82.3809C324.845 82.8945 324.295 83.3633 323.711 83.7793C322.921 84.3418 322.066 84.8105 321.163 85.1758C319.592 85.8105 317.907 86.1172 316.213 86.0762Z" fill="white"/>
<path d="M366.087 43.3574H353.549V31.6035H366.087V43.3574Z" fill="white"/>
<path d="M353.549 96.709H366.178V49.6387H353.531V96.7266L353.549 96.709Z" fill="white"/>
<path d="M414.457 82.2363C414.457 91.8242 406.686 98.1055 394.827 98.1055C383.151 98.1055 375.269 91.3105 375.269 81.2812H387.55C387.642 85.4688 390.849 87.5625 395.34 87.5625C398.804 87.5625 401.993 85.9102 401.993 82.752C401.993 79.5371 397.943 78.582 393.012 77.793C385.57 76.4883 376.058 74.4863 376.058 63.4121C376.058 54.5234 383.573 48.334 394.827 48.334C406.081 48.334 413.504 54.6895 413.596 64.1113H401.572C401.48 60.3633 398.877 58.5273 394.478 58.5273C390.593 58.5273 388.246 60.2715 388.246 62.9902C388.246 66.1133 392.224 66.9023 397.081 67.7656L397.485 67.8418C405.029 69.2188 414.457 70.9434 414.457 82.2363Z" fill="white"/>
<path d="M446.166 85.377C441.493 85.377 438.908 82.7695 438.908 78.2148V59.9238H451.629V49.6387H438.725V37.4434H436.305L417.885 57.1309V59.9238H426.279V79.9785C426.279 90.3555 432.585 96.709 442.886 96.709H451.867V85.377H446.166Z" fill="white"/>
<path d="M473.055 43.3574H460.5V31.6035H473.055V43.3574Z" fill="white"/>
<path d="M460.5 96.709H473.147V49.6387H460.5V96.709Z" fill="white"/>
<path d="M530.939 78.2344C528.776 90.0801 519.171 98.1055 506.982 98.1055C492.869 98.1055 482.128 87.2148 482.128 73.0918C482.128 58.9688 492.869 48.334 507.056 48.334C519.171 48.334 528.519 56.084 530.774 67.6914H518.218C517.301 65.4707 515.741 63.5762 513.737 62.2539C511.734 60.9297 509.381 60.2402 506.982 60.2715C500.146 60.2715 494.959 65.8359 494.959 73.1836C494.959 80.4199 500.219 86.0762 506.982 86.0762C512.078 86.0762 516.055 83.2832 518.218 78.2344H530.939Z" fill="white"/>
</svg>
