<svg width="150" height="150" viewBox="0 0 150 150" fill="none" xmlns="http://www.w3.org/2000/svg">
<path d="M82.6156 2.07421L134.063 31.8387C136.408 33.197 138.355 35.1487 139.709 37.4983C141.062 39.8479 141.777 42.5128 141.78 45.2261V104.755C141.78 110.278 138.853 115.401 134.063 118.161L82.6156 147.926C80.2667 149.285 77.6021 150 74.8899 150C72.1775 150 69.513 149.285 67.1641 147.926L15.7162 118.161C13.3693 116.802 11.4207 114.847 10.0664 112.494C8.71194 110.14 7.9993 107.472 8 104.755V45.2261C8 39.7036 10.9459 34.6 15.7162 31.8387L67.1641 2.07421C69.513 0.715371 72.1775 0 74.8899 0C77.6021 0 80.2667 0.715371 82.6156 2.07421ZM106.657 46.9591L81.4943 32.4291C79.1498 31.0773 76.4923 30.3659 73.7875 30.3659C71.0827 30.3659 68.4252 31.0773 66.0807 32.4291L40.9175 46.9591C38.5671 48.3165 36.6147 50.2702 35.2568 52.6236C33.899 54.977 33.1835 57.6471 33.1823 60.3655V89.3683C33.1823 94.8908 36.1281 100.032 40.9175 102.775L66.0807 117.305C68.4252 118.656 71.0827 119.368 73.7875 119.368C76.4923 119.368 79.1498 118.656 81.4943 117.305L106.657 102.775C109.008 101.417 110.96 99.4634 112.318 97.1101C113.676 94.7567 114.392 92.0866 114.393 89.3683V60.3655C114.393 54.8429 111.428 49.7013 106.657 46.9591Z" fill="#3884FF"/>
<path d="M75.0897 94.1794C85.6326 94.1794 94.1794 85.6327 94.1794 75.0897C94.1794 64.5468 85.6326 56 75.0897 56C64.5467 56 56 64.5468 56 75.0897C56 85.6327 64.5467 94.1794 75.0897 94.1794Z" fill="black"/>
</svg>
