<svg xmlns="http://www.w3.org/2000/svg" width="2880" height="1040" fill="none" viewBox="0 0 2880 1040"><rect width="2880" height="1040" fill="#DFE7FB"/><path fill="url(#paint0_linear)" d="M2457.65 765.551C2455.12 765.551 2452.6 764.919 2450.28 763.655L2425.62 749.335C2424.15 748.493 2423.31 747.019 2423.31 745.334C2423.31 743.649 2424.15 742.175 2425.62 741.333L2450.28 727.013C2454.7 724.485 2460.39 724.485 2465.03 727.013L2489.68 741.333C2491.16 742.175 2492 743.649 2492 745.334C2492 747.019 2491.16 748.493 2489.68 749.335L2465.03 763.655C2462.71 764.708 2460.18 765.551 2457.65 765.551ZM2457.65 728.908C2455.76 728.908 2453.86 729.329 2452.17 730.382L2427.52 744.702C2427.31 744.913 2427.1 745.123 2427.1 745.334C2427.1 745.544 2427.1 745.755 2427.52 745.966L2452.17 760.286C2455.55 762.181 2459.55 762.181 2462.92 760.286L2487.57 745.966C2487.79 745.755 2488 745.544 2488 745.334C2488 745.123 2488 744.913 2487.57 744.702L2462.92 730.382C2461.24 729.54 2459.55 728.908 2457.65 728.908Z"/><path fill="url(#paint1_linear)" d="M2386.85 684.472C2382.64 684.472 2378.63 683.419 2374.84 681.313L2332.28 656.674C2330.17 655.41 2329.11 653.515 2329.11 650.988C2329.11 648.671 2330.38 646.565 2332.28 645.302L2374.84 620.663C2382.22 616.451 2391.28 616.451 2398.65 620.663L2441.22 645.302C2443.32 646.565 2444.38 648.461 2444.38 650.988C2444.38 653.304 2443.11 655.41 2441.22 656.674L2398.86 681.313C2395.07 683.419 2391.07 684.472 2386.85 684.472ZM2376.95 677.944C2383.06 681.524 2390.64 681.524 2396.97 677.944L2439.53 653.304C2440.58 652.673 2440.8 651.62 2440.8 651.198C2440.8 650.777 2440.58 649.724 2439.53 649.093L2396.76 624.453C2390.64 620.873 2383.06 620.873 2376.74 624.453L2334.17 649.093C2333.12 649.724 2332.91 650.777 2332.91 651.198C2332.91 651.62 2333.12 652.673 2334.17 653.304L2376.95 677.944Z"/><path fill="url(#paint2_linear)" d="M1625.74 723.22C1621.52 723.22 1617.52 722.167 1613.73 720.061L1571.16 695.422C1569.05 694.158 1568 692.263 1568 689.736C1568 687.419 1569.26 685.314 1571.16 684.05L1613.73 659.411C1621.1 655.199 1630.16 655.199 1637.54 659.411L1680.1 684.05C1682.21 685.314 1683.26 687.209 1683.26 689.736C1683.26 692.052 1682 694.158 1680.1 695.422L1637.54 719.85C1633.95 722.167 1629.74 723.22 1625.74 723.22ZM1625.74 660.464C1622.37 660.464 1618.78 661.306 1615.83 663.201L1573.27 687.63C1572.21 688.262 1572 689.315 1572 689.736C1572 690.157 1572.21 691.21 1573.27 691.842L1615.83 716.481C1621.94 720.061 1629.53 720.061 1635.85 716.481L1678.42 691.842C1679.47 691.21 1679.68 690.157 1679.68 689.736C1679.68 689.315 1679.47 688.262 1678.42 687.63L1635.85 662.991C1632.69 661.306 1629.11 660.464 1625.74 660.464Z"/><path fill="#020230" d="M2056.66 830.201L1752.38 654.567C1747.95 652.04 1748.59 647.618 1753.64 644.67L1948.98 532.003C1954.04 529.055 1961.83 528.634 1966.26 531.372L2270.54 707.005C2274.96 709.532 2274.33 713.954 2269.27 716.902L2073.93 829.569C2068.88 832.517 2061.08 832.728 2056.66 830.201Z" opacity=".6"/><path fill="url(#paint3_linear)" d="M2063.61 862C2060.03 862 2056.66 861.158 2054.13 859.684L1706.86 659.412C1704.12 657.727 1702.44 655.41 1702.44 652.673C1702.44 649.724 1704.55 646.566 1708.34 644.46L1945.19 505.891C1951.72 502.1 1961.2 501.679 1966.89 505.048L2313.94 705.531C2316.68 707.216 2318.37 709.532 2318.37 712.27C2318.37 715.218 2316.26 718.377 2312.47 720.483L2075.83 858.841C2072.25 860.947 2067.82 862 2063.61 862ZM1957.2 506.733C1953.61 506.733 1949.82 507.575 1946.87 509.26L1710.23 647.829C1707.71 649.303 1706.44 650.988 1706.44 652.673C1706.44 654.147 1707.71 655.2 1708.97 655.832L2056.23 856.314C2060.66 858.841 2068.88 858.42 2073.93 855.472L2310.78 716.903C2313.31 715.429 2314.58 713.744 2314.58 712.059C2314.58 710.585 2313.31 709.532 2312.05 708.901L1964.78 508.418C1962.68 507.365 1959.94 506.733 1957.2 506.733Z"/><path fill="url(#paint4_radial)" d="M2351.45 412.388L2048.23 237.598C2046.12 236.334 2044.01 236.123 2042.12 236.755L2036.43 238.65L2038.32 239.072C2037.48 239.914 2036.85 241.178 2036.43 242.441L1967.94 464.825C1966.26 470.301 1968.79 477.04 1973.42 479.777L2276.65 654.779C2277.28 655.2 2278.12 655.41 2278.96 655.621L2278.12 657.306L2283.39 655.41C2285.5 654.568 2287.39 652.673 2288.24 649.724L2356.72 427.34C2358.62 421.865 2356.3 415.126 2351.45 412.388Z"/><path fill="url(#paint5_radial)" d="M2265.9 663.204L1966.68 490.519C1962.25 487.992 1954.67 488.203 1949.4 491.151L1755.96 602.764L1749.43 600.237L1751.32 609.292C1751.54 610.556 1752.59 612.03 1754.28 612.873L2056.45 787.242C2060.87 789.769 2068.46 789.559 2073.72 786.61L2267.58 674.786C2269.9 673.312 2271.38 671.627 2271.8 669.943L2273.7 661.098L2265.9 663.204Z"/><path fill="url(#paint6_radial)" d="M2056.66 779.449L1752.38 603.816C1747.95 601.288 1748.59 596.866 1753.64 593.918L1948.98 481.252C1954.04 478.303 1961.83 477.882 1966.26 480.62L2270.54 656.042C2274.96 658.569 2274.33 662.992 2269.27 665.94L2073.93 778.606C2068.88 781.765 2061.08 781.976 2056.66 779.449Z"/><path fill="#fff" d="M2269.27 663.623L2073.93 776.289C2068.88 779.238 2061.08 779.659 2056.66 776.921L1752.38 601.499C1750.9 600.656 1750.06 599.603 1749.64 598.34C1749.01 600.446 1749.85 602.341 1752.38 603.815L2056.66 779.448C2061.08 781.975 2068.88 781.765 2073.93 778.816L2269.27 666.15C2272.64 664.255 2273.91 661.517 2273.27 659.411C2272.85 660.885 2271.59 662.36 2269.27 663.623Z"/><g opacity=".4"><path fill="#06033E" d="M1897.56 575.386L1887.24 569.49C1886.4 569.068 1886.61 568.226 1887.45 567.594L1899.67 560.645C1900.72 560.013 1901.99 560.013 1902.83 560.434L1913.16 566.331C1914 566.752 1913.79 567.594 1912.95 568.226L1900.72 575.176C1899.88 575.807 1898.41 575.807 1897.56 575.386Z" opacity=".4"/><path fill="#06033E" d="M1913.37 584.652L1903.04 578.755C1902.2 578.334 1902.41 577.492 1903.25 576.86L1915.47 569.91C1916.53 569.279 1917.79 569.279 1918.64 569.7L1928.96 575.596C1929.8 576.017 1929.59 576.86 1928.75 577.492L1916.53 584.441C1915.69 584.862 1914.21 585.073 1913.37 584.652Z" opacity=".4"/><path fill="#06033E" d="M1929.38 593.708L1919.06 587.812C1918.21 587.391 1918.42 586.548 1919.27 585.917L1931.49 578.967C1932.54 578.335 1933.81 578.335 1934.65 578.756L1944.98 584.653C1945.82 585.074 1945.61 585.917 1944.76 586.548L1932.54 593.498C1931.49 594.13 1930.01 594.13 1929.38 593.708Z" opacity=".4"/><path fill="#06033E" d="M1951.3 586.126L1940.97 580.23C1940.13 579.808 1940.34 578.966 1941.18 578.334L1951.3 572.438C1952.35 571.806 1953.61 571.806 1954.46 572.227L1964.78 578.124C1965.63 578.545 1965.41 579.387 1964.57 580.019L1954.46 585.916C1953.4 586.547 1952.14 586.547 1951.3 586.126Z" opacity=".4"/><path fill="#06033E" d="M1967.1 595.392L1956.78 589.495C1955.93 589.074 1956.14 588.232 1956.99 587.6L1967.1 581.703C1968.15 581.072 1969.42 581.072 1970.26 581.493L1980.59 587.389C1981.43 587.81 1981.22 588.653 1980.38 589.285L1970.26 595.181C1969.42 595.813 1967.94 595.813 1967.1 595.392Z" opacity=".4"/><path fill="#06033E" d="M1982.9 604.448L1972.58 598.552C1971.74 598.131 1971.95 597.288 1972.79 596.657L1982.9 590.76C1983.96 590.128 1985.22 590.128 1986.07 590.549L1996.39 596.446C1997.23 596.867 1997.02 597.71 1996.18 598.341L1986.07 604.238C1985.22 604.87 1983.75 604.87 1982.9 604.448Z" opacity=".4"/><path fill="#06033E" d="M1998.92 613.714L1988.59 607.817C1987.75 607.396 1987.96 606.554 1988.8 605.922L1998.92 600.026C1999.97 599.394 2001.24 599.394 2002.08 599.815L2012.41 605.712C2013.25 606.133 2013.04 606.975 2012.19 607.607L2002.08 613.503C2001.03 613.925 1999.76 614.135 1998.92 613.714Z" opacity=".4"/><path fill="#06033E" d="M2014.72 622.769L2004.4 616.872C2003.55 616.451 2003.77 615.609 2004.61 614.977L2014.72 609.08C2015.78 608.449 2017.04 608.449 2017.88 608.87L2028.21 614.766C2029.05 615.187 2028.84 616.03 2028 616.662L2017.88 622.558C2017.04 623.19 2015.57 623.19 2014.72 622.769Z" opacity=".4"/><path fill="#06033E" d="M2030.53 631.823L2020.2 625.927C2019.36 625.506 2019.57 624.663 2020.41 624.032L2030.53 618.135C2031.58 617.503 2032.84 617.503 2033.69 617.924L2044.01 623.821C2044.86 624.242 2044.64 625.085 2043.8 625.716L2033.69 631.613C2032.84 632.245 2031.37 632.455 2030.53 631.823Z" opacity=".4"/><path fill="#06033E" d="M2046.54 641.091L2036.22 635.194C2035.37 634.773 2035.58 633.931 2036.43 633.299L2046.54 627.403C2047.59 626.771 2048.86 626.771 2049.7 627.192L2060.03 633.089C2060.87 633.51 2060.66 634.352 2059.82 634.984L2049.7 640.88C2048.65 641.512 2047.17 641.512 2046.54 641.091Z" opacity=".4"/><path fill="#06033E" d="M2062.35 650.146L2052.02 644.249C2051.18 643.828 2051.39 642.986 2052.23 642.354L2062.35 636.457C2063.4 635.825 2064.66 635.825 2065.51 636.247L2075.83 642.143C2076.67 642.564 2076.46 643.407 2075.62 644.039L2065.51 649.935C2064.66 650.567 2063.19 650.777 2062.35 650.146Z" opacity=".4"/><path fill="#06033E" d="M2078.15 659.411L2067.82 653.515C2066.98 653.094 2067.19 652.251 2068.03 651.619L2078.15 645.723C2079.2 645.091 2080.47 645.091 2081.31 645.512L2091.64 651.409C2092.48 651.83 2092.27 652.672 2091.42 653.304L2081.31 659.201C2080.47 659.833 2078.99 659.833 2078.15 659.411Z" opacity=".4"/><path fill="#06033E" d="M2093.95 668.468L2083.63 662.571C2082.79 662.15 2083 661.308 2083.84 660.676L2093.95 654.78C2095.01 654.148 2096.27 654.148 2097.11 654.569L2107.44 660.465C2108.28 660.887 2108.07 661.729 2107.23 662.361L2097.11 668.257C2096.27 668.889 2094.8 669.1 2093.95 668.468Z" opacity=".4"/><path fill="#06033E" d="M1974.69 581.915L1964.36 576.019C1963.52 575.597 1963.73 574.755 1964.57 574.123L1974.69 568.227C1975.74 567.595 1977 567.595 1977.85 568.016L1988.17 573.913C1989.02 574.334 1988.8 575.176 1987.96 575.808L1977.85 581.705C1976.79 582.126 1975.53 582.336 1974.69 581.915Z" opacity=".4"/><path fill="#06033E" d="M1958.46 572.439L1948.14 566.542C1947.29 566.121 1947.5 565.279 1948.35 564.647L1958.46 558.75C1959.51 558.118 1960.78 558.118 1961.62 558.54L1971.95 564.436C1972.79 564.857 1972.58 565.7 1971.74 566.332L1961.62 572.228C1960.78 572.86 1959.3 573.07 1958.46 572.439Z" opacity=".4"/><path fill="#06033E" d="M1942.45 563.171L1920.32 550.325C1919.48 549.904 1919.69 549.062 1920.53 548.43L1930.65 542.533C1931.7 541.902 1932.96 541.902 1933.81 542.323L1955.93 555.169C1956.78 555.59 1956.56 556.432 1955.72 557.064L1945.61 562.961C1944.55 563.593 1943.29 563.593 1942.45 563.171Z" opacity=".4"/><path fill="#06033E" d="M1953.61 551.801L1935.7 541.482C1934.86 541.06 1935.07 540.218 1935.91 539.586L1946.03 533.69C1947.08 533.058 1948.35 533.058 1949.19 533.479L1967.1 543.798C1967.94 544.219 1967.73 545.062 1966.89 545.693L1956.78 551.59C1955.93 552.222 1954.46 552.432 1953.61 551.801Z" opacity=".4"/><path fill="#06033E" d="M1990.49 590.97L1980.17 585.073C1979.32 584.652 1979.53 583.81 1980.38 583.178L1990.49 577.281C1991.54 576.65 1992.81 576.65 1993.65 577.071L2003.98 582.967C2004.82 583.389 2004.61 584.231 2003.77 584.863L1993.65 590.759C1992.81 591.391 1991.33 591.391 1990.49 590.97Z" opacity=".4"/><path fill="#06033E" d="M2006.29 600.026L1995.97 594.13C1995.13 593.709 1995.34 592.866 1996.18 592.235L2006.29 586.338C2007.35 585.706 2008.61 585.706 2009.46 586.128L2019.78 592.024C2020.62 592.445 2020.41 593.288 2019.57 593.919L2009.46 599.816C2008.61 600.448 2007.14 600.658 2006.29 600.026Z" opacity=".4"/><path fill="#06033E" d="M2022.31 609.292L2011.98 603.396C2011.14 602.974 2011.35 602.132 2012.19 601.5L2022.31 595.604C2023.36 594.972 2024.63 594.972 2025.47 595.393L2035.79 601.29C2036.64 601.711 2036.43 602.553 2035.58 603.185L2025.47 609.082C2024.42 609.713 2022.94 609.713 2022.31 609.292Z" opacity=".4"/><path fill="#06033E" d="M2038.11 618.347L2027.79 612.45C2026.94 612.029 2027.16 611.187 2028 610.555L2038.11 604.658C2039.17 604.027 2040.43 604.027 2041.27 604.448L2051.6 610.344C2052.44 610.766 2052.23 611.608 2051.39 612.24L2041.27 618.136C2040.43 618.768 2038.96 618.979 2038.11 618.347Z" opacity=".4"/><path fill="#06033E" d="M2053.92 627.612L2043.59 621.716C2042.75 621.295 2042.96 620.452 2043.8 619.821L2053.92 613.924C2054.97 613.292 2056.23 613.292 2057.08 613.713L2067.4 619.61C2068.25 620.031 2068.03 620.874 2067.19 621.505L2057.08 627.402C2056.23 628.034 2054.76 628.034 2053.92 627.612Z" opacity=".4"/><path fill="#06033E" d="M2069.72 636.669L2059.4 630.773C2058.55 630.351 2058.76 629.509 2059.61 628.877L2069.72 622.981C2070.77 622.349 2072.04 622.349 2072.88 622.77L2083.21 628.667C2084.05 629.088 2083.84 629.93 2083 630.562L2072.88 636.459C2072.04 637.09 2070.56 637.301 2069.72 636.669Z" opacity=".4"/><path fill="#06033E" d="M2085.74 645.933L2075.41 640.036C2074.57 639.615 2074.78 638.773 2075.62 638.141L2085.74 632.244C2086.79 631.613 2088.05 631.613 2088.9 632.034L2099.22 637.93C2100.06 638.351 2099.85 639.194 2099.01 639.826L2088.9 645.722C2088.05 646.354 2086.58 646.354 2085.74 645.933Z" opacity=".4"/><path fill="#06033E" d="M2101.54 654.989L2091.21 649.093C2090.37 648.672 2090.58 647.829 2091.42 647.198L2101.54 641.301C2102.59 640.669 2103.86 640.669 2104.7 641.09L2115.02 646.987C2115.87 647.408 2115.66 648.251 2114.81 648.882L2104.7 654.779C2103.86 655.411 2102.38 655.621 2101.54 654.989Z" opacity=".4"/><path fill="#06033E" d="M2117.34 664.257L2107.02 658.36C2106.17 657.939 2106.39 657.097 2107.23 656.465L2117.34 650.569C2118.4 649.937 2119.66 649.937 2120.5 650.358L2130.83 656.255C2131.67 656.676 2131.46 657.518 2130.62 658.15L2120.5 664.046C2119.66 664.678 2118.19 664.678 2117.34 664.257Z" opacity=".4"/><path fill="#06033E" d="M2145.58 680.472L2123.24 667.626C2122.4 667.205 2122.61 666.363 2123.45 665.731L2133.57 659.834C2134.62 659.202 2135.89 659.202 2136.73 659.624L2159.06 672.47C2159.91 672.891 2159.7 673.733 2158.85 674.365L2148.74 680.262C2147.9 680.893 2146.42 680.893 2145.58 680.472Z" opacity=".4"/><path fill="#06033E" d="M2176.55 662.571L2157.59 651.62C2156.75 651.199 2156.96 650.357 2157.8 649.725L2167.92 643.828C2168.97 643.197 2170.23 643.197 2171.08 643.618L2190.04 654.568C2190.88 654.99 2190.67 655.832 2189.83 656.464L2179.72 662.36C2178.87 662.992 2177.4 663.203 2176.55 662.571Z" opacity=".4"/><path fill="#06033E" d="M2018.31 589.073L2007.98 583.177C2007.14 582.756 2007.35 581.913 2008.19 581.282L2018.31 575.385C2019.36 574.753 2020.62 574.753 2021.47 575.174L2031.79 581.071C2032.63 581.492 2032.42 582.334 2031.58 582.966L2021.47 588.863C2020.62 589.495 2019.15 589.705 2018.31 589.073Z" opacity=".4"/><path fill="#06033E" d="M2002.08 579.81L1991.75 573.913C1990.91 573.492 1991.12 572.65 1991.97 572.018L2002.08 566.121C2003.13 565.49 2004.4 565.49 2005.24 565.911L2015.57 571.807C2016.41 572.228 2016.2 573.071 2015.36 573.703L2005.24 579.599C2004.19 580.231 2002.92 580.231 2002.08 579.81Z" opacity=".4"/><path fill="#06033E" d="M1985.64 570.333L1975.32 564.437C1974.48 564.015 1974.69 563.173 1975.53 562.541L1985.64 556.645C1986.7 556.013 1987.96 556.013 1988.8 556.434L1999.13 562.331C1999.97 562.752 1999.76 563.594 1998.92 564.226L1988.8 570.123C1987.96 570.754 1986.49 570.965 1985.64 570.333Z" opacity=".4"/><path fill="#06033E" d="M1969.42 561.066L1959.09 555.169C1958.25 554.748 1958.46 553.906 1959.3 553.274L1969.42 547.377C1970.47 546.745 1971.74 546.745 1972.58 547.167L1982.9 553.063C1983.75 553.484 1983.54 554.327 1982.69 554.958L1972.58 560.855C1971.74 561.487 1970.26 561.487 1969.42 561.066Z" opacity=".4"/><path fill="#06033E" d="M2034.11 598.341L2023.78 592.444C2022.94 592.023 2023.15 591.181 2023.99 590.549L2034.11 584.653C2035.16 584.021 2036.43 584.021 2037.27 584.442L2047.59 590.339C2048.44 590.76 2048.23 591.602 2047.38 592.234L2037.27 598.13C2036.43 598.762 2034.95 598.762 2034.11 598.341Z" opacity=".4"/><path fill="#06033E" d="M2049.91 607.396L2039.59 601.499C2038.74 601.078 2038.96 600.236 2039.8 599.604L2049.91 593.707C2050.97 593.075 2052.23 593.075 2053.07 593.497L2063.4 599.393C2064.24 599.814 2064.03 600.657 2063.19 601.289L2053.07 607.185C2052.23 607.817 2050.76 608.027 2049.91 607.396Z" opacity=".4"/><path fill="#06033E" d="M2065.93 616.663L2055.6 610.767C2054.76 610.345 2054.97 609.503 2055.81 608.871L2065.93 602.975C2066.98 602.343 2068.25 602.343 2069.09 602.764L2079.41 608.661C2080.26 609.082 2080.05 609.924 2079.2 610.556L2069.09 616.453C2068.25 617.084 2066.77 617.084 2065.93 616.663Z" opacity=".4"/><path fill="#06033E" d="M2081.73 625.716L2071.41 619.819C2070.56 619.398 2070.77 618.556 2071.62 617.924L2081.73 612.028C2082.78 611.396 2084.05 611.396 2084.89 611.817L2095.22 617.714C2096.06 618.135 2095.85 618.977 2095.01 619.609L2084.89 625.505C2084.05 626.137 2082.57 626.348 2081.73 625.716Z" opacity=".4"/><path fill="#06033E" d="M2097.54 634.984L2087.21 629.087C2086.37 628.666 2086.58 627.823 2087.42 627.192L2097.54 621.295C2098.59 620.663 2099.85 620.663 2100.7 621.085L2111.02 626.981C2111.86 627.402 2111.65 628.245 2110.81 628.876L2100.7 634.773C2099.85 635.405 2098.38 635.405 2097.54 634.984Z" opacity=".4"/><path fill="#06033E" d="M2113.55 644.04L2103.22 638.144C2102.38 637.722 2102.59 636.88 2103.44 636.248L2113.55 630.352C2114.6 629.72 2115.87 629.72 2116.71 630.141L2127.04 636.038C2127.88 636.459 2127.67 637.301 2126.83 637.933L2116.71 643.83C2115.66 644.461 2114.39 644.672 2113.55 644.04Z" opacity=".4"/><path fill="#06033E" d="M2129.35 653.304L2119.03 647.407C2118.19 646.986 2118.4 646.144 2119.24 645.512L2129.35 639.615C2130.41 638.984 2131.67 638.984 2132.51 639.405L2142.84 645.301C2143.68 645.723 2143.47 646.565 2142.63 647.197L2132.51 653.093C2131.67 653.725 2130.2 653.725 2129.35 653.304Z" opacity=".4"/><path fill="#06033E" d="M2145.16 662.361L2134.83 656.464C2133.99 656.043 2134.2 655.2 2135.04 654.569L2145.16 648.672C2146.21 648.04 2147.48 648.04 2148.32 648.462L2158.64 654.358C2159.49 654.779 2159.28 655.622 2158.43 656.253L2148.32 662.15C2147.48 662.782 2146 662.992 2145.16 662.361Z" opacity=".4"/><path fill="#06033E" d="M2161.17 671.626L2150.85 665.73C2150 665.308 2150.21 664.466 2151.06 663.834L2161.17 657.938C2162.23 657.306 2163.49 657.306 2164.33 657.727L2174.66 663.624C2175.5 664.045 2175.29 664.887 2174.45 665.519L2164.33 671.416C2163.28 672.047 2161.8 672.047 2161.17 671.626Z" opacity=".4"/><path fill="#06033E" d="M2009.88 566.542L1999.55 560.646C1998.71 560.224 1998.92 559.382 1999.76 558.75L2009.88 552.854C2010.93 552.222 2012.19 552.222 2013.04 552.643L2023.36 558.54C2024.21 558.961 2023.99 559.803 2023.15 560.435L2013.04 566.332C2012.19 566.963 2010.72 566.963 2009.88 566.542Z" opacity=".4"/><path fill="#06033E" d="M1994.07 557.486L1983.75 551.589C1982.9 551.168 1983.12 550.325 1983.96 549.694L1994.07 543.797C1995.13 543.165 1996.39 543.165 1997.23 543.587L2007.56 549.483C2008.4 549.904 2008.19 550.747 2007.35 551.378L1997.23 557.275C1996.39 557.907 1994.92 557.907 1994.07 557.486Z" opacity=".4"/><path fill="#06033E" d="M1978.27 548.22L1967.94 542.323C1967.1 541.902 1967.31 541.06 1968.15 540.428L1978.27 534.531C1979.32 533.9 1980.59 533.9 1981.43 534.321L1991.75 540.217C1992.6 540.639 1992.39 541.481 1991.54 542.113L1981.43 548.009C1980.59 548.641 1979.11 548.852 1978.27 548.22Z" opacity=".4"/><path fill="#06033E" d="M1962.46 539.165L1952.14 533.269C1951.3 532.847 1951.51 532.005 1952.35 531.373L1962.46 525.477C1963.52 524.845 1964.78 524.845 1965.63 525.266L1975.95 531.163C1976.79 531.584 1976.58 532.426 1975.74 533.058L1965.63 538.955C1964.78 539.586 1963.31 539.586 1962.46 539.165Z" opacity=".4"/><path fill="#06033E" d="M1978.69 529.898L1968.36 524.002C1967.52 523.581 1967.73 522.738 1968.58 522.106L1971.95 520.211C1973 519.579 1974.27 519.579 1975.11 520.001L1985.43 525.897C1986.28 526.318 1986.07 527.161 1985.22 527.792L1981.85 529.688C1981.01 530.32 1979.53 530.32 1978.69 529.898Z" opacity=".4"/><path fill="#06033E" d="M1999.34 541.691L1989.02 535.795C1988.17 535.374 1988.38 534.531 1989.23 533.899L1992.6 532.004C1993.65 531.372 1994.92 531.372 1995.76 531.794L2006.08 537.69C2006.93 538.111 2006.72 538.954 2005.87 539.585L2002.5 541.481C2001.66 542.112 2000.18 542.112 1999.34 541.691Z" opacity=".4"/><path fill="#06033E" d="M2015.14 550.748L2004.82 544.851C2003.98 544.43 2004.19 543.588 2005.03 542.956L2008.4 541.061C2009.45 540.429 2010.72 540.429 2011.56 540.85L2021.89 546.747C2022.73 547.168 2022.52 548.01 2021.68 548.642L2018.31 550.537C2017.46 551.169 2015.99 551.169 2015.14 550.748Z" opacity=".4"/><path fill="#06033E" d="M2030.74 559.801L2020.41 553.904C2019.57 553.483 2019.78 552.641 2020.62 552.009L2023.99 550.113C2025.05 549.482 2026.31 549.482 2027.16 549.903L2037.48 555.799C2038.32 556.221 2038.11 557.063 2037.27 557.695L2033.9 559.59C2033.06 560.222 2031.58 560.432 2030.74 559.801Z" opacity=".4"/><path fill="#06033E" d="M2046.54 568.857L2036.22 562.961C2035.37 562.54 2035.58 561.697 2036.43 561.065L2039.8 559.17C2040.85 558.538 2042.12 558.538 2042.96 558.96L2053.28 564.856C2054.13 565.277 2053.92 566.12 2053.07 566.751L2049.7 568.647C2048.86 569.279 2047.38 569.489 2046.54 568.857Z" opacity=".4"/><path fill="#06033E" d="M2134.41 619.609L2124.09 613.713C2123.24 613.292 2123.45 612.449 2124.3 611.817L2127.67 609.922C2128.72 609.29 2129.99 609.29 2130.83 609.712L2141.15 615.608C2142 616.029 2141.79 616.872 2140.94 617.503L2137.57 619.399C2136.52 620.03 2135.25 620.03 2134.41 619.609Z" opacity=".4"/><path fill="#06033E" d="M2150 628.666L2139.68 622.769C2138.84 622.348 2139.05 621.506 2139.89 620.874L2143.26 618.979C2144.31 618.347 2145.58 618.347 2146.42 618.768L2156.75 624.665C2157.59 625.086 2157.38 625.928 2156.54 626.56L2153.16 628.455C2152.32 629.087 2150.85 629.087 2150 628.666Z" opacity=".4"/><path fill="#06033E" d="M2165.81 637.721L2155.48 631.824C2154.64 631.403 2154.85 630.561 2155.69 629.929L2159.06 628.033C2160.12 627.402 2161.38 627.402 2162.23 627.823L2172.55 633.719C2173.39 634.141 2173.18 634.983 2172.34 635.615L2168.97 637.51C2168.13 638.142 2166.65 638.142 2165.81 637.721Z" opacity=".4"/><path fill="#06033E" d="M2181.61 646.775L2171.29 640.879C2170.44 640.458 2170.65 639.615 2171.5 638.983L2174.87 637.088C2175.92 636.456 2177.19 636.456 2178.03 636.878L2188.35 642.774C2189.2 643.195 2188.99 644.038 2188.14 644.669L2184.77 646.565C2183.72 647.197 2182.24 647.197 2181.61 646.775Z" opacity=".4"/><path fill="#06033E" d="M2025.68 575.597L2015.36 569.7C2014.51 569.279 2014.72 568.437 2015.57 567.805L2025.68 561.908C2026.73 561.277 2028 561.277 2028.84 561.698L2039.17 567.594C2040.01 568.016 2039.8 568.858 2038.96 569.49L2028.84 575.386C2028 576.018 2026.52 576.229 2025.68 575.597Z" opacity=".4"/><path fill="#06033E" d="M2041.69 584.862L2031.37 578.966C2030.53 578.545 2030.74 577.702 2031.58 577.071L2041.69 571.174C2042.75 570.542 2044.01 570.542 2044.86 570.963L2055.18 576.86C2056.02 577.281 2055.81 578.124 2054.97 578.755L2044.86 584.652C2044.01 585.284 2042.54 585.284 2041.69 584.862Z" opacity=".4"/><path fill="#06033E" d="M2057.5 593.919L2047.17 588.023C2046.33 587.601 2046.54 586.759 2047.38 586.127L2057.5 580.231C2058.55 579.599 2059.82 579.599 2060.66 580.02L2070.98 585.917C2071.83 586.338 2071.62 587.18 2070.77 587.812L2060.66 593.709C2059.82 594.34 2058.34 594.551 2057.5 593.919Z" opacity=".4"/><path fill="#06033E" d="M2073.3 603.185L2062.98 597.288C2062.13 596.867 2062.35 596.025 2063.19 595.393L2073.3 589.496C2074.36 588.865 2075.62 588.865 2076.46 589.286L2086.79 595.182C2087.63 595.603 2087.42 596.446 2086.58 597.078L2076.46 602.974C2075.62 603.606 2074.15 603.606 2073.3 603.185Z" opacity=".4"/><path fill="#06033E" d="M2089.32 612.239L2078.99 606.343C2078.15 605.922 2078.36 605.079 2079.2 604.448L2089.32 598.551C2090.37 597.919 2091.64 597.919 2092.48 598.34L2102.8 604.237C2103.65 604.658 2103.44 605.501 2102.59 606.132L2092.48 612.029C2091.42 612.661 2090.16 612.871 2089.32 612.239Z" opacity=".4"/><path fill="#06033E" d="M2105.12 621.505L2094.8 615.609C2093.95 615.187 2094.16 614.345 2095.01 613.713L2105.12 607.817C2106.17 607.185 2107.44 607.185 2108.28 607.606L2118.61 613.503C2119.45 613.924 2119.24 614.766 2118.4 615.398L2108.28 621.295C2107.44 621.926 2105.96 621.926 2105.12 621.505Z" opacity=".4"/><path fill="#06033E" d="M2120.92 630.562L2110.6 624.665C2109.76 624.244 2109.97 623.402 2110.81 622.77L2120.92 616.873C2121.98 616.241 2123.24 616.242 2124.09 616.663L2134.41 622.559C2135.25 622.98 2135.04 623.823 2134.2 624.455L2124.09 630.351C2123.24 630.983 2121.77 631.193 2120.92 630.562Z" opacity=".4"/><path fill="#06033E" d="M2136.94 639.827L2126.61 633.931C2125.77 633.51 2125.98 632.667 2126.83 632.035L2136.94 626.139C2137.99 625.507 2139.26 625.507 2140.1 625.928L2150.43 631.825C2151.27 632.246 2151.06 633.088 2150.21 633.72L2140.1 639.617C2139.05 640.248 2137.78 640.248 2136.94 639.827Z" opacity=".4"/><path fill="#06033E" d="M2152.74 648.882L2142.42 642.985C2141.58 642.564 2141.79 641.722 2142.63 641.09L2152.74 635.194C2153.8 634.562 2155.06 634.562 2155.9 634.983L2166.23 640.88C2167.07 641.301 2166.86 642.143 2166.02 642.775L2155.9 648.671C2155.06 649.303 2153.59 649.303 2152.74 648.882Z" opacity=".4"/><path fill="#06033E" d="M1935.07 576.861L1904.73 559.382C1903.89 558.961 1904.1 558.118 1904.94 557.487L1915.05 551.59C1916.11 550.958 1917.37 550.958 1918.21 551.379L1948.56 568.859C1949.4 569.28 1949.19 570.122 1948.35 570.754L1938.23 576.65C1937.39 577.282 1935.91 577.282 1935.07 576.861Z" opacity=".4"/><path fill="#06033E" d="M2129.99 689.316L2099.64 671.837C2098.8 671.416 2099.01 670.573 2099.85 669.942L2109.97 664.045C2111.02 663.413 2112.29 663.413 2113.13 663.835L2143.47 681.314C2144.31 681.735 2144.1 682.577 2143.26 683.209L2133.15 689.105C2132.3 689.737 2130.83 689.737 2129.99 689.316Z" opacity=".4"/><path fill="#06033E" d="M2066.56 672.89L2056.23 666.993C2055.39 666.572 2055.6 665.73 2056.45 665.098L2068.67 658.149C2069.72 657.517 2070.98 657.517 2071.83 657.938L2082.15 663.835C2083 664.256 2082.78 665.098 2081.94 665.73L2069.72 672.679C2068.88 673.311 2067.4 673.311 2066.56 672.89Z" opacity=".4"/><path fill="#06033E" d="M1951.3 606.343L1934.86 596.867C1934.02 596.445 1934.23 595.603 1935.07 594.971L1947.29 588.022C1948.35 587.39 1949.61 587.39 1950.45 587.811L1966.89 597.288C1967.73 597.709 1967.52 598.551 1966.68 599.183L1954.46 606.133C1953.61 606.764 1952.14 606.975 1951.3 606.343Z" opacity=".4"/><path fill="#06033E" d="M2051.18 664.044L2034.74 654.568C2033.9 654.147 2034.11 653.304 2034.95 652.672L2047.17 645.723C2048.23 645.091 2049.49 645.091 2050.33 645.512L2066.77 654.989C2067.61 655.41 2067.4 656.252 2066.56 656.884L2054.34 663.834C2053.5 664.465 2052.02 664.465 2051.18 664.044Z" opacity=".4"/><path fill="#06033E" d="M1974.27 619.611L1957.83 610.134C1956.99 609.713 1957.2 608.871 1958.04 608.239L1970.26 601.289C1971.31 600.658 1972.58 600.658 1973.42 601.079L1989.86 610.555C1990.7 610.976 1990.49 611.819 1989.65 612.451L1977.43 619.4C1976.37 620.032 1975.11 620.032 1974.27 619.611Z" opacity=".4"/><path fill="#06033E" d="M1973.42 601.289L2044.86 642.565C2045.7 642.986 2045.7 643.828 2044.86 644.46L2032.42 651.62C2031.58 652.041 2030.11 652.041 2029.26 651.62L1957.83 610.134L1973.42 601.289Z" opacity=".4"/><path fill="#06033E" d="M2110.81 689.526L2122.19 696.054C2122.82 696.475 2122.82 697.107 2121.98 697.528L2116.92 700.477C2116.08 700.898 2115.02 700.898 2114.18 700.687L2102.8 694.159C2102.17 693.738 2102.17 693.106 2103.01 692.685L2108.07 689.737C2109.12 689.105 2110.18 689.105 2110.81 689.526Z" opacity=".4"/><path fill="#06033E" d="M2094.8 680.26L2106.17 686.789C2106.81 687.21 2106.81 687.842 2105.96 688.263L2100.91 691.211C2100.06 691.632 2099.01 691.632 2098.17 691.422L2086.79 684.893C2086.16 684.472 2086.16 683.84 2087 683.419L2092.06 680.471C2093.11 679.839 2094.16 679.839 2094.8 680.26Z" opacity=".4"/><path fill="#06033E" d="M2078.99 671.206L2090.37 677.734C2091 678.155 2091 678.787 2090.16 679.208L2085.1 682.156C2084.26 682.578 2083.21 682.578 2082.36 682.367L2070.98 675.839C2070.35 675.417 2070.35 674.786 2071.2 674.365L2076.25 671.416C2077.1 670.784 2078.36 670.784 2078.99 671.206Z" opacity=".4"/><path fill="#06033E" d="M2103.65 675.206L2115.02 681.734C2115.66 682.155 2115.66 682.787 2114.81 683.208L2109.76 686.156C2108.91 686.578 2107.86 686.578 2107.02 686.367L2095.64 679.839C2095.01 679.417 2095.01 678.786 2095.85 678.365L2100.91 675.416C2101.75 674.784 2103.01 674.784 2103.65 675.206Z" opacity=".4"/></g><g opacity=".4"><path fill="#06033E" d="M1897.56 575.386L1887.24 569.49C1886.4 569.068 1886.61 568.226 1887.45 567.594L1899.67 560.645C1900.72 560.013 1901.99 560.013 1902.83 560.434L1913.16 566.331C1914 566.752 1913.79 567.594 1912.95 568.226L1900.72 575.176C1899.88 575.807 1898.41 575.807 1897.56 575.386Z" opacity=".4"/><path fill="#06033E" d="M1913.37 584.652L1903.04 578.755C1902.2 578.334 1902.41 577.492 1903.25 576.86L1915.47 569.91C1916.53 569.279 1917.79 569.279 1918.64 569.7L1928.96 575.596C1929.8 576.017 1929.59 576.86 1928.75 577.492L1916.53 584.441C1915.69 584.862 1914.21 585.073 1913.37 584.652Z" opacity=".4"/><path fill="#06033E" d="M1929.38 593.708L1919.06 587.812C1918.21 587.391 1918.42 586.548 1919.27 585.917L1931.49 578.967C1932.54 578.335 1933.81 578.335 1934.65 578.756L1944.98 584.653C1945.82 585.074 1945.61 585.917 1944.76 586.548L1932.54 593.498C1931.49 594.13 1930.01 594.13 1929.38 593.708Z" opacity=".4"/><path fill="#06033E" d="M1951.3 586.126L1940.97 580.23C1940.13 579.808 1940.34 578.966 1941.18 578.334L1951.3 572.438C1952.35 571.806 1953.61 571.806 1954.46 572.227L1964.78 578.124C1965.63 578.545 1965.41 579.387 1964.57 580.019L1954.46 585.916C1953.4 586.547 1952.14 586.547 1951.3 586.126Z" opacity=".4"/><path fill="#06033E" d="M1967.1 595.392L1956.78 589.495C1955.93 589.074 1956.14 588.232 1956.99 587.6L1967.1 581.703C1968.15 581.072 1969.42 581.072 1970.26 581.493L1980.59 587.389C1981.43 587.81 1981.22 588.653 1980.38 589.285L1970.26 595.181C1969.42 595.813 1967.94 595.813 1967.1 595.392Z" opacity=".4"/><path fill="#06033E" d="M1982.9 604.448L1972.58 598.552C1971.74 598.131 1971.95 597.288 1972.79 596.657L1982.9 590.76C1983.96 590.128 1985.22 590.128 1986.07 590.549L1996.39 596.446C1997.23 596.867 1997.02 597.71 1996.18 598.341L1986.07 604.238C1985.22 604.87 1983.75 604.87 1982.9 604.448Z" opacity=".4"/><path fill="#06033E" d="M1998.92 613.714L1988.59 607.817C1987.75 607.396 1987.96 606.554 1988.8 605.922L1998.92 600.026C1999.97 599.394 2001.24 599.394 2002.08 599.815L2012.41 605.712C2013.25 606.133 2013.04 606.975 2012.19 607.607L2002.08 613.503C2001.03 613.925 1999.76 614.135 1998.92 613.714Z" opacity=".4"/><path fill="#06033E" d="M2014.72 622.769L2004.4 616.872C2003.55 616.451 2003.77 615.609 2004.61 614.977L2014.72 609.08C2015.78 608.449 2017.04 608.449 2017.88 608.87L2028.21 614.766C2029.05 615.187 2028.84 616.03 2028 616.662L2017.88 622.558C2017.04 623.19 2015.57 623.19 2014.72 622.769Z" opacity=".4"/><path fill="#06033E" d="M2030.53 631.823L2020.2 625.927C2019.36 625.506 2019.57 624.663 2020.41 624.032L2030.53 618.135C2031.58 617.503 2032.84 617.503 2033.69 617.924L2044.01 623.821C2044.86 624.242 2044.64 625.085 2043.8 625.716L2033.69 631.613C2032.84 632.245 2031.37 632.455 2030.53 631.823Z" opacity=".4"/><path fill="#06033E" d="M2046.54 641.091L2036.22 635.194C2035.37 634.773 2035.58 633.931 2036.43 633.299L2046.54 627.403C2047.59 626.771 2048.86 626.771 2049.7 627.192L2060.03 633.089C2060.87 633.51 2060.66 634.352 2059.82 634.984L2049.7 640.88C2048.65 641.512 2047.17 641.512 2046.54 641.091Z" opacity=".4"/><path fill="#06033E" d="M2062.35 650.146L2052.02 644.249C2051.18 643.828 2051.39 642.986 2052.23 642.354L2062.35 636.457C2063.4 635.825 2064.66 635.825 2065.51 636.247L2075.83 642.143C2076.67 642.564 2076.46 643.407 2075.62 644.039L2065.51 649.935C2064.66 650.567 2063.19 650.777 2062.35 650.146Z" opacity=".4"/><path fill="#06033E" d="M2078.15 659.411L2067.82 653.515C2066.98 653.094 2067.19 652.251 2068.03 651.619L2078.15 645.723C2079.2 645.091 2080.47 645.091 2081.31 645.512L2091.64 651.409C2092.48 651.83 2092.27 652.672 2091.42 653.304L2081.31 659.201C2080.47 659.833 2078.99 659.833 2078.15 659.411Z" opacity=".4"/><path fill="#06033E" d="M2093.95 668.468L2083.63 662.571C2082.79 662.15 2083 661.308 2083.84 660.676L2093.95 654.78C2095.01 654.148 2096.27 654.148 2097.11 654.569L2107.44 660.465C2108.28 660.887 2108.07 661.729 2107.23 662.361L2097.11 668.257C2096.27 668.889 2094.8 669.1 2093.95 668.468Z" opacity=".4"/><path fill="#06033E" d="M1974.69 581.915L1964.36 576.019C1963.52 575.597 1963.73 574.755 1964.57 574.123L1974.69 568.227C1975.74 567.595 1977 567.595 1977.85 568.016L1988.17 573.913C1989.02 574.334 1988.8 575.176 1987.96 575.808L1977.85 581.705C1976.79 582.126 1975.53 582.336 1974.69 581.915Z" opacity=".4"/><path fill="#06033E" d="M1958.46 572.439L1948.14 566.542C1947.29 566.121 1947.5 565.279 1948.35 564.647L1958.46 558.75C1959.51 558.118 1960.78 558.118 1961.62 558.54L1971.95 564.436C1972.79 564.857 1972.58 565.7 1971.74 566.332L1961.62 572.228C1960.78 572.86 1959.3 573.07 1958.46 572.439Z" opacity=".4"/><path fill="#06033E" d="M1942.45 563.171L1920.32 550.325C1919.48 549.904 1919.69 549.062 1920.53 548.43L1930.65 542.533C1931.7 541.902 1932.96 541.902 1933.81 542.323L1955.93 555.169C1956.78 555.59 1956.56 556.432 1955.72 557.064L1945.61 562.961C1944.55 563.593 1943.29 563.593 1942.45 563.171Z" opacity=".4"/><path fill="#06033E" d="M1953.61 551.801L1935.7 541.482C1934.86 541.06 1935.07 540.218 1935.91 539.586L1946.03 533.69C1947.08 533.058 1948.35 533.058 1949.19 533.479L1967.1 543.798C1967.94 544.219 1967.73 545.062 1966.89 545.693L1956.78 551.59C1955.93 552.222 1954.46 552.432 1953.61 551.801Z" opacity=".4"/><path fill="#06033E" d="M1990.49 590.97L1980.17 585.073C1979.32 584.652 1979.53 583.81 1980.38 583.178L1990.49 577.281C1991.54 576.65 1992.81 576.65 1993.65 577.071L2003.98 582.967C2004.82 583.389 2004.61 584.231 2003.77 584.863L1993.65 590.759C1992.81 591.391 1991.33 591.391 1990.49 590.97Z" opacity=".4"/><path fill="#06033E" d="M2006.29 600.026L1995.97 594.13C1995.13 593.709 1995.34 592.866 1996.18 592.235L2006.29 586.338C2007.35 585.706 2008.61 585.706 2009.46 586.128L2019.78 592.024C2020.62 592.445 2020.41 593.288 2019.57 593.919L2009.46 599.816C2008.61 600.448 2007.14 600.658 2006.29 600.026Z" opacity=".4"/><path fill="#06033E" d="M2022.31 609.292L2011.98 603.396C2011.14 602.974 2011.35 602.132 2012.19 601.5L2022.31 595.604C2023.36 594.972 2024.63 594.972 2025.47 595.393L2035.79 601.29C2036.64 601.711 2036.43 602.553 2035.58 603.185L2025.47 609.082C2024.42 609.713 2022.94 609.713 2022.31 609.292Z" opacity=".4"/><path fill="#06033E" d="M2038.11 618.347L2027.79 612.45C2026.94 612.029 2027.16 611.187 2028 610.555L2038.11 604.658C2039.17 604.027 2040.43 604.027 2041.27 604.448L2051.6 610.344C2052.44 610.766 2052.23 611.608 2051.39 612.24L2041.27 618.136C2040.43 618.768 2038.96 618.979 2038.11 618.347Z" opacity=".4"/><path fill="#06033E" d="M2053.92 627.612L2043.59 621.716C2042.75 621.295 2042.96 620.452 2043.8 619.821L2053.92 613.924C2054.97 613.292 2056.23 613.292 2057.08 613.713L2067.4 619.61C2068.25 620.031 2068.03 620.874 2067.19 621.505L2057.08 627.402C2056.23 628.034 2054.76 628.034 2053.92 627.612Z" opacity=".4"/><path fill="#06033E" d="M2069.72 636.669L2059.4 630.773C2058.55 630.351 2058.76 629.509 2059.61 628.877L2069.72 622.981C2070.77 622.349 2072.04 622.349 2072.88 622.77L2083.21 628.667C2084.05 629.088 2083.84 629.93 2083 630.562L2072.88 636.459C2072.04 637.09 2070.56 637.301 2069.72 636.669Z" opacity=".4"/><path fill="#06033E" d="M2085.74 645.933L2075.41 640.036C2074.57 639.615 2074.78 638.773 2075.62 638.141L2085.74 632.244C2086.79 631.613 2088.05 631.613 2088.9 632.034L2099.22 637.93C2100.06 638.351 2099.85 639.194 2099.01 639.826L2088.9 645.722C2088.05 646.354 2086.58 646.354 2085.74 645.933Z" opacity=".4"/><path fill="#06033E" d="M2101.54 654.989L2091.21 649.093C2090.37 648.672 2090.58 647.829 2091.42 647.198L2101.54 641.301C2102.59 640.669 2103.86 640.669 2104.7 641.09L2115.02 646.987C2115.87 647.408 2115.66 648.251 2114.81 648.882L2104.7 654.779C2103.86 655.411 2102.38 655.621 2101.54 654.989Z" opacity=".4"/><path fill="#06033E" d="M2117.34 664.257L2107.02 658.36C2106.17 657.939 2106.39 657.097 2107.23 656.465L2117.34 650.569C2118.4 649.937 2119.66 649.937 2120.5 650.358L2130.83 656.255C2131.67 656.676 2131.46 657.518 2130.62 658.15L2120.5 664.046C2119.66 664.678 2118.19 664.678 2117.34 664.257Z" opacity=".4"/><path fill="#06033E" d="M2145.58 680.472L2123.24 667.626C2122.4 667.205 2122.61 666.363 2123.45 665.731L2133.57 659.834C2134.62 659.202 2135.89 659.202 2136.73 659.624L2159.06 672.47C2159.91 672.891 2159.7 673.733 2158.85 674.365L2148.74 680.262C2147.9 680.893 2146.42 680.893 2145.58 680.472Z" opacity=".4"/><path fill="#06033E" d="M2176.55 662.571L2157.59 651.62C2156.75 651.199 2156.96 650.357 2157.8 649.725L2167.92 643.828C2168.97 643.197 2170.23 643.197 2171.08 643.618L2190.04 654.568C2190.88 654.99 2190.67 655.832 2189.83 656.464L2179.72 662.36C2178.87 662.992 2177.4 663.203 2176.55 662.571Z" opacity=".4"/><path fill="#06033E" d="M2018.31 589.073L2007.98 583.177C2007.14 582.756 2007.35 581.913 2008.19 581.282L2018.31 575.385C2019.36 574.753 2020.62 574.753 2021.47 575.174L2031.79 581.071C2032.63 581.492 2032.42 582.334 2031.58 582.966L2021.47 588.863C2020.62 589.495 2019.15 589.705 2018.31 589.073Z" opacity=".4"/><path fill="#06033E" d="M2002.08 579.81L1991.75 573.913C1990.91 573.492 1991.12 572.65 1991.97 572.018L2002.08 566.121C2003.13 565.49 2004.4 565.49 2005.24 565.911L2015.57 571.807C2016.41 572.228 2016.2 573.071 2015.36 573.703L2005.24 579.599C2004.19 580.231 2002.92 580.231 2002.08 579.81Z" opacity=".4"/><path fill="#06033E" d="M1985.64 570.333L1975.32 564.437C1974.48 564.015 1974.69 563.173 1975.53 562.541L1985.64 556.645C1986.7 556.013 1987.96 556.013 1988.8 556.434L1999.13 562.331C1999.97 562.752 1999.76 563.594 1998.92 564.226L1988.8 570.123C1987.96 570.754 1986.49 570.965 1985.64 570.333Z" opacity=".4"/><path fill="#06033E" d="M1969.42 561.066L1959.09 555.169C1958.25 554.748 1958.46 553.906 1959.3 553.274L1969.42 547.377C1970.47 546.745 1971.74 546.745 1972.58 547.167L1982.9 553.063C1983.75 553.484 1983.54 554.327 1982.69 554.958L1972.58 560.855C1971.74 561.487 1970.26 561.487 1969.42 561.066Z" opacity=".4"/><path fill="#06033E" d="M2034.11 598.341L2023.78 592.444C2022.94 592.023 2023.15 591.181 2023.99 590.549L2034.11 584.653C2035.16 584.021 2036.43 584.021 2037.27 584.442L2047.59 590.339C2048.44 590.76 2048.23 591.602 2047.38 592.234L2037.27 598.13C2036.43 598.762 2034.95 598.762 2034.11 598.341Z" opacity=".4"/><path fill="#06033E" d="M2049.91 607.396L2039.59 601.499C2038.74 601.078 2038.96 600.236 2039.8 599.604L2049.91 593.707C2050.97 593.075 2052.23 593.075 2053.07 593.497L2063.4 599.393C2064.24 599.814 2064.03 600.657 2063.19 601.289L2053.07 607.185C2052.23 607.817 2050.76 608.027 2049.91 607.396Z" opacity=".4"/><path fill="#06033E" d="M2065.93 616.663L2055.6 610.767C2054.76 610.345 2054.97 609.503 2055.81 608.871L2065.93 602.975C2066.98 602.343 2068.25 602.343 2069.09 602.764L2079.41 608.661C2080.26 609.082 2080.05 609.924 2079.2 610.556L2069.09 616.453C2068.25 617.084 2066.77 617.084 2065.93 616.663Z" opacity=".4"/><path fill="#06033E" d="M2081.73 625.716L2071.41 619.819C2070.56 619.398 2070.77 618.556 2071.62 617.924L2081.73 612.028C2082.78 611.396 2084.05 611.396 2084.89 611.817L2095.22 617.714C2096.06 618.135 2095.85 618.977 2095.01 619.609L2084.89 625.505C2084.05 626.137 2082.57 626.348 2081.73 625.716Z" opacity=".4"/><path fill="#06033E" d="M2097.54 634.984L2087.21 629.087C2086.37 628.666 2086.58 627.823 2087.42 627.192L2097.54 621.295C2098.59 620.663 2099.85 620.663 2100.7 621.085L2111.02 626.981C2111.86 627.402 2111.65 628.245 2110.81 628.876L2100.7 634.773C2099.85 635.405 2098.38 635.405 2097.54 634.984Z" opacity=".4"/><path fill="#06033E" d="M2113.55 644.04L2103.22 638.144C2102.38 637.722 2102.59 636.88 2103.44 636.248L2113.55 630.352C2114.6 629.72 2115.87 629.72 2116.71 630.141L2127.04 636.038C2127.88 636.459 2127.67 637.301 2126.83 637.933L2116.71 643.83C2115.66 644.461 2114.39 644.672 2113.55 644.04Z" opacity=".4"/><path fill="#06033E" d="M2129.35 653.304L2119.03 647.407C2118.19 646.986 2118.4 646.144 2119.24 645.512L2129.35 639.615C2130.41 638.984 2131.67 638.984 2132.51 639.405L2142.84 645.301C2143.68 645.723 2143.47 646.565 2142.63 647.197L2132.51 653.093C2131.67 653.725 2130.2 653.725 2129.35 653.304Z" opacity=".4"/><path fill="#06033E" d="M2145.16 662.361L2134.83 656.464C2133.99 656.043 2134.2 655.2 2135.04 654.569L2145.16 648.672C2146.21 648.04 2147.48 648.04 2148.32 648.462L2158.64 654.358C2159.49 654.779 2159.28 655.622 2158.43 656.253L2148.32 662.15C2147.48 662.782 2146 662.992 2145.16 662.361Z" opacity=".4"/><path fill="#06033E" d="M2161.17 671.626L2150.85 665.73C2150 665.308 2150.21 664.466 2151.06 663.834L2161.17 657.938C2162.23 657.306 2163.49 657.306 2164.33 657.727L2174.66 663.624C2175.5 664.045 2175.29 664.887 2174.45 665.519L2164.33 671.416C2163.28 672.047 2161.8 672.047 2161.17 671.626Z" opacity=".4"/><path fill="#06033E" d="M2009.88 566.542L1999.55 560.646C1998.71 560.224 1998.92 559.382 1999.76 558.75L2009.88 552.854C2010.93 552.222 2012.19 552.222 2013.04 552.643L2023.36 558.54C2024.21 558.961 2023.99 559.803 2023.15 560.435L2013.04 566.332C2012.19 566.963 2010.72 566.963 2009.88 566.542Z" opacity=".4"/><path fill="#06033E" d="M1994.07 557.486L1983.75 551.589C1982.9 551.168 1983.12 550.325 1983.96 549.694L1994.07 543.797C1995.13 543.165 1996.39 543.165 1997.23 543.587L2007.56 549.483C2008.4 549.904 2008.19 550.747 2007.35 551.378L1997.23 557.275C1996.39 557.907 1994.92 557.907 1994.07 557.486Z" opacity=".4"/><path fill="#06033E" d="M1978.27 548.22L1967.94 542.323C1967.1 541.902 1967.31 541.06 1968.15 540.428L1978.27 534.531C1979.32 533.9 1980.59 533.9 1981.43 534.321L1991.75 540.217C1992.6 540.639 1992.39 541.481 1991.54 542.113L1981.43 548.009C1980.59 548.641 1979.11 548.852 1978.27 548.22Z" opacity=".4"/><path fill="#06033E" d="M1962.46 539.165L1952.14 533.269C1951.3 532.847 1951.51 532.005 1952.35 531.373L1962.46 525.477C1963.52 524.845 1964.78 524.845 1965.63 525.266L1975.95 531.163C1976.79 531.584 1976.58 532.426 1975.74 533.058L1965.63 538.955C1964.78 539.586 1963.31 539.586 1962.46 539.165Z" opacity=".4"/><path fill="#06033E" d="M1978.69 529.898L1968.36 524.002C1967.52 523.581 1967.73 522.738 1968.58 522.106L1971.95 520.211C1973 519.579 1974.27 519.579 1975.11 520.001L1985.43 525.897C1986.28 526.318 1986.07 527.161 1985.22 527.792L1981.85 529.688C1981.01 530.32 1979.53 530.32 1978.69 529.898Z" opacity=".4"/><path fill="#06033E" d="M1999.34 541.691L1989.02 535.795C1988.17 535.374 1988.38 534.531 1989.23 533.899L1992.6 532.004C1993.65 531.372 1994.92 531.372 1995.76 531.794L2006.08 537.69C2006.93 538.111 2006.72 538.954 2005.87 539.585L2002.5 541.481C2001.66 542.112 2000.18 542.112 1999.34 541.691Z" opacity=".4"/><path fill="#06033E" d="M2015.14 550.748L2004.82 544.851C2003.98 544.43 2004.19 543.588 2005.03 542.956L2008.4 541.061C2009.45 540.429 2010.72 540.429 2011.56 540.85L2021.89 546.747C2022.73 547.168 2022.52 548.01 2021.68 548.642L2018.31 550.537C2017.46 551.169 2015.99 551.169 2015.14 550.748Z" opacity=".4"/><path fill="#06033E" d="M2030.74 559.801L2020.41 553.904C2019.57 553.483 2019.78 552.641 2020.62 552.009L2023.99 550.113C2025.05 549.482 2026.31 549.482 2027.16 549.903L2037.48 555.799C2038.32 556.221 2038.11 557.063 2037.27 557.695L2033.9 559.59C2033.06 560.222 2031.58 560.432 2030.74 559.801Z" opacity=".4"/><path fill="#06033E" d="M2046.54 568.857L2036.22 562.961C2035.37 562.54 2035.58 561.697 2036.43 561.065L2039.8 559.17C2040.85 558.538 2042.12 558.538 2042.96 558.96L2053.28 564.856C2054.13 565.277 2053.92 566.12 2053.07 566.751L2049.7 568.647C2048.86 569.279 2047.38 569.489 2046.54 568.857Z" opacity=".4"/><path fill="#06033E" d="M2134.41 619.609L2124.09 613.713C2123.24 613.292 2123.45 612.449 2124.3 611.817L2127.67 609.922C2128.72 609.29 2129.99 609.29 2130.83 609.712L2141.15 615.608C2142 616.029 2141.79 616.872 2140.94 617.503L2137.57 619.399C2136.52 620.03 2135.25 620.03 2134.41 619.609Z" opacity=".4"/><path fill="#06033E" d="M2150 628.666L2139.68 622.769C2138.84 622.348 2139.05 621.506 2139.89 620.874L2143.26 618.979C2144.31 618.347 2145.58 618.347 2146.42 618.768L2156.75 624.665C2157.59 625.086 2157.38 625.928 2156.54 626.56L2153.16 628.455C2152.32 629.087 2150.85 629.087 2150 628.666Z" opacity=".4"/><path fill="#06033E" d="M2165.81 637.721L2155.48 631.824C2154.64 631.403 2154.85 630.561 2155.69 629.929L2159.06 628.033C2160.12 627.402 2161.38 627.402 2162.23 627.823L2172.55 633.719C2173.39 634.141 2173.18 634.983 2172.34 635.615L2168.97 637.51C2168.13 638.142 2166.65 638.142 2165.81 637.721Z" opacity=".4"/><path fill="#06033E" d="M2181.61 646.775L2171.29 640.879C2170.44 640.458 2170.65 639.615 2171.5 638.983L2174.87 637.088C2175.92 636.456 2177.19 636.456 2178.03 636.878L2188.35 642.774C2189.2 643.195 2188.99 644.038 2188.14 644.669L2184.77 646.565C2183.72 647.197 2182.24 647.197 2181.61 646.775Z" opacity=".4"/><path fill="#06033E" d="M2025.68 575.597L2015.36 569.7C2014.51 569.279 2014.72 568.437 2015.57 567.805L2025.68 561.908C2026.73 561.277 2028 561.277 2028.84 561.698L2039.17 567.594C2040.01 568.016 2039.8 568.858 2038.96 569.49L2028.84 575.386C2028 576.018 2026.52 576.229 2025.68 575.597Z" opacity=".4"/><path fill="#06033E" d="M2041.69 584.862L2031.37 578.966C2030.53 578.545 2030.74 577.702 2031.58 577.071L2041.69 571.174C2042.75 570.542 2044.01 570.542 2044.86 570.963L2055.18 576.86C2056.02 577.281 2055.81 578.124 2054.97 578.755L2044.86 584.652C2044.01 585.284 2042.54 585.284 2041.69 584.862Z" opacity=".4"/><path fill="#06033E" d="M2057.5 593.919L2047.17 588.023C2046.33 587.601 2046.54 586.759 2047.38 586.127L2057.5 580.231C2058.55 579.599 2059.82 579.599 2060.66 580.02L2070.98 585.917C2071.83 586.338 2071.62 587.18 2070.77 587.812L2060.66 593.709C2059.82 594.34 2058.34 594.551 2057.5 593.919Z" opacity=".4"/><path fill="#06033E" d="M2073.3 603.185L2062.98 597.288C2062.13 596.867 2062.35 596.025 2063.19 595.393L2073.3 589.496C2074.36 588.865 2075.62 588.865 2076.46 589.286L2086.79 595.182C2087.63 595.603 2087.42 596.446 2086.58 597.078L2076.46 602.974C2075.62 603.606 2074.15 603.606 2073.3 603.185Z" opacity=".4"/><path fill="#06033E" d="M2089.32 612.239L2078.99 606.343C2078.15 605.922 2078.36 605.079 2079.2 604.448L2089.32 598.551C2090.37 597.919 2091.64 597.919 2092.48 598.34L2102.8 604.237C2103.65 604.658 2103.44 605.501 2102.59 606.132L2092.48 612.029C2091.42 612.661 2090.16 612.871 2089.32 612.239Z" opacity=".4"/><path fill="#06033E" d="M2105.12 621.505L2094.8 615.609C2093.95 615.187 2094.16 614.345 2095.01 613.713L2105.12 607.817C2106.17 607.185 2107.44 607.185 2108.28 607.606L2118.61 613.503C2119.45 613.924 2119.24 614.766 2118.4 615.398L2108.28 621.295C2107.44 621.926 2105.96 621.926 2105.12 621.505Z" opacity=".4"/><path fill="#06033E" d="M2120.92 630.562L2110.6 624.665C2109.76 624.244 2109.97 623.402 2110.81 622.77L2120.92 616.873C2121.98 616.241 2123.24 616.242 2124.09 616.663L2134.41 622.559C2135.25 622.98 2135.04 623.823 2134.2 624.455L2124.09 630.351C2123.24 630.983 2121.77 631.193 2120.92 630.562Z" opacity=".4"/><path fill="#06033E" d="M2136.94 639.827L2126.61 633.931C2125.77 633.51 2125.98 632.667 2126.83 632.035L2136.94 626.139C2137.99 625.507 2139.26 625.507 2140.1 625.928L2150.43 631.825C2151.27 632.246 2151.06 633.088 2150.21 633.72L2140.1 639.617C2139.05 640.248 2137.78 640.248 2136.94 639.827Z" opacity=".4"/><path fill="#06033E" d="M2152.74 648.882L2142.42 642.985C2141.58 642.564 2141.79 641.722 2142.63 641.09L2152.74 635.194C2153.8 634.562 2155.06 634.562 2155.9 634.983L2166.23 640.88C2167.07 641.301 2166.86 642.143 2166.02 642.775L2155.9 648.671C2155.06 649.303 2153.59 649.303 2152.74 648.882Z" opacity=".4"/><path fill="#06033E" d="M1935.07 576.861L1904.73 559.382C1903.89 558.961 1904.1 558.118 1904.94 557.487L1915.05 551.59C1916.11 550.958 1917.37 550.958 1918.21 551.379L1948.56 568.859C1949.4 569.28 1949.19 570.122 1948.35 570.754L1938.23 576.65C1937.39 577.282 1935.91 577.282 1935.07 576.861Z" opacity=".4"/><path fill="#06033E" d="M2129.99 689.316L2099.64 671.837C2098.8 671.416 2099.01 670.573 2099.85 669.942L2109.97 664.045C2111.02 663.413 2112.29 663.413 2113.13 663.835L2143.47 681.314C2144.31 681.735 2144.1 682.577 2143.26 683.209L2133.15 689.105C2132.3 689.737 2130.83 689.737 2129.99 689.316Z" opacity=".4"/><path fill="#06033E" d="M2066.56 672.89L2056.23 666.993C2055.39 666.572 2055.6 665.73 2056.45 665.098L2068.67 658.149C2069.72 657.517 2070.98 657.517 2071.83 657.938L2082.15 663.835C2083 664.256 2082.78 665.098 2081.94 665.73L2069.72 672.679C2068.88 673.311 2067.4 673.311 2066.56 672.89Z" opacity=".4"/><path fill="#06033E" d="M1951.3 606.343L1934.86 596.867C1934.02 596.445 1934.23 595.603 1935.07 594.971L1947.29 588.022C1948.35 587.39 1949.61 587.39 1950.45 587.811L1966.89 597.288C1967.73 597.709 1967.52 598.551 1966.68 599.183L1954.46 606.133C1953.61 606.764 1952.14 606.975 1951.3 606.343Z" opacity=".4"/><path fill="#06033E" d="M2051.18 664.044L2034.74 654.568C2033.9 654.147 2034.11 653.304 2034.95 652.672L2047.17 645.723C2048.23 645.091 2049.49 645.091 2050.33 645.512L2066.77 654.989C2067.61 655.41 2067.4 656.252 2066.56 656.884L2054.34 663.834C2053.5 664.465 2052.02 664.465 2051.18 664.044Z" opacity=".4"/><path fill="#06033E" d="M1974.27 619.611L1957.83 610.134C1956.99 609.713 1957.2 608.871 1958.04 608.239L1970.26 601.289C1971.31 600.658 1972.58 600.658 1973.42 601.079L1989.86 610.555C1990.7 610.976 1990.49 611.819 1989.65 612.451L1977.43 619.4C1976.37 620.032 1975.11 620.032 1974.27 619.611Z" opacity=".4"/><path fill="#06033E" d="M1973.42 601.289L2044.86 642.565C2045.7 642.986 2045.7 643.828 2044.86 644.46L2032.42 651.62C2031.58 652.041 2030.11 652.041 2029.26 651.62L1957.83 610.134L1973.42 601.289Z" opacity=".4"/><path fill="#06033E" d="M2110.81 689.526L2122.19 696.054C2122.82 696.475 2122.82 697.107 2121.98 697.528L2116.92 700.477C2116.08 700.898 2115.02 700.898 2114.18 700.687L2102.8 694.159C2102.17 693.738 2102.17 693.106 2103.01 692.685L2108.07 689.737C2109.12 689.105 2110.18 689.105 2110.81 689.526Z" opacity=".4"/><path fill="#06033E" d="M2094.8 680.26L2106.17 686.789C2106.81 687.21 2106.81 687.842 2105.96 688.263L2100.91 691.211C2100.06 691.632 2099.01 691.632 2098.17 691.422L2086.79 684.893C2086.16 684.472 2086.16 683.84 2087 683.419L2092.06 680.471C2093.11 679.839 2094.16 679.839 2094.8 680.26Z" opacity=".4"/><path fill="#06033E" d="M2078.99 671.206L2090.37 677.734C2091 678.155 2091 678.787 2090.16 679.208L2085.1 682.156C2084.26 682.578 2083.21 682.578 2082.36 682.367L2070.98 675.839C2070.35 675.417 2070.35 674.786 2071.2 674.365L2076.25 671.416C2077.1 670.784 2078.36 670.784 2078.99 671.206Z" opacity=".4"/><path fill="#06033E" d="M2103.65 675.206L2115.02 681.734C2115.66 682.155 2115.66 682.787 2114.81 683.208L2109.76 686.156C2108.91 686.578 2107.86 686.578 2107.02 686.367L2095.64 679.839C2095.01 679.417 2095.01 678.786 2095.85 678.365L2100.91 675.416C2101.75 674.784 2103.01 674.784 2103.65 675.206Z" opacity=".4"/></g><path fill="url(#paint7_radial)" d="M2271.59 656.674L1968.36 481.883C1963.52 479.146 1961.2 472.407 1962.89 466.931L2031.37 244.547C2033.06 239.072 2038.32 236.755 2043.17 239.493L2346.39 414.494C2351.24 417.232 2353.56 423.971 2351.87 429.446L2283.39 651.83C2281.7 657.306 2276.44 659.412 2271.59 656.674Z"/><path fill="url(#paint8_linear)" d="M2268.64 648.882L1974.69 479.145C1970.05 476.618 1967.73 470.09 1969.42 464.825L2034.95 252.128C2036.64 246.863 2041.69 244.758 2046.12 247.285L2340.07 417.021C2344.71 419.548 2347.03 426.077 2345.34 431.341L2279.81 644.038C2278.33 649.303 2273.27 651.62 2268.64 648.882Z"/><path fill="#06033E" d="M2268.64 648.882L1974.69 479.145C1970.05 476.618 1967.73 470.09 1969.42 464.825L2034.95 252.128C2036.64 246.863 2041.69 244.758 2046.12 247.285L2340.07 417.021C2344.71 419.548 2347.03 426.077 2345.34 431.341L2279.81 644.038C2278.33 649.303 2273.27 651.62 2268.64 648.882Z" opacity=".4"/><path fill="#06033E" d="M2268.64 648.882L1974.69 479.145C1970.05 476.618 1967.73 470.09 1969.42 464.825L2034.95 252.128C2036.64 246.863 2041.69 244.758 2046.12 247.285L2340.07 417.021C2344.71 419.548 2347.03 426.077 2345.34 431.341L2279.81 644.038C2278.33 649.303 2273.27 651.62 2268.64 648.882Z" opacity=".4"/><path fill="#06033E" d="M2252.83 583.809L2053.71 469.037C2050.55 467.141 2048.86 462.93 2050.12 459.139L2095.22 312.989C2096.27 309.409 2099.85 307.934 2102.8 309.619L2301.93 424.391C2305.09 426.287 2306.78 430.498 2305.51 434.289L2260.42 580.439C2259.58 584.23 2256 585.704 2252.83 583.809Z" opacity=".5"/><path fill="url(#paint9_radial)" d="M2226.07 587.389L2026.94 472.617C2023.78 470.721 2022.1 466.51 2023.36 462.719L2068.46 316.569C2069.51 312.989 2073.09 311.514 2076.04 313.199L2275.17 427.971C2278.33 429.867 2280.02 434.079 2278.75 437.869L2233.66 584.019C2232.61 587.81 2229.23 589.284 2226.07 587.389Z"/><g opacity=".5"><path fill="#06033E" d="M2226.07 587.389L2026.94 472.617C2023.78 470.721 2022.1 466.51 2023.36 462.719L2068.46 316.569C2069.51 312.989 2073.09 311.514 2076.04 313.199L2275.17 427.971C2278.33 429.867 2280.02 434.079 2278.75 437.869L2233.66 584.019C2232.61 587.81 2229.23 589.284 2226.07 587.389Z" opacity=".5"/></g><path fill="#fff" d="M2275.17 428.184L2076.04 313.412C2074.15 312.359 2072.04 312.359 2070.35 313.622C2071.2 313.622 2072.25 313.833 2073.3 314.254L2272.43 429.026C2275.59 430.922 2277.28 435.133 2276.01 438.924L2230.92 585.074C2230.5 586.338 2229.87 587.391 2228.81 588.233C2230.92 588.233 2232.82 586.759 2233.66 584.232L2278.75 438.082C2279.81 434.502 2278.12 430.079 2275.17 428.184Z"/><path fill="#06033E" d="M1974.9 706.793C1972.16 706.793 1969.63 706.161 1967.52 705.108L1887.87 659.199C1885.76 657.936 1884.5 656.251 1884.5 654.356C1884.5 652.039 1886.18 649.933 1888.92 648.249L1930.01 624.663C1935.07 621.714 1942.45 621.504 1946.87 624.031L2026.52 669.94C2028.63 671.203 2029.89 672.888 2029.89 674.783C2029.89 677.1 2028.21 679.206 2025.47 680.89L1984.38 704.477C1981.64 705.951 1978.27 706.793 1974.9 706.793ZM1939.5 624.241C1936.55 624.241 1933.6 624.873 1931.28 626.347L1890.19 649.933C1888.08 651.197 1887.03 652.671 1887.03 653.935C1887.03 655.409 1888.08 656.251 1889.13 656.883L1968.79 703.002C1972.37 705.108 1979.11 704.898 1983.33 702.371L2024.42 678.784C2026.52 677.521 2027.58 676.047 2027.58 674.783C2027.58 673.309 2026.52 672.467 2025.47 671.835L1945.82 625.926C1944.13 624.663 1941.81 624.241 1939.5 624.241Z" opacity=".4"/><path fill="#fff" d="M2124.51 390.063L2112.29 382.903C2111.23 382.272 2110.6 380.587 2111.02 379.323C2111.44 378.06 2112.71 377.428 2113.76 378.27L2125.98 385.43C2127.04 386.062 2127.67 387.747 2127.25 389.01C2126.83 390.274 2125.77 390.695 2124.51 390.063Z"/><path fill="#fff" d="M2153.8 406.911L2135.68 396.382C2134.62 395.75 2133.99 394.065 2134.41 392.802C2134.83 391.538 2136.1 390.906 2137.15 391.749L2155.27 402.278C2156.33 402.91 2156.96 404.595 2156.54 405.858C2156.33 407.122 2155.06 407.543 2153.8 406.911Z"/><path fill="#fff" d="M2099.64 444.817L2087.42 437.657C2086.37 437.025 2085.73 435.341 2086.16 434.077C2086.58 432.814 2087.84 432.182 2088.9 433.024L2101.12 440.184C2102.17 440.816 2102.8 442.501 2102.38 443.764C2102.17 445.028 2100.91 445.449 2099.64 444.817Z"/><path fill="#fff" d="M2125.77 459.771L2107.65 449.241C2106.6 448.609 2105.96 446.925 2106.39 445.661C2106.81 444.398 2108.07 443.766 2109.12 444.608L2127.25 455.138C2128.3 455.77 2128.93 457.454 2128.51 458.718C2128.3 459.981 2127.04 460.613 2125.77 459.771Z"/><path fill="#fff" d="M2087.63 380.376L2080.05 375.954C2078.99 375.322 2078.36 373.638 2078.78 372.374C2079.2 371.11 2080.47 370.479 2081.52 371.321L2089.11 375.743C2090.16 376.375 2090.79 378.06 2090.37 379.324C2089.95 380.376 2088.9 381.008 2087.63 380.376Z"/><path fill="#fff" d="M2110.81 405.227L2087.42 391.749C2086.37 391.117 2085.73 389.432 2086.16 388.169C2086.58 386.905 2087.84 386.274 2088.9 387.116L2112.29 400.594C2113.34 401.226 2113.97 402.91 2113.55 404.174C2113.13 405.227 2111.86 405.859 2110.81 405.227Z"/><path fill="#fff" d="M2089.11 415.757L2081.52 411.335C2080.47 410.703 2079.83 409.018 2080.26 407.755C2080.68 406.491 2081.94 405.86 2083 406.702L2090.58 411.124C2091.64 411.756 2092.27 413.441 2091.85 414.704C2091.42 415.757 2090.37 416.389 2089.11 415.757Z"/><path fill="#fff" d="M2128.72 484.62L2108.28 472.827C2107.23 472.195 2106.6 470.511 2107.02 469.247C2107.44 467.984 2108.7 467.352 2109.76 468.194L2130.2 479.987C2131.25 480.619 2131.88 482.304 2131.46 483.567C2131.04 484.62 2129.78 485.252 2128.72 484.62Z"/><path fill="#fff" d="M2080.47 433.656L2075.62 430.708C2074.57 430.076 2073.93 428.391 2074.36 427.128C2074.78 425.864 2076.04 425.233 2077.1 426.075L2081.94 429.023C2083 429.655 2083.63 431.34 2083.21 432.603C2083 433.867 2081.73 434.288 2080.47 433.656Z"/><path fill="#fff" d="M2075.83 454.083L2069.72 450.503C2068.67 449.871 2068.03 448.186 2068.46 446.923C2068.88 445.659 2070.14 445.028 2071.2 445.87L2077.31 449.45C2078.36 450.082 2078.99 451.766 2078.57 453.03C2078.15 454.294 2077.1 454.715 2075.83 454.083Z"/><path fill="#fff" d="M2099.64 467.771L2083.42 458.505C2082.36 457.873 2081.73 456.188 2082.15 454.925C2082.57 453.661 2083.84 453.029 2084.89 453.872L2101.12 463.138C2102.17 463.77 2102.8 465.454 2102.38 466.718C2102.17 467.981 2100.91 468.403 2099.64 467.771Z"/><path fill="#fff" d="M2078.36 467.14L2066.77 460.401C2065.72 459.77 2065.08 458.085 2065.51 456.821C2065.93 455.558 2067.19 454.926 2068.25 455.768L2079.83 462.507C2080.89 463.139 2081.52 464.824 2081.1 466.087C2080.89 467.14 2079.62 467.772 2078.36 467.14Z"/><path fill="#fff" d="M2146.21 494.728L2138.84 490.517C2137.78 489.885 2137.15 488.2 2137.57 486.937C2137.99 485.673 2139.26 485.041 2140.31 485.884L2147.69 490.095C2148.74 490.727 2149.37 492.412 2148.95 493.675C2148.74 494.939 2147.48 495.36 2146.21 494.728Z"/><path fill="#fff" d="M2117.76 432.181L2097.32 420.388C2096.27 419.756 2095.64 418.071 2096.06 416.808C2096.48 415.544 2097.75 414.912 2098.8 415.755L2119.24 427.548C2120.29 428.18 2120.93 429.864 2120.5 431.128C2120.08 432.391 2118.82 432.813 2117.76 432.181Z"/><path fill="#E8975B" d="M2120.08 422.076L2084.26 401.438C2083.21 400.807 2082.57 399.122 2083 397.858C2083.42 396.595 2084.68 395.963 2085.73 396.805L2121.56 417.443C2122.61 418.075 2123.24 419.76 2122.82 421.023C2122.61 422.287 2121.35 422.708 2120.08 422.076Z"/><path fill="#E8975B" d="M2099.01 432.816L2078.57 421.022C2077.52 420.391 2076.88 418.706 2077.31 417.442C2077.73 416.179 2078.99 415.547 2080.05 416.389L2100.49 428.183C2101.54 428.814 2102.17 430.499 2101.75 431.763C2101.33 433.026 2100.27 433.658 2099.01 432.816Z"/><path fill="#E8975B" d="M2133.36 441.238L2125.98 437.026C2124.93 436.395 2124.3 434.71 2124.72 433.446C2125.14 432.183 2126.4 431.551 2127.46 432.393L2134.83 436.605C2135.89 437.237 2136.52 438.922 2136.1 440.185C2135.68 441.238 2134.41 441.87 2133.36 441.238Z"/><path fill="#E8975B" d="M2209.22 438.922L2164.97 413.44C2163.91 412.809 2163.28 411.124 2163.7 409.86C2164.12 408.597 2165.39 407.965 2166.44 408.807L2210.69 434.289C2211.74 434.921 2212.38 436.605 2211.96 437.869C2211.53 439.133 2210.27 439.554 2209.22 438.922Z"/><path fill="#F8359E" d="M2097.32 454.927L2072.67 440.606C2071.62 439.975 2070.98 438.29 2071.41 437.026C2071.83 435.763 2073.09 435.131 2074.15 435.973L2098.8 450.294C2099.85 450.925 2100.49 452.61 2100.06 453.874C2099.64 455.137 2098.38 455.558 2097.32 454.927Z"/><path fill="#F8359E" d="M2101.12 376.587L2083 366.058C2081.94 365.426 2081.31 363.741 2081.73 362.478C2082.15 361.214 2083.42 360.582 2084.47 361.425L2102.59 371.954C2103.65 372.586 2104.28 374.271 2103.86 375.534C2103.44 376.587 2102.17 377.219 2101.12 376.587Z"/><path fill="#E8975B" d="M2074.57 476.407L2053.5 464.192C2052.44 463.561 2051.81 461.876 2052.23 460.612C2052.65 459.349 2053.92 458.717 2054.97 459.559L2076.04 471.774C2077.1 472.405 2077.73 474.09 2077.31 475.354C2077.1 476.407 2075.83 477.038 2074.57 476.407Z"/><path fill="#fff" d="M2214.06 416.178L2205 410.914C2204.16 410.492 2203.74 409.229 2203.95 408.387C2204.16 407.544 2205.21 407.123 2206.06 407.544L2215.12 412.809C2215.96 413.23 2216.38 414.494 2216.17 415.336C2215.96 416.389 2214.91 416.6 2214.06 416.178Z"/><path fill="#fff" d="M2231.34 426.075L2222.28 420.81C2221.44 420.389 2221.02 419.125 2221.23 418.283C2221.44 417.441 2222.49 417.019 2223.33 417.441L2232.4 422.705C2233.24 423.127 2233.66 424.39 2233.45 425.232C2233.03 426.285 2232.18 426.496 2231.34 426.075Z"/><path fill="#fff" d="M2248.41 435.975L2239.35 430.71C2238.51 430.289 2238.08 429.026 2238.3 428.183C2238.51 427.341 2239.56 426.92 2240.4 427.341L2249.46 432.606C2250.31 433.027 2250.73 434.291 2250.52 435.133C2250.1 436.186 2249.25 436.396 2248.41 435.975Z"/><path fill="#F8359E" d="M2256.84 440.818L2256.63 440.607C2255.78 440.186 2255.36 438.922 2255.57 438.08C2255.78 437.238 2256.84 436.816 2257.68 437.237L2257.89 437.448C2258.73 437.869 2259.16 439.133 2258.95 439.975C2258.73 441.028 2257.68 441.239 2256.84 440.818Z"/><path fill="url(#paint10_linear)" d="M1792.63 546.113C1786.94 546.113 1781.25 544.639 1776.19 541.691L1715.92 506.943C1713.4 505.469 1711.71 502.731 1711.71 499.783C1711.71 496.835 1713.18 494.097 1715.92 492.623L1776.19 457.876C1786.3 451.979 1798.95 451.979 1809.06 457.876L1869.33 492.623C1871.86 494.097 1873.54 496.835 1873.54 499.783C1873.54 502.731 1872.07 505.469 1869.33 506.943L1809.06 541.691C1804 544.639 1798.32 546.113 1792.63 546.113ZM1778.09 538.321C1786.94 543.586 1798.1 543.586 1807.17 538.321L1867.43 503.574C1868.91 502.731 1869.54 501.257 1869.54 499.783C1869.54 498.098 1868.7 496.835 1867.43 495.993L1807.17 461.245C1798.32 455.98 1787.15 455.98 1778.09 461.245L1717.82 495.993C1716.35 496.835 1715.71 498.309 1715.71 499.783C1715.71 501.468 1716.56 502.731 1717.82 503.574L1778.09 538.321Z"/><path fill="#020230" d="M1792.42 524.213C1815.22 524.213 1833.72 513.559 1833.72 500.416C1833.72 487.273 1815.22 476.619 1792.42 476.619C1769.61 476.619 1751.11 487.273 1751.11 500.416C1751.11 513.559 1769.61 524.213 1792.42 524.213Z" opacity=".6"/><path fill="url(#paint11_radial)" d="M1853.73 330.258H1735.73L1746.69 457.876C1746.69 465.036 1751.32 471.986 1760.81 477.461C1779.56 488.201 1809.9 488.201 1828.66 477.461C1837.93 471.986 1842.78 465.036 1842.78 457.876L1853.73 330.258Z"/><path fill="#06033E" d="M1853.73 330.258H1735.73L1737.63 351.317C1740.37 354.686 1743.95 358.056 1748.59 361.215C1771.13 375.956 1808.22 378.904 1833.51 368.164L1829.5 461.456C1829.29 465.457 1828.03 469.459 1825.29 472.617C1821.49 477.04 1814.12 482.305 1800 485.463C1810.33 484.832 1820.44 482.094 1828.45 477.461C1837.72 471.986 1842.57 465.036 1842.57 457.876L1851.42 355.529L1853.73 330.258Z" opacity=".4"/><path fill="#06033E" d="M1794.73 364.164C1827.32 364.164 1853.73 348.984 1853.73 330.259C1853.73 311.533 1827.32 296.354 1794.73 296.354C1762.15 296.354 1735.73 311.533 1735.73 330.259C1735.73 348.984 1762.15 364.164 1794.73 364.164Z" opacity=".4"/><path fill="#06033E" d="M1794.73 347.527C1822.78 347.527 1845.52 334.421 1845.52 318.255C1845.52 302.088 1822.78 288.982 1794.73 288.982C1766.69 288.982 1743.95 302.088 1743.95 318.255C1743.95 334.421 1766.69 347.527 1794.73 347.527Z" opacity=".4"/><path fill="url(#paint12_linear)" d="M1857.11 328.782C1857.11 328.572 1857.11 328.572 1857.11 328.572L1856.05 317.2V317.411C1855.63 308.776 1849.52 300.142 1838.14 293.614C1814.12 279.715 1775.35 279.715 1751.54 293.614C1739.74 300.353 1733.84 309.197 1733.62 318.042L1732.36 327.94C1732.36 328.151 1732.36 328.572 1732.36 328.782V328.993C1731.73 338.68 1737.84 348.578 1750.69 355.949C1775.14 370.058 1814.75 370.058 1838.98 355.949C1851.84 348.367 1857.95 338.47 1857.11 328.782Z"/><path fill="url(#paint13_linear)" d="M1794.73 347.527C1822.78 347.527 1845.52 334.421 1845.52 318.255C1845.52 302.088 1822.78 288.982 1794.73 288.982C1766.69 288.982 1743.95 302.088 1743.95 318.255C1743.95 334.421 1766.69 347.527 1794.73 347.527Z"/><path fill="url(#paint14_linear)" d="M1792.42 347.527C1820.46 347.527 1843.2 334.421 1843.2 318.255C1843.2 302.088 1820.46 288.982 1792.42 288.982C1764.37 288.982 1741.63 302.088 1741.63 318.255C1741.63 334.421 1764.37 347.527 1792.42 347.527Z"/><path fill="#06033E" d="M1764.81 302.037C1784.62 290.665 1816.86 290.665 1836.67 302.037C1836.88 302.248 1837.09 302.248 1837.3 302.458C1835.4 300.774 1833.08 299.089 1830.56 297.615C1810.75 286.243 1778.51 286.243 1758.7 297.615C1739.1 308.987 1738.89 327.098 1758.07 338.68C1745.42 327.308 1747.74 311.935 1764.81 302.037Z" opacity=".4"/><path fill="url(#paint15_linear)" d="M1758.91 302.669C1778.72 291.297 1810.96 291.297 1830.77 302.669C1839.62 307.723 1844.46 314.252 1845.52 320.78C1846.78 312.356 1841.93 303.933 1830.77 297.615C1810.96 286.243 1778.72 286.243 1758.91 297.615C1747.95 303.933 1742.9 312.567 1744.16 320.78C1745.21 314.252 1750.06 307.723 1758.91 302.669Z"/><path fill="url(#paint16_radial)" d="M1838.56 293.615C1814.54 279.505 1775.56 279.084 1751.54 292.772C1727.51 306.461 1727.3 328.783 1751.11 342.893C1774.93 357.002 1813.91 357.213 1838.14 343.735C1862.16 330.047 1862.37 307.724 1838.56 293.615ZM1830.56 339.102C1824.02 342.893 1816.02 345.42 1807.38 346.683L1806.53 343.735C1806.11 342.472 1805.06 341.629 1803.79 341.629H1785.46C1784.2 341.629 1783.14 342.472 1782.72 343.735L1781.88 346.683C1773.45 345.42 1765.44 342.893 1758.7 339.102C1738.89 327.73 1738.89 309.198 1758.7 297.616C1778.51 286.244 1810.75 286.244 1830.56 297.616C1850.57 308.988 1850.57 327.52 1830.56 339.102Z"/><path fill="#fff" d="M1830.56 295.509C1810.75 284.137 1778.51 284.137 1758.7 295.509C1748.37 301.406 1743.32 309.408 1743.95 317.2C1744.37 310.04 1749.43 303.091 1758.7 297.615C1778.51 286.243 1810.75 286.243 1830.56 297.615C1840.04 303.091 1844.88 310.04 1845.31 317.2C1845.94 309.408 1841.09 301.406 1830.56 295.509Z"/><path fill="#fff" d="M1837.93 341.629C1813.7 355.317 1774.93 354.896 1750.9 340.787C1739.52 334.048 1733.62 325.414 1733.2 316.779C1732.78 326.045 1738.68 335.733 1750.9 342.893C1774.71 357.002 1813.7 357.213 1837.93 343.735C1850.57 336.575 1856.68 327.098 1856.05 317.411C1855.84 326.256 1849.73 335.101 1837.93 341.629Z"/><path fill="#0C0A78" d="M1800.21 348.157H1789.25C1788.41 348.157 1787.78 347.525 1787.78 346.683V346.472C1787.78 345.63 1788.41 344.998 1789.25 344.998H1800.21C1801.05 344.998 1801.69 345.63 1801.69 346.472V346.683C1801.48 347.525 1801.05 348.157 1800.21 348.157Z"/><path fill="url(#paint17_linear)" d="M1800.21 345.209H1789.25C1788.41 345.209 1787.78 345.841 1787.78 346.683V346.894C1787.78 347.104 1787.78 347.104 1787.78 347.315C1787.99 346.683 1788.41 346.262 1789.04 346.262H1800C1800.63 346.262 1801.05 346.683 1801.27 347.315C1801.27 347.104 1801.27 347.104 1801.27 346.894V346.683C1801.48 345.841 1801.05 345.209 1800.21 345.209Z"/><path fill="#E8975B" d="M1796.42 444.82C1795.15 449.874 1789.89 452.822 1784.83 451.559C1779.77 450.295 1776.82 445.031 1778.09 439.976C1779.35 434.922 1784.2 433.448 1789.25 434.922C1794.31 436.186 1797.68 439.766 1796.42 444.82Z"/><path fill="#E8975B" d="M1803.79 434.921C1801.9 436.816 1799.37 436.606 1797.89 434.921C1796.21 433.236 1796 430.92 1797.89 429.024C1799.79 427.129 1803.37 426.287 1805.06 427.971C1806.74 429.446 1805.69 433.026 1803.79 434.921Z"/><path fill="#E8975B" d="M1793.89 426.918C1793.47 429.445 1791.36 430.709 1789.04 430.288C1786.73 429.867 1785.25 427.971 1785.67 425.444C1786.09 422.917 1788.62 419.969 1790.73 420.39C1793.26 420.811 1794.52 424.391 1793.89 426.918Z"/><path fill="#E8975B" d="M1781.88 425.655C1782.93 428.182 1781.67 430.288 1779.56 431.13C1777.45 431.973 1775.14 431.341 1774.08 428.814C1773.03 426.287 1773.66 422.707 1775.77 421.864C1777.88 421.022 1780.83 423.338 1781.88 425.655Z"/><path fill="#fff" d="M1798.53 346.683C1798.53 346.683 1831.4 335.733 1818.12 297.826C1804.85 259.92 1778.72 248.548 1789.25 218.223C1789.25 218.223 1772.82 242.651 1788.2 275.925C1803.58 308.987 1806.95 305.197 1806.74 321.202C1806.53 339.944 1791.36 346.894 1791.36 346.894H1798.53V346.683Z" opacity=".5"/><path fill="#fff" d="M1801.48 223.488C1801.48 223.488 1798.1 200.744 1819.39 178C1819.39 178 1800.63 219.908 1806.74 240.756C1806.74 240.756 1801.69 227.489 1801.48 223.488Z" opacity=".5"/><defs><linearGradient id="paint0_linear" x1="2423.25" x2="2491.97" y1="745.269" y2="745.269" gradientUnits="userSpaceOnUse"><stop stop-color="#E39A65"/><stop offset="1" stop-color="#E95F8D"/></linearGradient><linearGradient id="paint1_linear" x1="2329.16" x2="2444.59" y1="651.148" y2="651.148" gradientUnits="userSpaceOnUse"><stop stop-color="#E39A65"/><stop offset="1" stop-color="#E95F8D"/></linearGradient><linearGradient id="paint2_linear" x1="1568" x2="1683.43" y1="689.795" y2="689.795" gradientUnits="userSpaceOnUse"><stop stop-color="#E39A65"/><stop offset="1" stop-color="#E95F8D"/></linearGradient><linearGradient id="paint3_linear" x1="1702.38" x2="2318.44" y1="682.397" y2="682.397" gradientUnits="userSpaceOnUse"><stop stop-color="#E39A65"/><stop offset="1" stop-color="#E95F8D"/></linearGradient><radialGradient id="paint4_radial" cx="0" cy="0" r="1" gradientTransform="translate(2042.67 226.563) scale(470.526 470.242)" gradientUnits="userSpaceOnUse"><stop stop-color="#E39A65"/><stop offset=".474" stop-color="#A92FFB"/><stop offset=".595" stop-color="#891CFB"/><stop offset=".742" stop-color="#6507FA"/><stop offset=".802" stop-color="#0D0C6F"/></radialGradient><radialGradient id="paint5_radial" cx="0" cy="0" r="1" gradientTransform="translate(1754.88 604.203) scale(514.516 514.205)" gradientUnits="userSpaceOnUse"><stop stop-color="#E39A65"/><stop offset=".474" stop-color="#A92FFB"/><stop offset=".568" stop-color="#891CFB"/><stop offset=".682" stop-color="#6507FA"/><stop offset=".738" stop-color="#0D0C6F"/></radialGradient><radialGradient id="paint6_radial" cx="0" cy="0" r="1" gradientTransform="translate(1802.2 500.991) scale(461.389 461.11)" gradientUnits="userSpaceOnUse"><stop stop-color="#E39A65"/><stop offset=".474" stop-color="#A92FFB"/><stop offset=".588" stop-color="#891CFB"/><stop offset=".726" stop-color="#6507FA"/><stop offset="1" stop-color="#3919BB"/></radialGradient><radialGradient id="paint7_radial" cx="0" cy="0" r="1" gradientTransform="translate(1917.15 324.651) scale(470.62 470.336)" gradientUnits="userSpaceOnUse"><stop stop-color="#E39A65"/><stop offset=".474" stop-color="#A92FFB"/><stop offset=".588" stop-color="#891CFB"/><stop offset=".726" stop-color="#6507FA"/><stop offset="1" stop-color="#3919BB"/></radialGradient><linearGradient id="paint8_linear" x1="1968.87" x2="2345.99" y1="448.115" y2="448.115" gradientUnits="userSpaceOnUse"><stop stop-color="#3919BB"/><stop offset="1" stop-color="#6507FA"/></linearGradient><radialGradient id="paint9_radial" cx="0" cy="0" r="1" gradientTransform="translate(1745.34 224.212) scale(732.978 732.536)" gradientUnits="userSpaceOnUse"><stop stop-color="#E39A65"/><stop offset=".474" stop-color="#A92FFB"/><stop offset=".588" stop-color="#891CFB"/><stop offset=".726" stop-color="#6507FA"/><stop offset="1" stop-color="#3919BB"/></radialGradient><linearGradient id="paint10_linear" x1="1711.76" x2="1873.54" y1="499.67" y2="499.67" gradientUnits="userSpaceOnUse"><stop stop-color="#E39A65"/><stop offset="1" stop-color="#E95F8D"/></linearGradient><radialGradient id="paint11_radial" cx="0" cy="0" r="1" gradientTransform="translate(1726.1 367.787) scale(348.421 348.21)" gradientUnits="userSpaceOnUse"><stop stop-color="#E39A65"/><stop offset=".153" stop-color="#A92FFB"/><stop offset=".409" stop-color="#3919BB"/><stop offset=".931" stop-color="#3919BB"/></radialGradient><linearGradient id="paint12_linear" x1="1732.27" x2="1857.25" y1="324.65" y2="324.65" gradientUnits="userSpaceOnUse"><stop stop-color="#E39A65"/><stop offset=".252" stop-color="#A92FFB"/><stop offset=".556" stop-color="#3919BB"/></linearGradient><linearGradient id="paint13_linear" x1="1743.99" x2="1845.52" y1="318.305" y2="318.305" gradientUnits="userSpaceOnUse"><stop stop-color="#4F1FEC"/><stop offset="1" stop-color="#A92FFB"/></linearGradient><linearGradient id="paint14_linear" x1="1741.58" x2="1843.11" y1="318.305" y2="318.305" gradientUnits="userSpaceOnUse"><stop stop-color="#4F1FEC"/><stop offset="1" stop-color="#A92FFB"/></linearGradient><linearGradient id="paint15_linear" x1="1744" x2="1872.01" y1="304.928" y2="304.928" gradientUnits="userSpaceOnUse"><stop stop-color="#131060"/><stop offset=".186" stop-color="#141062"/><stop offset=".282" stop-color="#19106A"/><stop offset=".358" stop-color="#221078"/><stop offset=".424" stop-color="#2E0F8B"/><stop offset=".482" stop-color="#3E0FA3"/><stop offset=".536" stop-color="#510EC2"/><stop offset=".585" stop-color="#680DE5"/><stop offset=".607" stop-color="#740DF8"/><stop offset=".618" stop-color="#7A14F0"/><stop offset=".683" stop-color="#9B3CC3"/><stop offset=".748" stop-color="#B75D9D"/><stop offset=".812" stop-color="#CC7680"/><stop offset=".876" stop-color="#DC886C"/><stop offset=".939" stop-color="#E5935F"/><stop offset="1" stop-color="#E8975B"/></linearGradient><radialGradient id="paint16_radial" cx="0" cy="0" r="1" gradientTransform="translate(1716.67 289.313) scale(227.922 227.785)" gradientUnits="userSpaceOnUse"><stop stop-color="#E39A65"/><stop offset=".252" stop-color="#A92FFB"/><stop offset=".736" stop-color="#3919BB"/></radialGradient><linearGradient id="paint17_linear" x1="1786.72" x2="1804.43" y1="346.22" y2="346.22" gradientUnits="userSpaceOnUse"><stop stop-color="#131060"/><stop offset=".186" stop-color="#141062"/><stop offset=".282" stop-color="#19106A"/><stop offset=".358" stop-color="#221078"/><stop offset=".424" stop-color="#2E0F8B"/><stop offset=".482" stop-color="#3E0FA3"/><stop offset=".536" stop-color="#510EC2"/><stop offset=".585" stop-color="#680DE5"/><stop offset=".607" stop-color="#740DF8"/><stop offset=".618" stop-color="#7A14F0"/><stop offset=".683" stop-color="#9B3CC3"/><stop offset=".748" stop-color="#B75D9D"/><stop offset=".812" stop-color="#CC7680"/><stop offset=".876" stop-color="#DC886C"/><stop offset=".939" stop-color="#E5935F"/><stop offset="1" stop-color="#E8975B"/></linearGradient></defs></svg>