<svg xmlns="http://www.w3.org/2000/svg" width="401" height="297" fill="none" viewBox="0 0 401 297"><g clip-path="url(#clip0)"><path fill="url(#paint0_linear)" d="M15.0315 254.475C16.1262 254.475 17.2208 254.202 18.2242 253.654L28.897 247.451C29.5355 247.086 29.9004 246.448 29.9004 245.718C29.9004 244.988 29.5355 244.35 28.897 243.985L18.2242 237.782C16.3086 236.687 13.8457 236.687 11.8388 237.782L1.16611 243.985C0.527575 244.35 0.162689 244.988 0.162689 245.718C0.162689 246.448 0.527575 247.086 1.16611 247.451L11.8388 253.654C12.8422 254.11 13.9369 254.475 15.0315 254.475ZM15.0315 238.603C15.8525 238.603 16.6735 238.785 17.4032 239.241L28.076 245.444C28.1672 245.536 28.2584 245.627 28.2584 245.718C28.2584 245.809 28.2584 245.901 28.076 245.992L17.4032 252.195C15.9437 253.016 14.2105 253.016 12.751 252.195L2.07831 245.992C1.98709 245.901 1.89586 245.809 1.89586 245.718C1.89586 245.627 1.89587 245.536 2.07831 245.444L12.751 239.241C13.4808 238.877 14.2105 238.603 15.0315 238.603Z"/><path fill="url(#paint1_linear)" d="M45.6966 219.393C47.521 219.393 49.2542 218.937 50.8962 218.024L69.3226 207.352C70.2348 206.804 70.6909 205.983 70.6909 204.889C70.6909 203.885 70.1436 202.973 69.3226 202.426L50.8962 191.753C47.7034 189.929 43.781 189.929 40.5883 191.753L22.1618 202.426C21.2496 202.973 20.7935 203.794 20.7935 204.889C20.7935 205.892 21.3408 206.804 22.1618 207.352L40.4971 218.024C42.139 218.937 43.8722 219.393 45.6966 219.393ZM49.984 216.565C47.3386 218.116 44.0546 218.116 41.318 216.565L22.8915 205.892C22.4354 205.619 22.3442 205.162 22.3442 204.98C22.3442 204.798 22.4354 204.341 22.8915 204.068L41.4093 193.395C44.0546 191.844 47.3386 191.844 50.0752 193.395L68.5016 204.068C68.9577 204.341 69.049 204.798 69.049 204.98C69.049 205.162 68.9577 205.619 68.5016 205.892L49.984 216.565Z"/><path fill="url(#paint2_linear)" d="M375.174 236.158C376.998 236.158 378.731 235.702 380.373 234.79L398.8 224.117C399.712 223.57 400.168 222.749 400.168 221.654C400.168 220.651 399.621 219.739 398.8 219.191L380.373 208.519C377.181 206.694 373.258 206.694 370.065 208.519L351.639 219.191C350.727 219.739 350.271 220.56 350.271 221.654C350.271 222.658 350.818 223.57 351.639 224.117L370.065 234.698C371.616 235.702 373.44 236.158 375.174 236.158ZM375.174 208.975C376.633 208.975 378.184 209.34 379.461 210.161L397.887 220.742C398.344 221.016 398.435 221.472 398.435 221.654C398.435 221.837 398.344 222.293 397.887 222.566L379.461 233.239C376.816 234.79 373.532 234.79 370.795 233.239L352.369 222.566C351.913 222.293 351.821 221.837 351.821 221.654C351.821 221.472 351.913 221.016 352.369 220.742L370.795 210.069C372.163 209.34 373.714 208.975 375.174 208.975Z"/><path fill="#020230" d="M188.634 282.456L320.356 206.379C322.272 205.284 321.998 203.369 319.809 202.092L235.248 153.289C233.058 152.012 229.683 151.83 227.768 153.015L96.0456 229.093C94.1299 230.187 94.4036 232.103 96.5929 233.38L181.154 282.183C183.343 283.46 186.718 283.551 188.634 282.456Z" opacity=".6"/><path fill="url(#paint3_linear)" d="M185.614 296.291C187.164 296.291 188.624 295.926 189.719 295.288L340.049 208.538C341.235 207.808 341.965 206.804 341.965 205.619C341.965 204.341 341.053 202.973 339.411 202.061L236.879 142.038C234.051 140.396 229.947 140.214 227.484 141.673L77.2442 228.515C76.0583 229.245 75.3285 230.248 75.3285 231.434C75.3285 232.711 76.2408 234.079 77.8827 234.991L180.323 294.923C181.874 295.835 183.789 296.291 185.614 296.291ZM231.68 142.403C233.231 142.403 234.872 142.768 236.15 143.498L338.59 203.52C339.684 204.159 340.232 204.889 340.232 205.619C340.232 206.257 339.684 206.713 339.137 206.987L188.806 293.828C186.891 294.923 183.333 294.741 181.144 293.463L78.6125 233.441C77.5178 232.802 76.9705 232.072 76.9705 231.343C76.9705 230.704 77.5178 230.248 78.0652 229.974L228.396 143.133C229.308 142.677 230.494 142.403 231.68 142.403Z"/><path fill="url(#paint4_radial)" d="M61.009 101.526L192.275 25.8131C193.187 25.2658 194.099 25.1746 194.92 25.4483L197.383 26.2692L196.562 26.4517C196.927 26.8166 197.201 27.3639 197.383 27.9112L227.03 124.24C227.759 126.611 226.665 129.53 224.658 130.716L93.3921 206.52C93.1185 206.703 92.7536 206.794 92.3887 206.885L92.7536 207.615L90.4731 206.794C89.5609 206.429 88.7399 205.608 88.375 204.331L58.7285 108.002C57.9075 105.631 58.911 102.712 61.009 101.526Z"/><path fill="url(#paint5_radial)" d="M98.0422 210.111L227.575 135.311C229.49 134.216 232.774 134.307 235.055 135.584L318.795 183.931L321.623 182.836L320.802 186.759C320.71 187.306 320.254 187.945 319.524 188.31L188.715 263.84C186.799 264.935 183.515 264.844 181.235 263.566L97.3124 215.128C96.309 214.49 95.6705 213.76 95.488 213.03L94.6671 209.199L98.0422 210.111Z"/><path fill="url(#paint6_radial)" d="M188.634 260.523L320.356 184.446C322.272 183.351 321.998 181.435 319.809 180.158L235.248 131.355C233.058 130.078 229.683 129.896 227.768 131.082L96.0456 207.068C94.1299 208.163 94.4036 210.078 96.5929 211.355L181.154 260.158C183.343 261.527 186.718 261.618 188.634 260.523Z"/><path fill="#fff" d="M96.5863 210.366L181.147 259.169C183.337 260.446 186.712 260.629 188.628 259.443L320.35 183.456C320.988 183.091 321.353 182.635 321.535 182.088C321.809 183 321.444 183.821 320.35 184.46L188.628 260.538C186.712 261.632 183.337 261.541 181.147 260.264L96.5863 211.461C95.1268 210.64 94.5794 209.454 94.8531 208.542C95.0355 209.18 95.5829 209.819 96.5863 210.366Z"/><g opacity=".4"><path fill="#06033E" d="M257.5 172.106L261.97 169.552C262.335 169.369 262.244 169.004 261.879 168.731L256.588 165.72C256.132 165.447 255.585 165.447 255.22 165.629L250.75 168.183C250.385 168.366 250.476 168.731 250.841 169.004L256.132 172.015C256.497 172.288 257.136 172.288 257.5 172.106Z" opacity=".4"/><path fill="#06033E" d="M250.664 176.071L255.134 173.517C255.499 173.334 255.408 172.969 255.043 172.696L249.752 169.685C249.296 169.412 248.749 169.411 248.384 169.594L243.914 172.148C243.549 172.331 243.64 172.696 244.005 172.969L249.296 175.98C249.661 176.162 250.3 176.254 250.664 176.071Z" opacity=".4"/><path fill="#06033E" d="M243.724 179.979L248.193 177.425C248.558 177.242 248.467 176.877 248.102 176.604L242.812 173.593C242.356 173.32 241.808 173.32 241.443 173.502L236.974 176.056C236.609 176.239 236.7 176.604 237.065 176.877L242.356 179.888C242.812 180.161 243.45 180.161 243.724 179.979Z" opacity=".4"/><path fill="#06033E" d="M234.243 176.697L238.713 174.142C239.078 173.96 238.987 173.595 238.622 173.321L234.243 170.767C233.787 170.494 233.24 170.494 232.875 170.676L228.405 173.23C228.04 173.413 228.131 173.778 228.496 174.051L232.875 176.605C233.331 176.879 233.878 176.879 234.243 176.697Z" opacity=".4"/><path fill="#06033E" d="M227.392 180.783L231.862 178.228C232.227 178.046 232.136 177.681 231.771 177.407L227.392 174.853C226.936 174.579 226.389 174.579 226.024 174.762L221.554 177.316C221.189 177.499 221.28 177.863 221.645 178.137L226.024 180.691C226.389 180.965 227.027 180.965 227.392 180.783Z" opacity=".4"/><path fill="#06033E" d="M220.556 184.63L225.026 182.076C225.391 181.893 225.3 181.529 224.935 181.255L220.556 178.701C220.1 178.427 219.553 178.427 219.188 178.61L214.718 181.164C214.353 181.346 214.445 181.711 214.809 181.985L219.188 184.539C219.553 184.812 220.191 184.812 220.556 184.63Z" opacity=".4"/><path fill="#06033E" d="M213.631 188.658L218.1 186.104C218.465 185.921 218.374 185.556 218.009 185.282L213.631 182.728C213.174 182.454 212.627 182.454 212.262 182.637L207.793 185.191C207.428 185.374 207.519 185.739 207.884 186.012L212.262 188.567C212.718 188.749 213.266 188.84 213.631 188.658Z" opacity=".4"/><path fill="#06033E" d="M206.779 192.624L211.249 190.07C211.614 189.887 211.523 189.523 211.158 189.249L206.779 186.695C206.323 186.421 205.776 186.421 205.411 186.604L200.941 189.158C200.577 189.34 200.668 189.705 201.033 189.979L205.411 192.533C205.776 192.806 206.415 192.806 206.779 192.624Z" opacity=".4"/><path fill="#06033E" d="M199.943 196.526L204.413 193.972C204.778 193.79 204.686 193.425 204.322 193.151L199.943 190.597C199.487 190.324 198.94 190.324 198.575 190.506L194.105 193.06C193.74 193.243 193.831 193.607 194.196 193.881L198.575 196.435C198.94 196.709 199.578 196.8 199.943 196.526Z" opacity=".4"/><path fill="#06033E" d="M193.018 200.494L197.487 197.939C197.852 197.757 197.761 197.392 197.396 197.118L193.018 194.564C192.561 194.29 192.014 194.29 191.649 194.473L187.179 197.027C186.814 197.21 186.906 197.574 187.27 197.848L191.649 200.402C192.105 200.676 192.744 200.676 193.018 200.494Z" opacity=".4"/><path fill="#06033E" d="M186.167 204.461L190.636 201.906C191.001 201.724 190.91 201.359 190.545 201.085L186.167 198.531C185.711 198.257 185.163 198.257 184.799 198.44L180.329 200.994C179.964 201.177 180.055 201.541 180.42 201.815L184.799 204.37C185.163 204.643 185.802 204.735 186.167 204.461Z" opacity=".4"/><path fill="#06033E" d="M179.33 208.487L183.8 205.933C184.165 205.751 184.074 205.386 183.709 205.112L179.33 202.558C178.874 202.285 178.327 202.285 177.962 202.467L173.492 205.021C173.127 205.203 173.219 205.568 173.583 205.842L177.962 208.396C178.327 208.67 178.966 208.67 179.33 208.487Z" opacity=".4"/><path fill="#06033E" d="M172.495 212.394L176.964 209.839C177.329 209.657 177.238 209.292 176.873 209.019L172.495 206.464C172.039 206.191 171.491 206.191 171.126 206.373L166.657 208.927C166.292 209.11 166.383 209.475 166.748 209.748L171.126 212.302C171.491 212.576 172.13 212.667 172.495 212.394Z" opacity=".4"/><path fill="#06033E" d="M224.117 174.892L228.587 172.338C228.952 172.155 228.861 171.79 228.496 171.517L224.117 168.963C223.661 168.689 223.114 168.689 222.749 168.871L218.279 171.425C217.914 171.608 218.006 171.973 218.371 172.246L222.749 174.801C223.205 174.983 223.752 175.074 224.117 174.892Z" opacity=".4"/><path fill="#06033E" d="M231.134 170.747L235.603 168.193C235.968 168.011 235.877 167.646 235.512 167.372L231.134 164.818C230.677 164.544 230.13 164.544 229.765 164.727L225.296 167.281C224.931 167.463 225.022 167.828 225.387 168.102L229.765 170.656C230.13 170.93 230.769 171.021 231.134 170.747Z" opacity=".4"/><path fill="#06033E" d="M238.074 166.787L247.652 161.222C248.017 161.04 247.926 160.675 247.561 160.401L243.183 157.847C242.727 157.574 242.179 157.574 241.814 157.756L232.236 163.32C231.871 163.503 231.963 163.868 232.328 164.141L236.706 166.696C237.162 166.969 237.71 166.969 238.074 166.787Z" opacity=".4"/><path fill="#06033E" d="M233.243 161.845L240.997 157.375C241.362 157.192 241.27 156.827 240.905 156.554L236.527 154C236.071 153.726 235.523 153.726 235.159 153.908L227.405 158.378C227.04 158.561 227.131 158.926 227.496 159.199L231.875 161.753C232.24 162.027 232.878 162.118 233.243 161.845Z" opacity=".4"/><path fill="#06033E" d="M217.281 178.861L221.751 176.307C222.116 176.124 222.025 175.759 221.66 175.486L217.281 172.931C216.825 172.658 216.278 172.658 215.913 172.84L211.443 175.394C211.078 175.577 211.169 175.942 211.534 176.215L215.913 178.77C216.278 179.043 216.916 179.043 217.281 178.861Z" opacity=".4"/><path fill="#06033E" d="M210.43 182.708L214.9 180.154C215.265 179.971 215.174 179.607 214.809 179.333L210.43 176.779C209.974 176.505 209.427 176.505 209.062 176.688L204.592 179.242C204.227 179.424 204.318 179.789 204.683 180.063L209.062 182.617C209.427 182.89 210.065 182.982 210.43 182.708Z" opacity=".4"/><path fill="#06033E" d="M203.504 186.734L207.974 184.18C208.339 183.997 208.247 183.632 207.883 183.359L203.504 180.804C203.048 180.531 202.501 180.531 202.136 180.713L197.666 183.267C197.301 183.45 197.392 183.815 197.757 184.088L202.136 186.643C202.592 186.916 203.23 186.916 203.504 186.734Z" opacity=".4"/><path fill="#06033E" d="M196.668 190.698L201.138 188.144C201.503 187.962 201.411 187.597 201.047 187.323L196.668 184.769C196.212 184.495 195.665 184.495 195.3 184.678L190.831 187.232C190.466 187.414 190.557 187.779 190.922 188.053L195.3 190.607C195.665 190.881 196.303 190.972 196.668 190.698Z" opacity=".4"/><path fill="#06033E" d="M189.817 194.665L194.287 192.111C194.652 191.929 194.561 191.564 194.196 191.29L189.817 188.736C189.361 188.462 188.814 188.462 188.449 188.645L183.979 191.199C183.614 191.381 183.705 191.746 184.07 192.02L188.449 194.574C188.814 194.848 189.452 194.848 189.817 194.665Z" opacity=".4"/><path fill="#06033E" d="M182.981 198.571L187.451 196.017C187.816 195.835 187.724 195.47 187.36 195.196L182.981 192.642C182.525 192.369 181.978 192.369 181.613 192.551L177.144 195.105C176.779 195.288 176.87 195.652 177.235 195.926L181.613 198.48C181.978 198.754 182.616 198.845 182.981 198.571Z" opacity=".4"/><path fill="#06033E" d="M176.04 202.66L180.51 200.105C180.875 199.923 180.784 199.558 180.419 199.284L176.04 196.73C175.584 196.456 175.036 196.456 174.671 196.639L170.201 199.193C169.837 199.376 169.928 199.74 170.293 200.014L174.671 202.568C175.036 202.842 175.675 202.842 176.04 202.66Z" opacity=".4"/><path fill="#06033E" d="M169.19 206.566L173.659 204.011C174.024 203.829 173.933 203.464 173.568 203.19L169.19 200.636C168.734 200.363 168.186 200.363 167.821 200.545L163.352 203.099C162.987 203.282 163.078 203.647 163.443 203.92L167.821 206.474C168.186 206.748 168.825 206.839 169.19 206.566Z" opacity=".4"/><path fill="#06033E" d="M162.354 210.531L166.823 207.976C167.188 207.794 167.097 207.429 166.732 207.155L162.354 204.601C161.898 204.328 161.35 204.328 160.985 204.51L156.516 207.064C156.151 207.247 156.242 207.612 156.607 207.885L160.985 210.439C161.35 210.713 161.989 210.713 162.354 210.531Z" opacity=".4"/><path fill="#06033E" d="M150.138 217.569L159.807 212.004C160.172 211.821 160.08 211.457 159.716 211.183L155.337 208.629C154.881 208.355 154.334 208.355 153.969 208.537L144.299 214.102C143.935 214.285 144.026 214.65 144.391 214.923L148.769 217.478C149.134 217.751 149.773 217.751 150.138 217.569Z" opacity=".4"/><path fill="#06033E" d="M136.723 209.837L144.933 205.094C145.298 204.911 145.206 204.546 144.842 204.273L140.463 201.718C140.007 201.445 139.46 201.445 139.095 201.627L130.885 206.371C130.52 206.553 130.611 206.918 130.976 207.192L135.355 209.746C135.72 210.02 136.358 210.111 136.723 209.837Z" opacity=".4"/><path fill="#06033E" d="M205.232 178.019L209.702 175.465C210.067 175.282 209.975 174.917 209.611 174.644L205.232 172.089C204.776 171.816 204.228 171.816 203.863 171.998L199.393 174.552C199.028 174.735 199.12 175.1 199.485 175.373L203.863 177.928C204.228 178.201 204.867 178.293 205.232 178.019Z" opacity=".4"/><path fill="#06033E" d="M212.263 173.994L216.733 171.439C217.098 171.257 217.007 170.892 216.642 170.618L212.263 168.064C211.807 167.79 211.26 167.79 210.895 167.973L206.425 170.527C206.06 170.71 206.151 171.074 206.516 171.348L210.895 173.902C211.351 174.176 211.898 174.176 212.263 173.994Z" opacity=".4"/><path fill="#06033E" d="M219.37 169.845L223.839 167.291C224.204 167.108 224.113 166.743 223.748 166.47L219.37 163.916C218.914 163.642 218.366 163.642 218.001 163.824L213.532 166.379C213.167 166.561 213.258 166.926 213.623 167.199L218.001 169.754C218.366 170.027 219.005 170.118 219.37 169.845Z" opacity=".4"/><path fill="#06033E" d="M226.401 165.88L230.871 163.326C231.236 163.144 231.144 162.779 230.78 162.505L226.401 159.951C225.945 159.677 225.398 159.677 225.033 159.86L220.563 162.414C220.198 162.596 220.289 162.961 220.654 163.235L225.033 165.789C225.398 166.063 226.036 166.063 226.401 165.88Z" opacity=".4"/><path fill="#06033E" d="M198.381 182.046L202.851 179.492C203.216 179.31 203.124 178.945 202.76 178.671L198.381 176.117C197.925 175.843 197.377 175.843 197.013 176.026L192.543 178.58C192.178 178.762 192.269 179.127 192.634 179.401L197.013 181.955C197.377 182.229 198.016 182.229 198.381 182.046Z" opacity=".4"/><path fill="#06033E" d="M191.545 185.952L196.015 183.398C196.38 183.216 196.288 182.851 195.924 182.577L191.545 180.023C191.089 179.749 190.541 179.749 190.176 179.932L185.706 182.486C185.341 182.668 185.433 183.033 185.798 183.307L190.176 185.861C190.541 186.135 191.18 186.226 191.545 185.952Z" opacity=".4"/><path fill="#06033E" d="M184.619 189.917L189.089 187.363C189.453 187.181 189.362 186.816 188.997 186.542L184.619 183.988C184.163 183.714 183.615 183.714 183.251 183.897L178.781 186.451C178.416 186.633 178.507 186.998 178.872 187.272L183.251 189.826C183.615 190.1 184.254 190.1 184.619 189.917Z" opacity=".4"/><path fill="#06033E" d="M177.768 193.884L182.238 191.33C182.603 191.147 182.512 190.782 182.147 190.509L177.768 187.955C177.312 187.681 176.764 187.681 176.4 187.863L171.929 190.418C171.565 190.6 171.656 190.965 172.021 191.239L176.4 193.793C176.764 194.066 177.403 194.158 177.768 193.884Z" opacity=".4"/><path fill="#06033E" d="M170.932 197.912L175.402 195.357C175.766 195.175 175.675 194.81 175.31 194.536L170.932 191.982C170.476 191.708 169.928 191.708 169.563 191.891L165.094 194.445C164.729 194.628 164.82 194.992 165.185 195.266L169.563 197.82C169.928 198.094 170.567 198.094 170.932 197.912Z" opacity=".4"/><path fill="#06033E" d="M164.006 201.757L168.476 199.203C168.841 199.02 168.749 198.656 168.385 198.382L164.006 195.828C163.55 195.554 163.003 195.554 162.638 195.737L158.168 198.291C157.803 198.473 157.894 198.838 158.259 199.112L162.638 201.666C163.094 201.939 163.641 202.031 164.006 201.757Z" opacity=".4"/><path fill="#06033E" d="M157.155 205.843L161.625 203.289C161.99 203.106 161.898 202.742 161.533 202.468L157.155 199.914C156.699 199.64 156.151 199.64 155.786 199.822L151.317 202.377C150.952 202.559 151.043 202.924 151.408 203.198L155.786 205.752C156.151 206.026 156.79 206.026 157.155 205.843Z" opacity=".4"/><path fill="#06033E" d="M150.319 209.749L154.789 207.195C155.154 207.013 155.062 206.648 154.697 206.374L150.319 203.82C149.863 203.546 149.315 203.546 148.95 203.729L144.481 206.283C144.116 206.465 144.207 206.83 144.572 207.104L148.95 209.658C149.315 209.932 149.954 210.023 150.319 209.749Z" opacity=".4"/><path fill="#06033E" d="M143.393 213.777L147.862 211.223C148.227 211.04 148.136 210.675 147.771 210.402L143.393 207.847C142.937 207.574 142.389 207.574 142.024 207.756L137.555 210.31C137.19 210.493 137.281 210.858 137.646 211.131L142.024 213.686C142.481 213.959 143.119 213.959 143.393 213.777Z" opacity=".4"/><path fill="#06033E" d="M208.868 168.223L213.338 165.669C213.702 165.487 213.611 165.122 213.246 164.848L208.868 162.295C208.412 162.021 207.864 162.021 207.499 162.203L203.03 164.757C202.665 164.94 202.756 165.304 203.121 165.578L207.499 168.132C207.864 168.406 208.503 168.406 208.868 168.223Z" opacity=".4"/><path fill="#06033E" d="M215.718 164.316L220.188 161.762C220.553 161.579 220.462 161.214 220.097 160.941L215.718 158.386C215.262 158.113 214.715 158.113 214.35 158.295L209.88 160.849C209.515 161.032 209.606 161.397 209.971 161.67L214.35 164.225C214.715 164.498 215.353 164.498 215.718 164.316Z" opacity=".4"/><path fill="#06033E" d="M222.555 160.292L227.025 157.738C227.389 157.556 227.298 157.191 226.933 156.917L222.555 154.363C222.099 154.089 221.551 154.089 221.186 154.272L216.717 156.826C216.352 157.008 216.443 157.373 216.808 157.647L221.186 160.201C221.551 160.475 222.19 160.566 222.555 160.292Z" opacity=".4"/><path fill="#06033E" d="M229.406 156.384L233.876 153.83C234.241 153.648 234.149 153.283 233.784 153.009L229.406 150.455C228.95 150.181 228.402 150.181 228.037 150.363L223.568 152.918C223.203 153.1 223.294 153.465 223.659 153.739L228.037 156.293C228.402 156.567 229.041 156.567 229.406 156.384Z" opacity=".4"/><path fill="#06033E" d="M222.374 152.367L226.844 149.813C227.209 149.631 227.118 149.266 226.753 148.992L225.293 148.171C224.837 147.898 224.29 147.898 223.925 148.08L219.455 150.634C219.09 150.817 219.181 151.182 219.546 151.455L221.006 152.276C221.371 152.55 222.009 152.55 222.374 152.367Z" opacity=".4"/><path fill="#06033E" d="M213.435 157.477L217.905 154.923C218.27 154.74 218.179 154.375 217.814 154.102L216.354 153.281C215.898 153.007 215.351 153.007 214.986 153.19L210.516 155.744C210.151 155.926 210.243 156.291 210.608 156.565L212.067 157.386C212.432 157.659 213.07 157.659 213.435 157.477Z" opacity=".4"/><path fill="#06033E" d="M206.599 161.381L211.069 158.827C211.434 158.645 211.343 158.28 210.978 158.006L209.518 157.185C209.062 156.912 208.515 156.912 208.15 157.094L203.68 159.648C203.315 159.831 203.407 160.195 203.772 160.469L205.231 161.29C205.596 161.564 206.234 161.564 206.599 161.381Z" opacity=".4"/><path fill="#06033E" d="M199.853 165.348L204.323 162.794C204.688 162.612 204.597 162.247 204.232 161.973L202.772 161.152C202.316 160.878 201.769 160.878 201.404 161.061L196.935 163.615C196.57 163.797 196.661 164.162 197.026 164.436L198.485 165.257C198.85 165.531 199.489 165.622 199.853 165.348Z" opacity=".4"/><path fill="#06033E" d="M193.018 169.256L197.487 166.702C197.852 166.52 197.761 166.155 197.396 165.881L195.937 165.06C195.481 164.787 194.933 164.787 194.568 164.969L190.099 167.523C189.734 167.705 189.825 168.07 190.19 168.344L191.649 169.165C192.014 169.439 192.653 169.53 193.018 169.256Z" opacity=".4"/><path fill="#06033E" d="M154.962 191.248L159.431 188.694C159.796 188.512 159.705 188.147 159.34 187.873L157.881 187.052C157.424 186.779 156.877 186.779 156.512 186.961L152.043 189.515C151.678 189.697 151.769 190.062 152.134 190.336L153.593 191.157C154.049 191.43 154.597 191.43 154.962 191.248Z" opacity=".4"/><path fill="#06033E" d="M148.215 195.157L152.685 192.603C153.05 192.42 152.959 192.055 152.594 191.782L151.134 190.961C150.678 190.687 150.131 190.687 149.766 190.869L145.296 193.424C144.932 193.606 145.023 193.971 145.388 194.245L146.847 195.066C147.212 195.34 147.851 195.34 148.215 195.157Z" opacity=".4"/><path fill="#06033E" d="M141.365 199.122L145.835 196.568C146.199 196.385 146.108 196.02 145.743 195.746L144.284 194.925C143.828 194.652 143.28 194.652 142.916 194.834L138.446 197.389C138.081 197.571 138.172 197.936 138.537 198.21L139.997 199.031C140.361 199.304 141 199.304 141.365 199.122Z" opacity=".4"/><path fill="#06033E" d="M134.529 202.969L138.999 200.415C139.364 200.233 139.272 199.868 138.907 199.594L137.448 198.773C136.992 198.499 136.445 198.499 136.08 198.682L131.61 201.236C131.245 201.419 131.336 201.783 131.701 202.057L133.161 202.878C133.617 203.152 134.255 203.152 134.529 202.969Z" opacity=".4"/><path fill="#06033E" d="M202.032 172.13L206.502 169.576C206.867 169.393 206.776 169.029 206.411 168.755L202.032 166.201C201.576 165.927 201.029 165.927 200.664 166.11L196.194 168.664C195.829 168.846 195.92 169.211 196.285 169.485L200.664 172.039C201.029 172.312 201.667 172.404 202.032 172.13Z" opacity=".4"/><path fill="#06033E" d="M195.106 176.214L199.576 173.66C199.941 173.478 199.849 173.113 199.485 172.839L195.106 170.285C194.65 170.011 194.102 170.011 193.737 170.194L189.267 172.748C188.902 172.93 188.994 173.295 189.359 173.569L193.737 176.123C194.102 176.397 194.741 176.397 195.106 176.214Z" opacity=".4"/><path fill="#06033E" d="M188.254 180.123L192.724 177.568C193.089 177.386 192.998 177.021 192.633 176.747L188.254 174.193C187.798 173.919 187.251 173.919 186.886 174.102L182.416 176.656C182.051 176.839 182.143 177.203 182.507 177.477L186.886 180.031C187.251 180.305 187.89 180.396 188.254 180.123Z" opacity=".4"/><path fill="#06033E" d="M181.419 184.089L185.889 181.535C186.254 181.353 186.162 180.988 185.798 180.714L181.419 178.16C180.962 177.886 180.415 177.886 180.05 178.069L175.58 180.623C175.215 180.805 175.306 181.17 175.671 181.444L180.05 183.998C180.415 184.272 181.054 184.272 181.419 184.089Z" opacity=".4"/><path fill="#06033E" d="M174.492 188.056L178.962 185.502C179.327 185.319 179.236 184.954 178.871 184.681L174.492 182.127C174.036 181.853 173.489 181.853 173.124 182.035L168.654 184.59C168.289 184.772 168.38 185.137 168.745 185.411L173.124 187.965C173.58 188.239 174.127 188.33 174.492 188.056Z" opacity=".4"/><path fill="#06033E" d="M167.641 192.083L172.111 189.529C172.476 189.346 172.385 188.981 172.02 188.708L167.641 186.154C167.185 185.88 166.638 185.88 166.273 186.063L161.803 188.617C161.438 188.799 161.529 189.164 161.894 189.437L166.273 191.991C166.638 192.265 167.276 192.265 167.641 192.083Z" opacity=".4"/><path fill="#06033E" d="M160.806 195.987L165.276 193.433C165.64 193.251 165.549 192.886 165.184 192.612L160.806 190.058C160.349 189.785 159.802 189.785 159.437 189.967L154.967 192.521C154.602 192.703 154.694 193.068 155.059 193.342L159.437 195.896C159.802 196.17 160.441 196.261 160.806 195.987Z" opacity=".4"/><path fill="#06033E" d="M153.88 199.952L158.35 197.398C158.715 197.216 158.623 196.851 158.259 196.577L153.88 194.023C153.424 193.749 152.877 193.749 152.512 193.932L148.042 196.486C147.677 196.668 147.768 197.033 148.133 197.307L152.512 199.861C152.968 200.135 153.515 200.135 153.88 199.952Z" opacity=".4"/><path fill="#06033E" d="M147.028 203.921L151.498 201.367C151.863 201.184 151.772 200.82 151.407 200.546L147.028 197.992C146.572 197.718 146.025 197.718 145.66 197.901L141.19 200.455C140.825 200.637 140.917 201.002 141.282 201.276L145.66 203.83C146.025 204.103 146.664 204.103 147.028 203.921Z" opacity=".4"/><path fill="#06033E" d="M241.262 172.7L254.398 165.129C254.763 164.946 254.672 164.581 254.307 164.308L249.928 161.754C249.472 161.48 248.925 161.48 248.56 161.662L235.424 169.234C235.059 169.416 235.151 169.781 235.515 170.055L239.894 172.609C240.259 172.883 240.897 172.883 241.262 172.7Z" opacity=".4"/><path fill="#06033E" d="M156.872 221.38L170.008 213.808C170.373 213.626 170.282 213.261 169.917 212.987L165.538 210.433C165.082 210.16 164.535 210.16 164.17 210.342L151.034 217.913C150.669 218.096 150.76 218.461 151.125 218.734L155.504 221.289C155.868 221.562 156.507 221.562 156.872 221.38Z" opacity=".4"/><path fill="#06033E" d="M184.349 214.292L188.819 211.737C189.183 211.555 189.092 211.19 188.727 210.916L183.437 207.906C182.98 207.632 182.433 207.632 182.068 207.815L177.599 210.369C177.234 210.551 177.325 210.916 177.69 211.19L182.98 214.2C183.345 214.474 183.984 214.474 184.349 214.292Z" opacity=".4"/><path fill="#06033E" d="M234.242 185.497L241.358 181.392C241.722 181.209 241.631 180.844 241.266 180.571L235.976 177.56C235.519 177.286 234.972 177.287 234.607 177.469L227.492 181.574C227.127 181.756 227.218 182.121 227.583 182.395L232.874 185.405C233.239 185.679 233.877 185.77 234.242 185.497Z" opacity=".4"/><path fill="#06033E" d="M191.003 210.495L198.118 206.39C198.483 206.207 198.392 205.842 198.027 205.569L192.736 202.558C192.28 202.285 191.733 202.285 191.368 202.467L184.252 206.572C183.887 206.754 183.979 207.119 184.344 207.393L189.634 210.403C189.999 210.677 190.638 210.677 191.003 210.495Z" opacity=".4"/><path fill="#06033E" d="M224.296 191.204L231.411 187.099C231.776 186.916 231.685 186.551 231.32 186.278L226.029 183.267C225.573 182.994 225.026 182.994 224.661 183.176L217.546 187.281C217.181 187.464 217.273 187.828 217.637 188.102L222.928 191.113C223.384 191.386 223.931 191.386 224.296 191.204Z" opacity=".4"/><path fill="#06033E" d="M224.668 183.291L193.745 201.17C193.38 201.353 193.38 201.718 193.745 201.991L199.127 205.093C199.491 205.275 200.13 205.275 200.495 205.093L231.418 187.122L224.668 183.291Z" opacity=".4"/><path fill="#06033E" d="M165.182 221.518L160.256 224.346C159.982 224.528 159.982 224.802 160.347 224.984L162.536 226.261C162.901 226.444 163.357 226.444 163.722 226.352L168.648 223.525C168.922 223.342 168.922 223.068 168.557 222.886L166.368 221.609C165.912 221.335 165.455 221.335 165.182 221.518Z" opacity=".4"/><path fill="#06033E" d="M172.123 217.492L167.197 220.32C166.924 220.503 166.924 220.776 167.289 220.959L169.478 222.236C169.843 222.418 170.299 222.418 170.663 222.327L175.589 219.499C175.863 219.317 175.863 219.043 175.498 218.861L173.309 217.584C172.853 217.31 172.397 217.31 172.123 217.492Z" opacity=".4"/><path fill="#06033E" d="M178.959 213.526L174.033 216.354C173.759 216.536 173.759 216.81 174.124 216.992L176.313 218.27C176.678 218.452 177.134 218.452 177.499 218.361L182.425 215.533C182.699 215.35 182.699 215.077 182.334 214.894L180.145 213.617C179.78 213.343 179.232 213.343 178.959 213.526Z" opacity=".4"/><path fill="#06033E" d="M168.292 215.326L163.366 218.154C163.092 218.336 163.092 218.61 163.457 218.792L165.646 220.069C166.011 220.252 166.467 220.252 166.832 220.161L171.758 217.333C172.032 217.151 172.032 216.877 171.667 216.695L169.477 215.418C169.113 215.144 168.565 215.144 168.292 215.326Z" opacity=".4"/></g><g opacity=".4"><path fill="#06033E" d="M257.5 172.106L261.97 169.552C262.335 169.369 262.244 169.004 261.879 168.731L256.588 165.72C256.132 165.447 255.585 165.447 255.22 165.629L250.75 168.183C250.385 168.366 250.476 168.731 250.841 169.004L256.132 172.015C256.497 172.288 257.136 172.288 257.5 172.106Z" opacity=".4"/><path fill="#06033E" d="M250.664 176.071L255.134 173.517C255.499 173.334 255.408 172.969 255.043 172.696L249.752 169.685C249.296 169.412 248.749 169.411 248.384 169.594L243.914 172.148C243.549 172.331 243.64 172.696 244.005 172.969L249.296 175.98C249.661 176.162 250.3 176.254 250.664 176.071Z" opacity=".4"/><path fill="#06033E" d="M243.724 179.979L248.193 177.425C248.558 177.242 248.467 176.877 248.102 176.604L242.812 173.593C242.356 173.32 241.808 173.32 241.443 173.502L236.974 176.056C236.609 176.239 236.7 176.604 237.065 176.877L242.356 179.888C242.812 180.161 243.45 180.161 243.724 179.979Z" opacity=".4"/><path fill="#06033E" d="M234.243 176.697L238.713 174.142C239.078 173.96 238.987 173.595 238.622 173.321L234.243 170.767C233.787 170.494 233.24 170.494 232.875 170.676L228.405 173.23C228.04 173.413 228.131 173.778 228.496 174.051L232.875 176.605C233.331 176.879 233.878 176.879 234.243 176.697Z" opacity=".4"/><path fill="#06033E" d="M227.392 180.783L231.862 178.228C232.227 178.046 232.136 177.681 231.771 177.407L227.392 174.853C226.936 174.579 226.389 174.579 226.024 174.762L221.554 177.316C221.189 177.499 221.28 177.863 221.645 178.137L226.024 180.691C226.389 180.965 227.027 180.965 227.392 180.783Z" opacity=".4"/><path fill="#06033E" d="M220.556 184.63L225.026 182.076C225.391 181.893 225.3 181.529 224.935 181.255L220.556 178.701C220.1 178.427 219.553 178.427 219.188 178.61L214.718 181.164C214.353 181.346 214.445 181.711 214.809 181.985L219.188 184.539C219.553 184.812 220.191 184.812 220.556 184.63Z" opacity=".4"/><path fill="#06033E" d="M213.631 188.658L218.1 186.104C218.465 185.921 218.374 185.556 218.009 185.282L213.631 182.728C213.174 182.454 212.627 182.454 212.262 182.637L207.793 185.191C207.428 185.374 207.519 185.739 207.884 186.012L212.262 188.567C212.718 188.749 213.266 188.84 213.631 188.658Z" opacity=".4"/><path fill="#06033E" d="M206.779 192.624L211.249 190.07C211.614 189.887 211.523 189.523 211.158 189.249L206.779 186.695C206.323 186.421 205.776 186.421 205.411 186.604L200.941 189.158C200.577 189.34 200.668 189.705 201.033 189.979L205.411 192.533C205.776 192.806 206.415 192.806 206.779 192.624Z" opacity=".4"/><path fill="#06033E" d="M199.943 196.526L204.413 193.972C204.778 193.79 204.686 193.425 204.322 193.151L199.943 190.597C199.487 190.324 198.94 190.324 198.575 190.506L194.105 193.06C193.74 193.243 193.831 193.607 194.196 193.881L198.575 196.435C198.94 196.709 199.578 196.8 199.943 196.526Z" opacity=".4"/><path fill="#06033E" d="M193.018 200.494L197.487 197.939C197.852 197.757 197.761 197.392 197.396 197.118L193.018 194.564C192.561 194.29 192.014 194.29 191.649 194.473L187.179 197.027C186.814 197.21 186.906 197.574 187.27 197.848L191.649 200.402C192.105 200.676 192.744 200.676 193.018 200.494Z" opacity=".4"/><path fill="#06033E" d="M186.167 204.461L190.636 201.906C191.001 201.724 190.91 201.359 190.545 201.085L186.167 198.531C185.711 198.257 185.163 198.257 184.799 198.44L180.329 200.994C179.964 201.177 180.055 201.541 180.42 201.815L184.799 204.37C185.163 204.643 185.802 204.735 186.167 204.461Z" opacity=".4"/><path fill="#06033E" d="M179.33 208.487L183.8 205.933C184.165 205.751 184.074 205.386 183.709 205.112L179.33 202.558C178.874 202.285 178.327 202.285 177.962 202.467L173.492 205.021C173.127 205.203 173.219 205.568 173.583 205.842L177.962 208.396C178.327 208.67 178.966 208.67 179.33 208.487Z" opacity=".4"/><path fill="#06033E" d="M172.495 212.394L176.964 209.839C177.329 209.657 177.238 209.292 176.873 209.019L172.495 206.464C172.039 206.191 171.491 206.191 171.126 206.373L166.657 208.927C166.292 209.11 166.383 209.475 166.748 209.748L171.126 212.302C171.491 212.576 172.13 212.667 172.495 212.394Z" opacity=".4"/><path fill="#06033E" d="M224.117 174.892L228.587 172.338C228.952 172.155 228.861 171.79 228.496 171.517L224.117 168.963C223.661 168.689 223.114 168.689 222.749 168.871L218.279 171.425C217.914 171.608 218.006 171.973 218.371 172.246L222.749 174.801C223.205 174.983 223.752 175.074 224.117 174.892Z" opacity=".4"/><path fill="#06033E" d="M231.134 170.747L235.603 168.193C235.968 168.011 235.877 167.646 235.512 167.372L231.134 164.818C230.677 164.544 230.13 164.544 229.765 164.727L225.296 167.281C224.931 167.463 225.022 167.828 225.387 168.102L229.765 170.656C230.13 170.93 230.769 171.021 231.134 170.747Z" opacity=".4"/><path fill="#06033E" d="M238.074 166.787L247.652 161.222C248.017 161.04 247.926 160.675 247.561 160.401L243.183 157.847C242.727 157.574 242.179 157.574 241.814 157.756L232.236 163.32C231.871 163.503 231.963 163.868 232.328 164.141L236.706 166.696C237.162 166.969 237.71 166.969 238.074 166.787Z" opacity=".4"/><path fill="#06033E" d="M233.243 161.845L240.997 157.375C241.362 157.192 241.27 156.827 240.905 156.554L236.527 154C236.071 153.726 235.523 153.726 235.159 153.908L227.405 158.378C227.04 158.561 227.131 158.926 227.496 159.199L231.875 161.753C232.24 162.027 232.878 162.118 233.243 161.845Z" opacity=".4"/><path fill="#06033E" d="M217.281 178.861L221.751 176.307C222.116 176.124 222.025 175.759 221.66 175.486L217.281 172.931C216.825 172.658 216.278 172.658 215.913 172.84L211.443 175.394C211.078 175.577 211.169 175.942 211.534 176.215L215.913 178.77C216.278 179.043 216.916 179.043 217.281 178.861Z" opacity=".4"/><path fill="#06033E" d="M210.43 182.708L214.9 180.154C215.265 179.971 215.174 179.607 214.809 179.333L210.43 176.779C209.974 176.505 209.427 176.505 209.062 176.688L204.592 179.242C204.227 179.424 204.318 179.789 204.683 180.063L209.062 182.617C209.427 182.89 210.065 182.982 210.43 182.708Z" opacity=".4"/><path fill="#06033E" d="M203.504 186.734L207.974 184.18C208.339 183.997 208.247 183.632 207.883 183.359L203.504 180.804C203.048 180.531 202.501 180.531 202.136 180.713L197.666 183.267C197.301 183.45 197.392 183.815 197.757 184.088L202.136 186.643C202.592 186.916 203.23 186.916 203.504 186.734Z" opacity=".4"/><path fill="#06033E" d="M196.668 190.698L201.138 188.144C201.503 187.962 201.411 187.597 201.047 187.323L196.668 184.769C196.212 184.495 195.665 184.495 195.3 184.678L190.831 187.232C190.466 187.414 190.557 187.779 190.922 188.053L195.3 190.607C195.665 190.881 196.303 190.972 196.668 190.698Z" opacity=".4"/><path fill="#06033E" d="M189.817 194.665L194.287 192.111C194.652 191.929 194.561 191.564 194.196 191.29L189.817 188.736C189.361 188.462 188.814 188.462 188.449 188.645L183.979 191.199C183.614 191.381 183.705 191.746 184.07 192.02L188.449 194.574C188.814 194.848 189.452 194.848 189.817 194.665Z" opacity=".4"/><path fill="#06033E" d="M182.981 198.571L187.451 196.017C187.816 195.835 187.724 195.47 187.36 195.196L182.981 192.642C182.525 192.369 181.978 192.369 181.613 192.551L177.144 195.105C176.779 195.288 176.87 195.652 177.235 195.926L181.613 198.48C181.978 198.754 182.616 198.845 182.981 198.571Z" opacity=".4"/><path fill="#06033E" d="M176.04 202.66L180.51 200.105C180.875 199.923 180.784 199.558 180.419 199.284L176.04 196.73C175.584 196.456 175.036 196.456 174.671 196.639L170.201 199.193C169.837 199.376 169.928 199.74 170.293 200.014L174.671 202.568C175.036 202.842 175.675 202.842 176.04 202.66Z" opacity=".4"/><path fill="#06033E" d="M169.19 206.566L173.659 204.011C174.024 203.829 173.933 203.464 173.568 203.19L169.19 200.636C168.734 200.363 168.186 200.363 167.821 200.545L163.352 203.099C162.987 203.282 163.078 203.647 163.443 203.92L167.821 206.474C168.186 206.748 168.825 206.839 169.19 206.566Z" opacity=".4"/><path fill="#06033E" d="M162.354 210.531L166.823 207.976C167.188 207.794 167.097 207.429 166.732 207.155L162.354 204.601C161.898 204.328 161.35 204.328 160.985 204.51L156.516 207.064C156.151 207.247 156.242 207.612 156.607 207.885L160.985 210.439C161.35 210.713 161.989 210.713 162.354 210.531Z" opacity=".4"/><path fill="#06033E" d="M150.138 217.569L159.807 212.004C160.172 211.821 160.08 211.457 159.716 211.183L155.337 208.629C154.881 208.355 154.334 208.355 153.969 208.537L144.299 214.102C143.935 214.285 144.026 214.65 144.391 214.923L148.769 217.478C149.134 217.751 149.773 217.751 150.138 217.569Z" opacity=".4"/><path fill="#06033E" d="M136.723 209.837L144.933 205.094C145.298 204.911 145.206 204.546 144.842 204.273L140.463 201.718C140.007 201.445 139.46 201.445 139.095 201.627L130.885 206.371C130.52 206.553 130.611 206.918 130.976 207.192L135.355 209.746C135.72 210.02 136.358 210.111 136.723 209.837Z" opacity=".4"/><path fill="#06033E" d="M205.232 178.019L209.702 175.465C210.067 175.282 209.975 174.917 209.611 174.644L205.232 172.089C204.776 171.816 204.228 171.816 203.863 171.998L199.393 174.552C199.028 174.735 199.12 175.1 199.485 175.373L203.863 177.928C204.228 178.201 204.867 178.293 205.232 178.019Z" opacity=".4"/><path fill="#06033E" d="M212.263 173.994L216.733 171.439C217.098 171.257 217.007 170.892 216.642 170.618L212.263 168.064C211.807 167.79 211.26 167.79 210.895 167.973L206.425 170.527C206.06 170.71 206.151 171.074 206.516 171.348L210.895 173.902C211.351 174.176 211.898 174.176 212.263 173.994Z" opacity=".4"/><path fill="#06033E" d="M219.37 169.845L223.839 167.291C224.204 167.108 224.113 166.743 223.748 166.47L219.37 163.916C218.914 163.642 218.366 163.642 218.001 163.824L213.532 166.379C213.167 166.561 213.258 166.926 213.623 167.199L218.001 169.754C218.366 170.027 219.005 170.118 219.37 169.845Z" opacity=".4"/><path fill="#06033E" d="M226.401 165.88L230.871 163.326C231.236 163.144 231.144 162.779 230.78 162.505L226.401 159.951C225.945 159.677 225.398 159.677 225.033 159.86L220.563 162.414C220.198 162.596 220.289 162.961 220.654 163.235L225.033 165.789C225.398 166.063 226.036 166.063 226.401 165.88Z" opacity=".4"/><path fill="#06033E" d="M198.381 182.046L202.851 179.492C203.216 179.31 203.124 178.945 202.76 178.671L198.381 176.117C197.925 175.843 197.377 175.843 197.013 176.026L192.543 178.58C192.178 178.762 192.269 179.127 192.634 179.401L197.013 181.955C197.377 182.229 198.016 182.229 198.381 182.046Z" opacity=".4"/><path fill="#06033E" d="M191.545 185.952L196.015 183.398C196.38 183.216 196.288 182.851 195.924 182.577L191.545 180.023C191.089 179.749 190.541 179.749 190.176 179.932L185.706 182.486C185.341 182.668 185.433 183.033 185.798 183.307L190.176 185.861C190.541 186.135 191.18 186.226 191.545 185.952Z" opacity=".4"/><path fill="#06033E" d="M184.619 189.917L189.089 187.363C189.453 187.181 189.362 186.816 188.997 186.542L184.619 183.988C184.163 183.714 183.615 183.714 183.251 183.897L178.781 186.451C178.416 186.633 178.507 186.998 178.872 187.272L183.251 189.826C183.615 190.1 184.254 190.1 184.619 189.917Z" opacity=".4"/><path fill="#06033E" d="M177.768 193.884L182.238 191.33C182.603 191.147 182.512 190.782 182.147 190.509L177.768 187.955C177.312 187.681 176.764 187.681 176.4 187.863L171.929 190.418C171.565 190.6 171.656 190.965 172.021 191.239L176.4 193.793C176.764 194.066 177.403 194.158 177.768 193.884Z" opacity=".4"/><path fill="#06033E" d="M170.932 197.912L175.402 195.357C175.766 195.175 175.675 194.81 175.31 194.536L170.932 191.982C170.476 191.708 169.928 191.708 169.563 191.891L165.094 194.445C164.729 194.628 164.82 194.992 165.185 195.266L169.563 197.82C169.928 198.094 170.567 198.094 170.932 197.912Z" opacity=".4"/><path fill="#06033E" d="M164.006 201.757L168.476 199.203C168.841 199.02 168.749 198.656 168.385 198.382L164.006 195.828C163.55 195.554 163.003 195.554 162.638 195.737L158.168 198.291C157.803 198.473 157.894 198.838 158.259 199.112L162.638 201.666C163.094 201.939 163.641 202.031 164.006 201.757Z" opacity=".4"/><path fill="#06033E" d="M157.155 205.843L161.625 203.289C161.99 203.106 161.898 202.742 161.533 202.468L157.155 199.914C156.699 199.64 156.151 199.64 155.786 199.822L151.317 202.377C150.952 202.559 151.043 202.924 151.408 203.198L155.786 205.752C156.151 206.026 156.79 206.026 157.155 205.843Z" opacity=".4"/><path fill="#06033E" d="M150.319 209.749L154.789 207.195C155.154 207.013 155.062 206.648 154.697 206.374L150.319 203.82C149.863 203.546 149.315 203.546 148.95 203.729L144.481 206.283C144.116 206.465 144.207 206.83 144.572 207.104L148.95 209.658C149.315 209.932 149.954 210.023 150.319 209.749Z" opacity=".4"/><path fill="#06033E" d="M143.393 213.777L147.862 211.223C148.227 211.04 148.136 210.675 147.771 210.402L143.393 207.847C142.937 207.574 142.389 207.574 142.024 207.756L137.555 210.31C137.19 210.493 137.281 210.858 137.646 211.131L142.024 213.686C142.481 213.959 143.119 213.959 143.393 213.777Z" opacity=".4"/><path fill="#06033E" d="M208.868 168.223L213.338 165.669C213.702 165.487 213.611 165.122 213.246 164.848L208.868 162.295C208.412 162.021 207.864 162.021 207.499 162.203L203.03 164.757C202.665 164.94 202.756 165.304 203.121 165.578L207.499 168.132C207.864 168.406 208.503 168.406 208.868 168.223Z" opacity=".4"/><path fill="#06033E" d="M215.718 164.316L220.188 161.762C220.553 161.579 220.462 161.214 220.097 160.941L215.718 158.386C215.262 158.113 214.715 158.113 214.35 158.295L209.88 160.849C209.515 161.032 209.606 161.397 209.971 161.67L214.35 164.225C214.715 164.498 215.353 164.498 215.718 164.316Z" opacity=".4"/><path fill="#06033E" d="M222.555 160.292L227.025 157.738C227.389 157.556 227.298 157.191 226.933 156.917L222.555 154.363C222.099 154.089 221.551 154.089 221.186 154.272L216.717 156.826C216.352 157.008 216.443 157.373 216.808 157.647L221.186 160.201C221.551 160.475 222.19 160.566 222.555 160.292Z" opacity=".4"/><path fill="#06033E" d="M229.406 156.384L233.876 153.83C234.241 153.648 234.149 153.283 233.784 153.009L229.406 150.455C228.95 150.181 228.402 150.181 228.037 150.363L223.568 152.918C223.203 153.1 223.294 153.465 223.659 153.739L228.037 156.293C228.402 156.567 229.041 156.567 229.406 156.384Z" opacity=".4"/><path fill="#06033E" d="M222.374 152.367L226.844 149.813C227.209 149.631 227.118 149.266 226.753 148.992L225.293 148.171C224.837 147.898 224.29 147.898 223.925 148.08L219.455 150.634C219.09 150.817 219.181 151.182 219.546 151.455L221.006 152.276C221.371 152.55 222.009 152.55 222.374 152.367Z" opacity=".4"/><path fill="#06033E" d="M213.435 157.477L217.905 154.923C218.27 154.74 218.179 154.375 217.814 154.102L216.354 153.281C215.898 153.007 215.351 153.007 214.986 153.19L210.516 155.744C210.151 155.926 210.243 156.291 210.608 156.565L212.067 157.386C212.432 157.659 213.07 157.659 213.435 157.477Z" opacity=".4"/><path fill="#06033E" d="M206.599 161.381L211.069 158.827C211.434 158.645 211.343 158.28 210.978 158.006L209.518 157.185C209.062 156.912 208.515 156.912 208.15 157.094L203.68 159.648C203.315 159.831 203.407 160.195 203.772 160.469L205.231 161.29C205.596 161.564 206.234 161.564 206.599 161.381Z" opacity=".4"/><path fill="#06033E" d="M199.853 165.348L204.323 162.794C204.688 162.612 204.597 162.247 204.232 161.973L202.772 161.152C202.316 160.878 201.769 160.878 201.404 161.061L196.935 163.615C196.57 163.797 196.661 164.162 197.026 164.436L198.485 165.257C198.85 165.531 199.489 165.622 199.853 165.348Z" opacity=".4"/><path fill="#06033E" d="M193.018 169.256L197.487 166.702C197.852 166.52 197.761 166.155 197.396 165.881L195.937 165.06C195.481 164.787 194.933 164.787 194.568 164.969L190.099 167.523C189.734 167.705 189.825 168.07 190.19 168.344L191.649 169.165C192.014 169.439 192.653 169.53 193.018 169.256Z" opacity=".4"/><path fill="#06033E" d="M154.962 191.248L159.431 188.694C159.796 188.512 159.705 188.147 159.34 187.873L157.881 187.052C157.424 186.779 156.877 186.779 156.512 186.961L152.043 189.515C151.678 189.697 151.769 190.062 152.134 190.336L153.593 191.157C154.049 191.43 154.597 191.43 154.962 191.248Z" opacity=".4"/><path fill="#06033E" d="M148.215 195.157L152.685 192.603C153.05 192.42 152.959 192.055 152.594 191.782L151.134 190.961C150.678 190.687 150.131 190.687 149.766 190.869L145.296 193.424C144.932 193.606 145.023 193.971 145.388 194.245L146.847 195.066C147.212 195.34 147.851 195.34 148.215 195.157Z" opacity=".4"/><path fill="#06033E" d="M141.365 199.122L145.835 196.568C146.199 196.385 146.108 196.02 145.743 195.746L144.284 194.925C143.828 194.652 143.28 194.652 142.916 194.834L138.446 197.389C138.081 197.571 138.172 197.936 138.537 198.21L139.997 199.031C140.361 199.304 141 199.304 141.365 199.122Z" opacity=".4"/><path fill="#06033E" d="M134.529 202.969L138.999 200.415C139.364 200.233 139.272 199.868 138.907 199.594L137.448 198.773C136.992 198.499 136.445 198.499 136.08 198.682L131.61 201.236C131.245 201.419 131.336 201.783 131.701 202.057L133.161 202.878C133.617 203.152 134.255 203.152 134.529 202.969Z" opacity=".4"/><path fill="#06033E" d="M202.032 172.13L206.502 169.576C206.867 169.393 206.776 169.029 206.411 168.755L202.032 166.201C201.576 165.927 201.029 165.927 200.664 166.11L196.194 168.664C195.829 168.846 195.92 169.211 196.285 169.485L200.664 172.039C201.029 172.312 201.667 172.404 202.032 172.13Z" opacity=".4"/><path fill="#06033E" d="M195.106 176.214L199.576 173.66C199.941 173.478 199.849 173.113 199.485 172.839L195.106 170.285C194.65 170.011 194.102 170.011 193.737 170.194L189.267 172.748C188.902 172.93 188.994 173.295 189.359 173.569L193.737 176.123C194.102 176.397 194.741 176.397 195.106 176.214Z" opacity=".4"/><path fill="#06033E" d="M188.254 180.123L192.724 177.568C193.089 177.386 192.998 177.021 192.633 176.747L188.254 174.193C187.798 173.919 187.251 173.919 186.886 174.102L182.416 176.656C182.051 176.839 182.143 177.203 182.507 177.477L186.886 180.031C187.251 180.305 187.89 180.396 188.254 180.123Z" opacity=".4"/><path fill="#06033E" d="M181.419 184.089L185.889 181.535C186.254 181.353 186.162 180.988 185.798 180.714L181.419 178.16C180.962 177.886 180.415 177.886 180.05 178.069L175.58 180.623C175.215 180.805 175.306 181.17 175.671 181.444L180.05 183.998C180.415 184.272 181.054 184.272 181.419 184.089Z" opacity=".4"/><path fill="#06033E" d="M174.492 188.056L178.962 185.502C179.327 185.319 179.236 184.954 178.871 184.681L174.492 182.127C174.036 181.853 173.489 181.853 173.124 182.035L168.654 184.59C168.289 184.772 168.38 185.137 168.745 185.411L173.124 187.965C173.58 188.239 174.127 188.33 174.492 188.056Z" opacity=".4"/><path fill="#06033E" d="M167.641 192.083L172.111 189.529C172.476 189.346 172.385 188.981 172.02 188.708L167.641 186.154C167.185 185.88 166.638 185.88 166.273 186.063L161.803 188.617C161.438 188.799 161.529 189.164 161.894 189.437L166.273 191.991C166.638 192.265 167.276 192.265 167.641 192.083Z" opacity=".4"/><path fill="#06033E" d="M160.806 195.987L165.276 193.433C165.64 193.251 165.549 192.886 165.184 192.612L160.806 190.058C160.349 189.785 159.802 189.785 159.437 189.967L154.967 192.521C154.602 192.703 154.694 193.068 155.059 193.342L159.437 195.896C159.802 196.17 160.441 196.261 160.806 195.987Z" opacity=".4"/><path fill="#06033E" d="M153.88 199.952L158.35 197.398C158.715 197.216 158.623 196.851 158.259 196.577L153.88 194.023C153.424 193.749 152.877 193.749 152.512 193.932L148.042 196.486C147.677 196.668 147.768 197.033 148.133 197.307L152.512 199.861C152.968 200.135 153.515 200.135 153.88 199.952Z" opacity=".4"/><path fill="#06033E" d="M147.028 203.921L151.498 201.367C151.863 201.184 151.772 200.82 151.407 200.546L147.028 197.992C146.572 197.718 146.025 197.718 145.66 197.901L141.19 200.455C140.825 200.637 140.917 201.002 141.282 201.276L145.66 203.83C146.025 204.103 146.664 204.103 147.028 203.921Z" opacity=".4"/><path fill="#06033E" d="M241.262 172.7L254.398 165.129C254.763 164.946 254.672 164.581 254.307 164.308L249.928 161.754C249.472 161.48 248.925 161.48 248.56 161.662L235.424 169.234C235.059 169.416 235.151 169.781 235.515 170.055L239.894 172.609C240.259 172.883 240.897 172.883 241.262 172.7Z" opacity=".4"/><path fill="#06033E" d="M156.872 221.38L170.008 213.808C170.373 213.626 170.282 213.261 169.917 212.987L165.538 210.433C165.082 210.16 164.535 210.16 164.17 210.342L151.034 217.913C150.669 218.096 150.76 218.461 151.125 218.734L155.504 221.289C155.868 221.562 156.507 221.562 156.872 221.38Z" opacity=".4"/><path fill="#06033E" d="M184.349 214.292L188.819 211.737C189.183 211.555 189.092 211.19 188.727 210.916L183.437 207.906C182.98 207.632 182.433 207.632 182.068 207.815L177.599 210.369C177.234 210.551 177.325 210.916 177.69 211.19L182.98 214.2C183.345 214.474 183.984 214.474 184.349 214.292Z" opacity=".4"/><path fill="#06033E" d="M234.242 185.497L241.358 181.392C241.722 181.209 241.631 180.844 241.266 180.571L235.976 177.56C235.519 177.286 234.972 177.287 234.607 177.469L227.492 181.574C227.127 181.756 227.218 182.121 227.583 182.395L232.874 185.405C233.239 185.679 233.877 185.77 234.242 185.497Z" opacity=".4"/><path fill="#06033E" d="M191.003 210.495L198.118 206.39C198.483 206.207 198.392 205.842 198.027 205.569L192.736 202.558C192.28 202.285 191.733 202.285 191.368 202.467L184.252 206.572C183.887 206.754 183.979 207.119 184.344 207.393L189.634 210.403C189.999 210.677 190.638 210.677 191.003 210.495Z" opacity=".4"/><path fill="#06033E" d="M224.296 191.204L231.411 187.099C231.776 186.916 231.685 186.551 231.32 186.278L226.029 183.267C225.573 182.994 225.026 182.994 224.661 183.176L217.546 187.281C217.181 187.464 217.273 187.828 217.637 188.102L222.928 191.113C223.384 191.386 223.931 191.386 224.296 191.204Z" opacity=".4"/><path fill="#06033E" d="M224.668 183.291L193.745 201.17C193.38 201.353 193.38 201.718 193.745 201.991L199.127 205.093C199.491 205.275 200.13 205.275 200.495 205.093L231.418 187.122L224.668 183.291Z" opacity=".4"/><path fill="#06033E" d="M165.182 221.518L160.256 224.346C159.982 224.528 159.982 224.802 160.347 224.984L162.536 226.261C162.901 226.444 163.357 226.444 163.722 226.352L168.648 223.525C168.922 223.342 168.922 223.068 168.557 222.886L166.368 221.609C165.912 221.335 165.455 221.335 165.182 221.518Z" opacity=".4"/><path fill="#06033E" d="M172.123 217.492L167.197 220.32C166.924 220.503 166.924 220.776 167.289 220.959L169.478 222.236C169.843 222.418 170.299 222.418 170.663 222.327L175.589 219.499C175.863 219.317 175.863 219.043 175.498 218.861L173.309 217.584C172.853 217.31 172.397 217.31 172.123 217.492Z" opacity=".4"/><path fill="#06033E" d="M178.959 213.526L174.033 216.354C173.759 216.536 173.759 216.81 174.124 216.992L176.313 218.27C176.678 218.452 177.134 218.452 177.499 218.361L182.425 215.533C182.699 215.35 182.699 215.077 182.334 214.894L180.145 213.617C179.78 213.343 179.232 213.343 178.959 213.526Z" opacity=".4"/><path fill="#06033E" d="M168.292 215.326L163.366 218.154C163.092 218.336 163.092 218.61 163.457 218.792L165.646 220.069C166.011 220.252 166.467 220.252 166.832 220.161L171.758 217.333C172.032 217.151 172.032 216.877 171.667 216.695L169.477 215.418C169.113 215.144 168.565 215.144 168.292 215.326Z" opacity=".4"/></g><path fill="url(#paint7_radial)" d="M95.5752 207.345L226.841 131.632C228.939 130.447 229.943 127.527 229.213 125.156L199.566 28.8274C198.837 26.4557 196.556 25.4523 194.458 26.6381L63.192 102.442C61.0939 103.628 60.0905 106.547 60.8203 108.919L90.4669 205.247C91.1966 207.619 93.4771 208.531 95.5752 207.345Z"/><path fill="url(#paint8_linear)" d="M96.8556 203.924L224.107 130.401C226.114 129.306 227.117 126.478 226.388 124.198L198.018 32.0656C197.289 29.7851 195.099 28.8729 193.184 29.9675L65.9321 103.491C63.9253 104.586 62.9218 107.413 63.6516 109.694L92.021 201.826C92.6595 204.107 94.8488 205.11 96.8556 203.924Z"/><path fill="#06033E" d="M96.8556 203.924L224.107 130.401C226.114 129.306 227.117 126.478 226.388 124.198L198.018 32.0656C197.289 29.7851 195.099 28.8729 193.184 29.9675L65.9321 103.491C63.9253 104.586 62.9218 107.413 63.6516 109.694L92.021 201.826C92.6595 204.107 94.8488 205.11 96.8556 203.924Z" opacity=".4"/><path fill="#06033E" d="M96.8556 203.924L224.107 130.401C226.114 129.306 227.117 126.478 226.388 124.198L198.018 32.0656C197.289 29.7851 195.099 28.8729 193.184 29.9675L65.9321 103.491C63.9253 104.586 62.9218 107.413 63.6516 109.694L92.021 201.826C92.6595 204.107 94.8488 205.11 96.8556 203.924Z" opacity=".4"/><path fill="#06033E" d="M103.699 175.798L189.901 126.083C191.27 125.262 191.999 123.438 191.452 121.796L171.931 58.4892C171.475 56.9385 169.924 56.2999 168.647 57.0297L82.4447 106.745C81.0764 107.566 80.3467 109.39 80.894 111.032L100.415 174.339C100.78 175.981 102.331 176.619 103.699 175.798Z" opacity=".5"/><path fill="url(#paint9_radial)" d="M115.282 177.361L201.484 127.646C202.853 126.825 203.582 125 203.035 123.358L183.514 60.0517C183.058 58.501 181.507 57.8624 180.23 58.5922L94.0277 108.307C92.6594 109.128 91.9296 110.953 92.477 112.594L111.998 175.901C112.454 177.543 113.914 178.182 115.282 177.361Z"/><g opacity=".5"><path fill="#06033E" d="M115.282 177.361L201.484 127.646C202.853 126.825 203.582 125 203.035 123.358L183.514 60.0517C183.058 58.501 181.507 57.8624 180.23 58.5922L94.0277 108.307C92.6594 109.128 91.9296 110.953 92.477 112.594L111.998 175.901C112.454 177.543 113.914 178.182 115.282 177.361Z" opacity=".5"/></g><path fill="#fff" d="M94.0298 108.337L180.232 58.6225C181.053 58.1664 181.966 58.1664 182.695 58.7137C182.33 58.7137 181.874 58.8049 181.418 58.9873L95.2157 108.702C93.8474 109.523 93.1176 111.348 93.665 112.99L113.186 176.296C113.368 176.844 113.642 177.3 114.098 177.665C113.186 177.665 112.365 177.026 112 175.931L92.4791 112.625C92.023 111.074 92.7528 109.158 94.0298 108.337Z"/><path fill="#06033E" d="M224.016 229.093C225.201 229.093 226.296 228.82 227.208 228.364L261.689 208.478C262.602 207.93 263.149 207.201 263.149 206.38C263.149 205.376 262.419 204.464 261.233 203.734L243.445 193.518C241.256 192.241 238.063 192.15 236.148 193.244L201.667 213.13C200.754 213.677 200.207 214.407 200.207 215.228C200.207 216.231 200.937 217.144 202.123 217.873L219.911 228.09C221.096 228.728 222.556 229.093 224.016 229.093ZM239.34 193.335C240.618 193.335 241.895 193.609 242.898 194.248L260.686 204.464C261.598 205.011 262.054 205.65 262.054 206.197C262.054 206.836 261.598 207.201 261.142 207.474L226.661 227.451C225.11 228.364 222.191 228.272 220.367 227.178L202.579 216.961C201.667 216.414 201.21 215.775 201.21 215.228C201.21 214.589 201.667 214.225 202.123 213.951L236.604 194.065C237.334 193.518 238.337 193.335 239.34 193.335Z" opacity=".4"/><path fill="#fff" d="M137.328 151.214L132.037 154.315C131.581 154.589 131.307 155.319 131.49 155.866C131.672 156.413 132.219 156.687 132.676 156.322L137.966 153.221C138.422 152.947 138.696 152.217 138.513 151.67C138.331 151.123 137.875 150.94 137.328 151.214Z"/><path fill="#fff" d="M150.007 143.866L142.163 148.427C141.706 148.7 141.433 149.43 141.615 149.977C141.798 150.525 142.345 150.798 142.801 150.433L150.646 145.872C151.102 145.599 151.375 144.869 151.193 144.322C151.102 143.774 150.555 143.592 150.007 143.866Z"/><path fill="#fff" d="M126.57 127.538L121.28 130.639C120.824 130.913 120.55 131.643 120.732 132.19C120.915 132.738 121.462 133.011 121.918 132.646L127.209 129.545C127.665 129.271 127.938 128.541 127.756 127.994C127.665 127.447 127.117 127.264 126.57 127.538Z"/><path fill="#fff" d="M137.883 121.032L130.039 125.593C129.582 125.866 129.309 126.596 129.491 127.143C129.674 127.691 130.221 127.964 130.677 127.599L138.522 123.039C138.978 122.765 139.251 122.035 139.069 121.488C138.978 120.94 138.43 120.667 137.883 121.032Z"/><path fill="#fff" d="M121.378 155.406L118.094 157.321C117.638 157.595 117.364 158.325 117.547 158.872C117.729 159.419 118.277 159.693 118.733 159.328L122.016 157.412C122.472 157.139 122.746 156.409 122.564 155.862C122.381 155.406 121.925 155.132 121.378 155.406Z"/><path fill="#fff" d="M131.405 144.632L121.28 150.47C120.824 150.743 120.55 151.473 120.732 152.02C120.915 152.568 121.462 152.841 121.918 152.476L132.043 146.638C132.499 146.365 132.773 145.635 132.591 145.088C132.408 144.632 131.861 144.358 131.405 144.632Z"/><path fill="#fff" d="M122.009 140.081L118.725 141.997C118.269 142.27 117.995 143 118.178 143.548C118.36 144.095 118.907 144.369 119.364 144.004L122.647 142.088C123.103 141.814 123.377 141.085 123.195 140.537C123.012 140.081 122.556 139.807 122.009 140.081Z"/><path fill="#fff" d="M139.158 110.266L130.309 115.374C129.853 115.648 129.579 116.377 129.762 116.925C129.944 117.472 130.492 117.746 130.948 117.381L139.796 112.272C140.252 111.999 140.526 111.269 140.343 110.722C140.161 110.266 139.614 109.992 139.158 110.266Z"/><path fill="#fff" d="M118.269 132.306L116.171 133.583C115.715 133.856 115.442 134.586 115.624 135.134C115.806 135.681 116.354 135.955 116.81 135.59L118.908 134.313C119.364 134.039 119.638 133.309 119.455 132.762C119.364 132.214 118.817 132.032 118.269 132.306Z"/><path fill="#fff" d="M116.263 123.501L113.618 125.052C113.162 125.325 112.888 126.055 113.07 126.602C113.253 127.15 113.8 127.423 114.256 127.058L116.902 125.508C117.358 125.234 117.631 124.504 117.449 123.957C117.266 123.41 116.81 123.227 116.263 123.501Z"/><path fill="#fff" d="M126.576 117.55L119.552 121.563C119.096 121.837 118.822 122.567 119.004 123.114C119.187 123.661 119.734 123.935 120.19 123.57L127.215 119.557C127.671 119.283 127.944 118.553 127.762 118.006C127.671 117.458 127.123 117.276 126.576 117.55Z"/><path fill="#fff" d="M117.357 117.805L112.34 120.724C111.884 120.997 111.611 121.727 111.793 122.274C111.975 122.822 112.523 123.095 112.979 122.73L117.996 119.811C118.452 119.538 118.725 118.808 118.543 118.261C118.452 117.805 117.904 117.531 117.357 117.805Z"/><path fill="#fff" d="M146.723 105.858L143.53 107.683C143.074 107.956 142.8 108.686 142.983 109.233C143.165 109.781 143.713 110.054 144.169 109.689L147.361 107.865C147.817 107.591 148.091 106.862 147.908 106.314C147.817 105.767 147.27 105.585 146.723 105.858Z"/><path fill="#fff" d="M134.41 132.98L125.562 138.089C125.105 138.362 124.832 139.092 125.014 139.639C125.197 140.187 125.744 140.46 126.2 140.096L135.049 134.987C135.505 134.713 135.779 133.984 135.596 133.436C135.414 132.889 134.866 132.706 134.41 132.98Z"/><path fill="#E8975B" d="M135.405 137.386L119.898 146.325C119.442 146.599 119.168 147.328 119.351 147.876C119.533 148.423 120.08 148.697 120.536 148.332L136.044 139.392C136.5 139.119 136.773 138.389 136.591 137.842C136.5 137.294 135.952 137.112 135.405 137.386Z"/><path fill="#E8975B" d="M126.297 132.744L117.449 137.852C116.993 138.126 116.719 138.856 116.901 139.403C117.084 139.95 117.631 140.224 118.087 139.859L126.935 134.751C127.391 134.477 127.665 133.747 127.483 133.2C127.3 132.653 126.844 132.379 126.297 132.744Z"/><path fill="#E8975B" d="M141.164 129.056L137.972 130.88C137.516 131.154 137.242 131.883 137.424 132.431C137.607 132.978 138.154 133.251 138.61 132.887L141.803 131.062C142.259 130.789 142.532 130.059 142.35 129.512C142.167 129.056 141.62 128.782 141.164 129.056Z"/><path fill="#E8975B" d="M174 130.057L154.844 141.095C154.388 141.368 154.114 142.098 154.296 142.645C154.479 143.193 155.026 143.466 155.482 143.101L174.639 132.064C175.095 131.79 175.368 131.06 175.186 130.513C175.003 129.966 174.456 129.783 174 130.057Z"/><path fill="#F8359E" d="M125.552 123.177L114.879 129.38C114.423 129.653 114.15 130.383 114.332 130.93C114.514 131.478 115.062 131.751 115.518 131.387L126.19 125.184C126.646 124.91 126.92 124.18 126.738 123.633C126.555 123.086 126.008 122.903 125.552 123.177Z"/><path fill="#F8359E" d="M127.201 157.089L119.357 161.649C118.901 161.923 118.627 162.653 118.81 163.2C118.992 163.747 119.539 164.021 119.995 163.656L127.84 159.095C128.296 158.822 128.57 158.092 128.387 157.545C128.205 157.089 127.658 156.815 127.201 157.089Z"/><path fill="#E8975B" d="M115.708 113.809L106.586 119.1C106.13 119.374 105.857 120.104 106.039 120.651C106.222 121.199 106.769 121.472 107.225 121.107L116.347 115.816C116.803 115.543 117.076 114.813 116.894 114.266C116.803 113.809 116.255 113.536 115.708 113.809Z"/><path fill="#fff" d="M161.466 79.1829L157.543 81.4632C157.178 81.6456 156.996 82.1929 157.087 82.5577C157.178 82.9226 157.635 83.105 157.999 82.9226L161.922 80.6423C162.287 80.4599 162.469 79.9126 162.378 79.5478C162.287 79.0917 161.831 79.0005 161.466 79.1829Z"/><path fill="#fff" d="M168.949 74.8544L165.026 77.1349C164.661 77.3173 164.478 77.8647 164.57 78.2296C164.661 78.5944 165.117 78.7769 165.482 78.5944L169.405 76.3139C169.77 76.1315 169.952 75.5841 169.861 75.2193C169.678 74.7631 169.314 74.6719 168.949 74.8544Z"/><path fill="#fff" d="M176.34 70.6474L172.418 72.9279C172.053 73.1103 171.871 73.6576 171.962 74.0225C172.053 74.3874 172.509 74.5699 172.874 74.3874L176.796 72.1069C177.161 71.9244 177.344 71.3771 177.253 71.0122C177.07 70.5561 176.705 70.4649 176.34 70.6474Z"/><path fill="#F8359E" d="M179.99 68.5085L179.899 68.5997C179.534 68.7822 179.352 69.3295 179.443 69.6944C179.534 70.0593 179.99 70.2417 180.355 70.0593L180.446 69.9681C180.811 69.7856 180.994 69.2383 180.902 68.8734C180.811 68.4173 180.355 68.3261 179.99 68.5085Z"/><path fill="url(#paint10_linear)" d="M302.94 159.426C305.403 159.426 307.866 158.787 310.055 157.51L336.144 142.459C337.239 141.82 337.969 140.634 337.969 139.357C337.969 138.08 337.33 136.894 336.144 136.256L310.055 121.205C305.677 118.651 300.204 118.651 295.825 121.205L269.736 136.256C268.641 136.894 267.912 138.08 267.912 139.357C267.912 140.634 268.55 141.82 269.736 142.459L295.825 157.51C298.014 158.787 300.477 159.426 302.94 159.426ZM309.234 156.051C305.403 158.331 300.569 158.331 296.646 156.051L270.557 140.999C269.919 140.634 269.645 139.996 269.645 139.357C269.645 138.628 270.01 138.08 270.557 137.715L296.646 122.664C300.477 120.384 305.312 120.384 309.234 122.664L335.323 137.715C335.962 138.08 336.236 138.719 336.236 139.357C336.236 140.087 335.871 140.634 335.323 140.999L309.234 156.051Z"/><path fill="#020230" d="M303.023 149.94C293.148 149.94 285.144 145.325 285.144 139.632C285.144 133.939 293.148 129.324 303.023 129.324C312.897 129.324 320.902 133.939 320.902 139.632C320.902 145.325 312.897 149.94 303.023 149.94Z" opacity=".6"/><path fill="url(#paint11_radial)" d="M276.489 65.9238H327.572L322.829 121.203C322.829 124.305 320.822 127.315 316.717 129.687C308.598 134.339 295.463 134.339 287.344 129.687C283.33 127.315 281.232 124.305 281.232 121.203L276.489 65.9238Z"/><path fill="#06033E" d="M276.489 65.9238H327.572L326.751 75.0458C325.565 76.5054 324.015 77.9649 322.008 79.3332C312.247 85.7186 296.192 86.9957 285.246 82.3434L286.979 122.754C287.07 124.487 287.618 126.22 288.804 127.589C290.446 129.504 293.638 131.785 299.75 133.153C295.28 132.879 290.902 131.694 287.435 129.687C283.422 127.315 281.323 124.305 281.323 121.203L277.492 76.8702L276.489 65.9238Z" opacity=".4"/><path fill="#06033E" d="M302.031 80.6326C287.924 80.6326 276.489 74.0573 276.489 65.9462C276.489 57.8351 287.924 51.2598 302.031 51.2598C316.137 51.2598 327.572 57.8351 327.572 65.9462C327.572 74.0573 316.137 80.6326 302.031 80.6326Z" opacity=".4"/><path fill="#06033E" d="M302.028 73.4316C289.886 73.4316 280.044 67.7547 280.044 60.7519C280.044 53.7491 289.886 48.0723 302.028 48.0723C314.169 48.0723 324.012 53.7491 324.012 60.7519C324.012 67.7547 314.169 73.4316 302.028 73.4316Z" opacity=".4"/><path fill="url(#paint12_linear)" d="M275.023 65.298C275.023 65.2068 275.023 65.2068 275.023 65.2068L275.479 60.2809V60.3721C275.661 56.6321 278.307 52.892 283.233 50.0642C293.632 44.0437 310.416 44.0437 320.724 50.0642C325.832 52.9833 328.387 56.8145 328.478 60.6458L329.025 64.9331C329.025 65.0243 329.025 65.2068 329.025 65.298V65.3892C329.299 69.5853 326.653 73.8727 321.089 77.0654C310.508 83.1771 293.358 83.1771 282.868 77.0654C277.303 73.7814 274.658 69.4941 275.023 65.298Z"/><path fill="url(#paint13_linear)" d="M302.028 73.4316C289.886 73.4316 280.044 67.7547 280.044 60.7519C280.044 53.7491 289.886 48.0723 302.028 48.0723C314.169 48.0723 324.012 53.7491 324.012 60.7519C324.012 67.7547 314.169 73.4316 302.028 73.4316Z"/><path fill="url(#paint14_linear)" d="M303.019 73.4316C290.878 73.4316 281.035 67.7547 281.035 60.7519C281.035 53.7491 290.878 48.0723 303.019 48.0723C315.16 48.0723 325.003 53.7491 325.003 60.7519C325.003 67.7547 315.16 73.4316 303.019 73.4316Z"/><path fill="#06033E" d="M314.98 53.7448C306.405 48.8189 292.448 48.8189 283.874 53.7448C283.782 53.836 283.691 53.836 283.6 53.9272C284.421 53.1975 285.424 52.4677 286.519 51.8292C295.094 46.9033 309.05 46.9033 317.625 51.8292C326.108 56.7551 326.2 64.6 317.899 69.6171C323.372 64.6912 322.368 58.0321 314.98 53.7448Z" opacity=".4"/><path fill="url(#paint15_linear)" d="M317.529 54.0185C308.954 49.0926 294.997 49.0926 286.423 54.0185C282.591 56.2078 280.493 59.0356 280.037 61.8634C279.49 58.2146 281.588 54.5658 286.423 51.8292C294.997 46.9033 308.954 46.9033 317.529 51.8292C322.272 54.5658 324.462 58.3058 323.914 61.8634C323.458 59.0356 321.36 56.2078 317.529 54.0185Z"/><path fill="url(#paint16_radial)" d="M283.048 50.0693C293.447 43.9576 310.323 43.7751 320.722 49.7044C331.121 55.6338 331.212 65.3031 320.904 71.4149C310.596 77.5267 293.721 77.6179 283.23 71.7798C272.831 65.8505 272.74 56.1811 283.048 50.0693ZM286.514 69.7729C289.342 71.4149 292.808 72.5096 296.548 73.0569L296.913 71.7798C297.096 71.2325 297.552 70.8676 298.099 70.8676H306.035C306.583 70.8676 307.039 71.2325 307.221 71.7798L307.586 73.0569C311.235 72.5096 314.701 71.4149 317.62 69.7729C326.195 64.847 326.195 56.8196 317.62 51.8025C309.046 46.8766 295.089 46.8766 286.514 51.8025C277.848 56.7284 277.848 64.7558 286.514 69.7729Z"/><path fill="#fff" d="M286.512 50.9268C295.087 46.0009 309.043 46.0009 317.618 50.9268C322.088 53.481 324.277 56.9474 324.004 60.3225C323.821 57.221 321.632 54.2108 317.618 51.839C309.043 46.9132 295.087 46.9132 286.512 51.839C282.407 54.2108 280.309 57.221 280.127 60.3225C279.853 56.9474 281.951 53.481 286.512 50.9268Z"/><path fill="#fff" d="M283.323 70.9184C293.814 76.8477 310.598 76.6653 320.997 70.5535C325.923 67.6344 328.477 63.8944 328.66 60.1543C328.842 64.168 326.288 68.3642 320.997 71.4657C310.689 77.5775 293.814 77.6687 283.323 71.8306C277.85 68.7291 275.205 64.6241 275.479 60.428C275.57 64.2592 278.215 68.0905 283.323 70.9184Z"/><path fill="#0C0A78" d="M299.654 73.6613H304.398C304.762 73.6613 305.036 73.3876 305.036 73.0227V72.9315C305.036 72.5666 304.762 72.293 304.398 72.293H299.654C299.289 72.293 299.015 72.5666 299.015 72.9315V73.0227C299.107 73.3876 299.289 73.6613 299.654 73.6613Z"/><path fill="url(#paint17_linear)" d="M299.654 72.4141H304.398C304.762 72.4141 305.036 72.6877 305.036 73.0526V73.1438C305.036 73.235 305.036 73.2351 305.036 73.3263C304.945 73.0526 304.762 72.8702 304.489 72.8702H299.745C299.472 72.8702 299.289 73.0526 299.198 73.3263C299.198 73.2351 299.198 73.235 299.198 73.1438V73.0526C299.107 72.6877 299.289 72.4141 299.654 72.4141Z"/><path fill="#E8975B" d="M301.301 115.515C301.848 117.704 304.129 118.981 306.318 118.434C308.507 117.886 309.784 115.606 309.237 113.417C308.69 111.228 306.592 110.589 304.402 111.228C302.213 111.775 300.753 113.326 301.301 115.515Z"/><path fill="#E8975B" d="M298.099 111.212C298.92 112.033 300.015 111.942 300.653 111.212C301.383 110.482 301.474 109.479 300.653 108.658C299.832 107.837 298.282 107.472 297.552 108.201C296.822 108.84 297.278 110.391 298.099 111.212Z"/><path fill="#E8975B" d="M302.395 107.769C302.577 108.864 303.489 109.411 304.493 109.229C305.496 109.046 306.135 108.225 305.952 107.131C305.77 106.036 304.675 104.759 303.763 104.941C302.668 105.124 302.121 106.675 302.395 107.769Z"/><path fill="#E8975B" d="M307.589 107.244C307.133 108.339 307.68 109.251 308.593 109.616C309.505 109.981 310.508 109.707 310.964 108.612C311.421 107.518 311.147 105.967 310.235 105.602C309.322 105.237 308.045 106.241 307.589 107.244Z"/><path fill="#fff" d="M300.379 73.072C300.379 73.072 286.149 68.3285 291.896 51.9089C297.643 35.4893 308.954 30.5634 304.393 17.4277C304.393 17.4277 311.508 28.0093 304.849 42.422C298.19 56.7436 296.73 55.1016 296.822 62.0343C296.913 70.1529 303.481 73.1632 303.481 73.1632H300.379V73.072Z" opacity=".5"/><path fill="#fff" d="M299.107 19.7036C299.107 19.7036 300.566 9.85179 291.353 0C291.353 0 299.472 18.1528 296.826 27.1836C296.826 27.1836 299.016 21.4368 299.107 19.7036Z" opacity=".5"/></g><defs><linearGradient id="paint0_linear" x1="29.924" x2=".176" y1="245.69" y2="245.69" gradientUnits="userSpaceOnUse"><stop stop-color="#E39A65"/><stop offset="1" stop-color="#E95F8D"/></linearGradient><linearGradient id="paint1_linear" x1="70.67" x2="20.701" y1="204.958" y2="204.958" gradientUnits="userSpaceOnUse"><stop stop-color="#E39A65"/><stop offset="1" stop-color="#E95F8D"/></linearGradient><linearGradient id="paint2_linear" x1="400.168" x2="350.199" y1="221.68" y2="221.68" gradientUnits="userSpaceOnUse"><stop stop-color="#E39A65"/><stop offset="1" stop-color="#E95F8D"/></linearGradient><linearGradient id="paint3_linear" x1="341.988" x2="75.299" y1="218.494" y2="218.494" gradientUnits="userSpaceOnUse"><stop stop-color="#E39A65"/><stop offset="1" stop-color="#E95F8D"/></linearGradient><radialGradient id="paint4_radial" cx="0" cy="0" r="1" gradientTransform="translate(194.682 21.0333) rotate(180) scale(203.691 203.691)" gradientUnits="userSpaceOnUse"><stop stop-color="#E39A65"/><stop offset=".474" stop-color="#A92FFB"/><stop offset=".595" stop-color="#891CFB"/><stop offset=".742" stop-color="#6507FA"/><stop offset=".802" stop-color="#0D0C6F"/></radialGradient><radialGradient id="paint5_radial" cx="0" cy="0" r="1" gradientTransform="translate(319.262 184.554) rotate(180) scale(222.734 222.735)" gradientUnits="userSpaceOnUse"><stop stop-color="#E39A65"/><stop offset=".474" stop-color="#A92FFB"/><stop offset=".568" stop-color="#891CFB"/><stop offset=".682" stop-color="#6507FA"/><stop offset=".738" stop-color="#0D0C6F"/></radialGradient><radialGradient id="paint6_radial" cx="0" cy="0" r="1" gradientTransform="translate(298.787 139.906) rotate(180) scale(199.736 199.735)" gradientUnits="userSpaceOnUse"><stop stop-color="#E39A65"/><stop offset=".474" stop-color="#A92FFB"/><stop offset=".588" stop-color="#891CFB"/><stop offset=".726" stop-color="#6507FA"/><stop offset="1" stop-color="#3919BB"/></radialGradient><radialGradient id="paint7_radial" cx="0" cy="0" r="1" gradientTransform="translate(249.014 63.5253) rotate(180) scale(203.732 203.732)" gradientUnits="userSpaceOnUse"><stop stop-color="#E39A65"/><stop offset=".474" stop-color="#A92FFB"/><stop offset=".588" stop-color="#891CFB"/><stop offset=".726" stop-color="#6507FA"/><stop offset="1" stop-color="#3919BB"/></radialGradient><linearGradient id="paint8_linear" x1="226.624" x2="63.372" y1="116.96" y2="116.96" gradientUnits="userSpaceOnUse"><stop stop-color="#3919BB"/><stop offset="1" stop-color="#6507FA"/></linearGradient><radialGradient id="paint9_radial" cx="0" cy="0" r="1" gradientTransform="translate(323.389 20.0465) rotate(180) scale(317.305 317.307)" gradientUnits="userSpaceOnUse"><stop stop-color="#E39A65"/><stop offset=".474" stop-color="#A92FFB"/><stop offset=".588" stop-color="#891CFB"/><stop offset=".726" stop-color="#6507FA"/><stop offset="1" stop-color="#3919BB"/></radialGradient><linearGradient id="paint10_linear" x1="337.946" x2="267.912" y1="139.308" y2="139.308" gradientUnits="userSpaceOnUse"><stop stop-color="#E39A65"/><stop offset="1" stop-color="#E95F8D"/></linearGradient><radialGradient id="paint11_radial" cx="0" cy="0" r="1" gradientTransform="translate(331.74 82.1801) rotate(180) scale(150.832 150.831)" gradientUnits="userSpaceOnUse"><stop stop-color="#E39A65"/><stop offset=".153" stop-color="#A92FFB"/><stop offset=".409" stop-color="#3919BB"/><stop offset=".931" stop-color="#3919BB"/></radialGradient><linearGradient id="paint12_linear" x1="329.064" x2="274.962" y1="63.508" y2="63.508" gradientUnits="userSpaceOnUse"><stop stop-color="#E39A65"/><stop offset=".252" stop-color="#A92FFB"/><stop offset=".556" stop-color="#3919BB"/></linearGradient><linearGradient id="paint13_linear" x1="323.995" x2="280.041" y1="60.774" y2="60.774" gradientUnits="userSpaceOnUse"><stop stop-color="#4F1FEC"/><stop offset="1" stop-color="#A92FFB"/></linearGradient><linearGradient id="paint14_linear" x1="325.025" x2="281.072" y1="60.774" y2="60.774" gradientUnits="userSpaceOnUse"><stop stop-color="#4F1FEC"/><stop offset="1" stop-color="#A92FFB"/></linearGradient><linearGradient id="paint15_linear" x1="323.985" x2="268.566" y1="54.997" y2="54.997" gradientUnits="userSpaceOnUse"><stop stop-color="#131060"/><stop offset=".186" stop-color="#141062"/><stop offset=".282" stop-color="#19106A"/><stop offset=".358" stop-color="#221078"/><stop offset=".424" stop-color="#2E0F8B"/><stop offset=".482" stop-color="#3E0FA3"/><stop offset=".536" stop-color="#510EC2"/><stop offset=".585" stop-color="#680DE5"/><stop offset=".607" stop-color="#740DF8"/><stop offset=".618" stop-color="#7A14F0"/><stop offset=".683" stop-color="#9B3CC3"/><stop offset=".748" stop-color="#B75D9D"/><stop offset=".812" stop-color="#CC7680"/><stop offset=".876" stop-color="#DC886C"/><stop offset=".939" stop-color="#E5935F"/><stop offset="1" stop-color="#E8975B"/></linearGradient><radialGradient id="paint16_radial" cx="0" cy="0" r="1" gradientTransform="translate(335.814 48.2061) rotate(180) scale(98.6682)" gradientUnits="userSpaceOnUse"><stop stop-color="#E39A65"/><stop offset=".252" stop-color="#A92FFB"/><stop offset=".736" stop-color="#3919BB"/></radialGradient><linearGradient id="paint17_linear" x1="305.494" x2="297.828" y1="72.852" y2="72.852" gradientUnits="userSpaceOnUse"><stop stop-color="#131060"/><stop offset=".186" stop-color="#141062"/><stop offset=".282" stop-color="#19106A"/><stop offset=".358" stop-color="#221078"/><stop offset=".424" stop-color="#2E0F8B"/><stop offset=".482" stop-color="#3E0FA3"/><stop offset=".536" stop-color="#510EC2"/><stop offset=".585" stop-color="#680DE5"/><stop offset=".607" stop-color="#740DF8"/><stop offset=".618" stop-color="#7A14F0"/><stop offset=".683" stop-color="#9B3CC3"/><stop offset=".748" stop-color="#B75D9D"/><stop offset=".812" stop-color="#CC7680"/><stop offset=".876" stop-color="#DC886C"/><stop offset=".939" stop-color="#E5935F"/><stop offset="1" stop-color="#E8975B"/></linearGradient><clipPath id="clip0"><rect width="400" height="296.283" fill="#fff" transform="matrix(-1 0 0 1 400.168 0)"/></clipPath></defs></svg>